<svg xmlns="http://www.w3.org/2000/svg" width="313" height="67" viewBox="0 0 313 67" fill="none"><path d="M85.1333 15.1681C85.1333 16.6777 84.6128 17.9357 83.5716 18.9422C82.5479 19.9312 80.9775 20.4258 78.8605 20.4258H75.3727V28H73.0042V9.85831H78.8605C80.9081 9.85831 82.4611 10.3528 83.5196 11.3419C84.5954 12.331 85.1333 13.6064 85.1333 15.1681ZM78.8605 18.4737C80.1793 18.4737 81.151 18.1874 81.7757 17.6147C82.4004 17.0421 82.7127 16.2266 82.7127 15.1681C82.7127 12.9296 81.4287 11.8104 78.8605 11.8104H75.3727V18.4737H78.8605ZM87.1922 20.8162C87.1922 19.3586 87.4872 18.0832 88.0772 16.9901C88.6671 15.8795 89.474 15.0206 90.4978 14.4133C91.5389 13.8059 92.6928 13.5023 93.9596 13.5023C95.2089 13.5023 96.2934 13.7712 97.2131 14.3091C98.1328 14.8471 98.8182 15.5238 99.2693 16.3393V13.7365H101.664V28H99.2693V25.3451C98.8008 26.178 98.098 26.8721 97.161 27.4274C96.2414 27.9653 95.1655 28.2343 93.9335 28.2343C92.6668 28.2343 91.5216 27.9219 90.4978 27.2972C89.474 26.6726 88.6671 25.7963 88.0772 24.6684C87.4872 23.5405 87.1922 22.2564 87.1922 20.8162ZM99.2693 20.8422C99.2693 19.7664 99.0524 18.8294 98.6186 18.0312C98.1848 17.233 97.5948 16.6257 96.8487 16.2092C96.1199 15.7754 95.313 15.5585 94.4281 15.5585C93.5431 15.5585 92.7362 15.7667 92.0074 16.1832C91.2786 16.5996 90.6973 17.207 90.2635 18.0052C89.8297 18.8034 89.6128 19.7404 89.6128 20.8162C89.6128 21.9094 89.8297 22.8638 90.2635 23.6793C90.6973 24.4775 91.2786 25.0935 92.0074 25.5273C92.7362 25.9438 93.5431 26.152 94.4281 26.152C95.313 26.152 96.1199 25.9438 96.8487 25.5273C97.5948 25.0935 98.1848 24.4775 98.6186 23.6793C99.0524 22.8638 99.2693 21.9181 99.2693 20.8422ZM108.035 16.053C108.452 15.2375 109.042 14.6041 109.805 14.153C110.586 13.7018 111.532 13.4762 112.642 13.4762V15.9229H112.017C109.363 15.9229 108.035 17.3631 108.035 20.2436V28H105.667V13.7365H108.035V16.053ZM114.491 20.8162C114.491 19.3586 114.786 18.0832 115.376 16.9901C115.966 15.8795 116.773 15.0206 117.797 14.4133C118.838 13.8059 119.992 13.5023 121.259 13.5023C122.508 13.5023 123.593 13.7712 124.512 14.3091C125.432 14.8471 126.117 15.5238 126.568 16.3393V13.7365H128.963V28H126.568V25.3451C126.1 26.178 125.397 26.8721 124.46 27.4274C123.541 27.9653 122.465 28.2343 121.233 28.2343C119.966 28.2343 118.821 27.9219 117.797 27.2972C116.773 26.6726 115.966 25.7963 115.376 24.6684C114.786 23.5405 114.491 22.2564 114.491 20.8162ZM126.568 20.8422C126.568 19.7664 126.352 18.8294 125.918 18.0312C125.484 17.233 124.894 16.6257 124.148 16.2092C123.419 15.7754 122.612 15.5585 121.727 15.5585C120.842 15.5585 120.035 15.7667 119.307 16.1832C118.578 16.5996 117.997 17.207 117.563 18.0052C117.129 18.8034 116.912 19.7404 116.912 20.8162C116.912 21.9094 117.129 22.8638 117.563 23.6793C117.997 24.4775 118.578 25.0935 119.307 25.5273C120.035 25.9438 120.842 26.152 121.727 26.152C122.612 26.152 123.419 25.9438 124.148 25.5273C124.894 25.0935 125.484 24.4775 125.918 23.6793C126.352 22.8638 126.568 21.9181 126.568 20.8422ZM142.794 15.6886V24.0958C142.794 24.7898 142.942 25.2844 143.237 25.5794C143.531 25.857 144.043 25.9958 144.772 25.9958H146.516V28H144.382C143.063 28 142.074 27.6963 141.415 27.089C140.755 26.4817 140.425 25.4839 140.425 24.0958V15.6886H138.577V13.7365H140.425V10.1446H142.794V13.7365H146.516V15.6886H142.794ZM155.607 28.2343C154.271 28.2343 153.056 27.9306 151.963 27.3233C150.887 26.7159 150.037 25.857 149.412 24.7465C148.805 23.6186 148.501 22.3172 148.501 20.8422C148.501 19.3847 148.813 18.1006 149.438 16.9901C150.08 15.8622 150.948 15.0032 152.041 14.4133C153.134 13.8059 154.357 13.5023 155.711 13.5023C157.064 13.5023 158.288 13.8059 159.381 14.4133C160.474 15.0032 161.333 15.8535 161.958 16.964C162.6 18.0746 162.921 19.3673 162.921 20.8422C162.921 22.3172 162.591 23.6186 161.932 24.7465C161.289 25.857 160.413 26.7159 159.303 27.3233C158.192 27.9306 156.96 28.2343 155.607 28.2343ZM155.607 26.152C156.457 26.152 157.255 25.9524 158.001 25.5533C158.747 25.1542 159.346 24.5556 159.797 23.7574C160.266 22.9592 160.5 21.9875 160.5 20.8422C160.5 19.697 160.274 18.7253 159.823 17.9271C159.372 17.1289 158.782 16.5389 158.053 16.1571C157.325 15.758 156.535 15.5585 155.685 15.5585C154.817 15.5585 154.019 15.758 153.29 16.1571C152.579 16.5389 152.006 17.1289 151.572 17.9271C151.138 18.7253 150.922 19.697 150.922 20.8422C150.922 22.0048 151.13 22.9852 151.546 23.7834C151.98 24.5816 152.553 25.1803 153.264 25.5794C153.976 25.9611 154.756 26.152 155.607 26.152ZM165.15 20.8162C165.15 19.3586 165.445 18.0832 166.035 16.9901C166.625 15.8795 167.432 15.0206 168.455 14.4133C169.497 13.8059 170.659 13.5023 171.943 13.5023C173.054 13.5023 174.086 13.7625 175.041 14.2831C175.995 14.7863 176.724 15.4544 177.227 16.2873V8.7391H179.622V28H177.227V25.3191C176.758 26.1693 176.064 26.8721 175.145 27.4274C174.225 27.9653 173.149 28.2343 171.917 28.2343C170.65 28.2343 169.497 27.9219 168.455 27.2972C167.432 26.6726 166.625 25.7963 166.035 24.6684C165.445 23.5405 165.15 22.2564 165.15 20.8162ZM177.227 20.8422C177.227 19.7664 177.01 18.8294 176.576 18.0312C176.142 17.233 175.552 16.6257 174.806 16.2092C174.078 15.7754 173.271 15.5585 172.386 15.5585C171.501 15.5585 170.694 15.7667 169.965 16.1832C169.236 16.5996 168.655 17.207 168.221 18.0052C167.787 18.8034 167.57 19.7404 167.57 20.8162C167.57 21.9094 167.787 22.8638 168.221 23.6793C168.655 24.4775 169.236 25.0935 169.965 25.5273C170.694 25.9438 171.501 26.152 172.386 26.152C173.271 26.152 174.078 25.9438 174.806 25.5273C175.552 25.0935 176.142 24.4775 176.576 23.6793C177.01 22.8638 177.227 21.9181 177.227 20.8422ZM189.845 28.2343C188.509 28.2343 187.294 27.9306 186.201 27.3233C185.125 26.7159 184.275 25.857 183.65 24.7465C183.043 23.6186 182.739 22.3172 182.739 20.8422C182.739 19.3847 183.052 18.1006 183.676 16.9901C184.318 15.8622 185.186 15.0032 186.279 14.4133C187.372 13.8059 188.596 13.5023 189.949 13.5023C191.303 13.5023 192.526 13.8059 193.619 14.4133C194.712 15.0032 195.571 15.8535 196.196 16.964C196.838 18.0746 197.159 19.3673 197.159 20.8422C197.159 22.3172 196.829 23.6186 196.17 24.7465C195.528 25.857 194.652 26.7159 193.541 27.3233C192.43 27.9306 191.198 28.2343 189.845 28.2343ZM189.845 26.152C190.695 26.152 191.493 25.9524 192.24 25.5533C192.986 25.1542 193.584 24.5556 194.036 23.7574C194.504 22.9592 194.738 21.9875 194.738 20.8422C194.738 19.697 194.513 18.7253 194.062 17.9271C193.61 17.1289 193.02 16.5389 192.292 16.1571C191.563 15.758 190.773 15.5585 189.923 15.5585C189.055 15.5585 188.257 15.758 187.528 16.1571C186.817 16.5389 186.244 17.1289 185.811 17.9271C185.377 18.7253 185.16 19.697 185.16 20.8422C185.16 22.0048 185.368 22.9852 185.785 23.7834C186.218 24.5816 186.791 25.1803 187.502 25.5794C188.214 25.9611 188.995 26.152 189.845 26.152ZM205.323 28.2343C204.229 28.2343 203.249 28.0521 202.381 27.6877C201.514 27.3059 200.828 26.7853 200.325 26.126C199.822 25.4492 199.544 24.6771 199.492 23.8095H201.939C202.008 24.5209 202.338 25.1022 202.928 25.5533C203.535 26.0045 204.325 26.2301 205.297 26.2301C206.199 26.2301 206.91 26.0305 207.431 25.6314C207.951 25.2323 208.212 24.7291 208.212 24.1218C208.212 23.4971 207.934 23.0373 207.379 22.7423C206.824 22.43 205.965 22.1263 204.802 21.8313C203.744 21.5537 202.876 21.276 202.199 20.9984C201.54 20.7034 200.967 20.2783 200.481 19.723C200.013 19.1504 199.779 18.4043 199.779 17.4846C199.779 16.7558 199.996 16.0877 200.429 15.4804C200.863 14.8731 201.479 14.3959 202.277 14.0489C203.076 13.6845 203.987 13.5023 205.01 13.5023C206.589 13.5023 207.865 13.9014 208.836 14.6996C209.808 15.4978 210.329 16.591 210.398 17.9791H208.03C207.978 17.233 207.674 16.6343 207.119 16.1832C206.581 15.732 205.852 15.5064 204.932 15.5064C204.082 15.5064 203.405 15.6886 202.902 16.053C202.399 16.4174 202.147 16.8946 202.147 17.4846C202.147 17.9531 202.295 18.3435 202.59 18.6559C202.902 18.9508 203.284 19.1938 203.735 19.3847C204.203 19.5582 204.845 19.7577 205.661 19.9833C206.685 20.2609 207.518 20.5386 208.16 20.8162C208.802 21.0765 209.348 21.4756 209.799 22.0135C210.268 22.5514 210.511 23.2542 210.528 24.1218C210.528 24.9026 210.311 25.6054 209.878 26.2301C209.444 26.8548 208.828 27.3493 208.03 27.7137C207.249 28.0607 206.346 28.2343 205.323 28.2343ZM227.032 28.2343C225.696 28.2343 224.481 27.9306 223.388 27.3233C222.312 26.7159 221.462 25.857 220.837 24.7465C220.23 23.6186 219.926 22.3172 219.926 20.8422C219.926 19.3847 220.238 18.1006 220.863 16.9901C221.505 15.8622 222.373 15.0032 223.466 14.4133C224.559 13.8059 225.782 13.5023 227.136 13.5023C228.489 13.5023 229.713 13.8059 230.806 14.4133C231.899 15.0032 232.758 15.8535 233.383 16.964C234.025 18.0746 234.346 19.3673 234.346 20.8422C234.346 22.3172 234.016 23.6186 233.357 24.7465C232.715 25.857 231.838 26.7159 230.728 27.3233C229.617 27.9306 228.385 28.2343 227.032 28.2343ZM227.032 26.152C227.882 26.152 228.68 25.9524 229.426 25.5533C230.173 25.1542 230.771 24.5556 231.222 23.7574C231.691 22.9592 231.925 21.9875 231.925 20.8422C231.925 19.697 231.7 18.7253 231.248 17.9271C230.797 17.1289 230.207 16.5389 229.478 16.1571C228.75 15.758 227.96 15.5585 227.11 15.5585C226.242 15.5585 225.444 15.758 224.715 16.1571C224.004 16.5389 223.431 17.1289 222.997 17.9271C222.564 18.7253 222.347 19.697 222.347 20.8422C222.347 22.0048 222.555 22.9852 222.971 23.7834C223.405 24.5816 223.978 25.1803 224.689 25.5794C225.401 25.9611 226.182 26.152 227.032 26.152ZM242.509 28.2343C241.416 28.2343 240.436 28.0521 239.568 27.6877C238.701 27.3059 238.015 26.7853 237.512 26.126C237.009 25.4492 236.731 24.6771 236.679 23.8095H239.126C239.195 24.5209 239.525 25.1022 240.115 25.5533C240.722 26.0045 241.512 26.2301 242.483 26.2301C243.386 26.2301 244.097 26.0305 244.618 25.6314C245.138 25.2323 245.399 24.7291 245.399 24.1218C245.399 23.4971 245.121 23.0373 244.566 22.7423C244.01 22.43 243.151 22.1263 241.989 21.8313C240.93 21.5537 240.063 21.276 239.386 20.9984C238.727 20.7034 238.154 20.2783 237.668 19.723C237.2 19.1504 236.965 18.4043 236.965 17.4846C236.965 16.7558 237.182 16.0877 237.616 15.4804C238.05 14.8731 238.666 14.3959 239.464 14.0489C240.262 13.6845 241.173 13.5023 242.197 13.5023C243.776 13.5023 245.052 13.9014 246.023 14.6996C246.995 15.4978 247.516 16.591 247.585 17.9791H245.216C245.164 17.233 244.861 16.6343 244.305 16.1832C243.767 15.732 243.039 15.5064 242.119 15.5064C241.269 15.5064 240.592 15.6886 240.089 16.053C239.586 16.4174 239.334 16.8946 239.334 17.4846C239.334 17.9531 239.481 18.3435 239.776 18.6559C240.089 18.9508 240.471 19.1938 240.922 19.3847C241.39 19.5582 242.032 19.7577 242.848 19.9833C243.872 20.2609 244.704 20.5386 245.347 20.8162C245.989 21.0765 246.535 21.4756 246.986 22.0135C247.455 22.5514 247.698 23.2542 247.715 24.1218C247.715 24.9026 247.498 25.6054 247.064 26.2301C246.631 26.8548 246.015 27.3493 245.216 27.7137C244.436 28.0607 243.533 28.2343 242.509 28.2343ZM75.8933 45.6886V54.0958C75.8933 54.7898 76.0408 55.2844 76.3358 55.5794C76.6308 55.857 77.1427 55.9958 77.8715 55.9958H79.6153V58H77.481C76.1623 58 75.1732 57.6963 74.5138 57.089C73.8544 56.4817 73.5247 55.4839 73.5247 54.0958V45.6886H71.6767V43.7365H73.5247V40.1446H75.8933V43.7365H79.6153V45.6886H75.8933ZM83.7085 41.42C83.2573 41.42 82.8756 41.2638 82.5633 40.9515C82.2509 40.6392 82.0947 40.2574 82.0947 39.8063C82.0947 39.3551 82.2509 38.9734 82.5633 38.661C82.8756 38.3487 83.2573 38.1925 83.7085 38.1925C84.1423 38.1925 84.5067 38.3487 84.8017 38.661C85.114 38.9734 85.2702 39.3551 85.2702 39.8063C85.2702 40.2574 85.114 40.6392 84.8017 40.9515C84.5067 41.2638 84.1423 41.42 83.7085 41.42ZM84.8537 43.7365V58H82.4852V43.7365H84.8537ZM91.2591 46.3654C91.7276 45.5498 92.4217 44.8731 93.3414 44.3352C94.2784 43.7799 95.3629 43.5023 96.5949 43.5023C97.8616 43.5023 99.0069 43.8059 100.031 44.4133C101.072 45.0206 101.887 45.8795 102.477 46.9901C103.067 48.0832 103.362 49.3586 103.362 50.8162C103.362 52.2564 103.067 53.5405 102.477 54.6684C101.887 55.7963 101.072 56.6726 100.031 57.2972C99.0069 57.9219 97.8616 58.2343 96.5949 58.2343C95.3803 58.2343 94.3044 57.9653 93.3674 57.4274C92.4477 56.8721 91.745 56.1867 91.2591 55.3711V64.7673H88.8906V43.7365H91.2591V46.3654ZM100.942 50.8162C100.942 49.7404 100.725 48.8034 100.291 48.0052C99.8571 47.207 99.2671 46.5996 98.521 46.1832C97.7922 45.7667 96.9853 45.5585 96.1004 45.5585C95.2328 45.5585 94.4259 45.7754 93.6798 46.2092C92.951 46.6257 92.361 47.2417 91.9098 48.0572C91.476 48.8554 91.2591 49.7838 91.2591 50.8422C91.2591 51.9181 91.476 52.8638 91.9098 53.6793C92.361 54.4775 92.951 55.0935 93.6798 55.5273C94.4259 55.9438 95.2328 56.152 96.1004 56.152C96.9853 56.152 97.7922 55.9438 98.521 55.5273C99.2671 55.0935 99.8571 54.4775 100.291 53.6793C100.725 52.8638 100.942 51.9094 100.942 50.8162ZM112.701 58.2343C111.365 58.2343 110.15 57.9306 109.057 57.3233C107.981 56.7159 107.131 55.857 106.506 54.7465C105.899 53.6186 105.595 52.3172 105.595 50.8422C105.595 49.3847 105.907 48.1006 106.532 46.9901C107.174 45.8622 108.042 45.0032 109.135 44.4133C110.228 43.8059 111.451 43.5023 112.805 43.5023C114.158 43.5023 115.382 43.8059 116.475 44.4133C117.568 45.0032 118.427 45.8535 119.052 46.964C119.694 48.0746 120.015 49.3673 120.015 50.8422C120.015 52.3172 119.685 53.6186 119.026 54.7465C118.384 55.857 117.507 56.7159 116.397 57.3233C115.286 57.9306 114.054 58.2343 112.701 58.2343ZM112.701 56.152C113.551 56.152 114.349 55.9524 115.095 55.5533C115.841 55.1542 116.44 54.5556 116.891 53.7574C117.36 52.9592 117.594 51.9875 117.594 50.8422C117.594 49.697 117.368 48.7253 116.917 47.9271C116.466 47.1289 115.876 46.5389 115.147 46.1571C114.419 45.758 113.629 45.5585 112.779 45.5585C111.911 45.5585 111.113 45.758 110.384 46.1571C109.673 46.5389 109.1 47.1289 108.666 47.9271C108.233 48.7253 108.016 49.697 108.016 50.8422C108.016 52.0048 108.224 52.9852 108.64 53.7834C109.074 54.5816 109.647 55.1803 110.358 55.5794C111.07 55.9611 111.85 56.152 112.701 56.152ZM128.178 58.2343C127.085 58.2343 126.105 58.0521 125.237 57.6877C124.37 57.3059 123.684 56.7853 123.181 56.126C122.678 55.4492 122.4 54.6771 122.348 53.8095H124.795C124.864 54.5209 125.194 55.1022 125.784 55.5533C126.391 56.0045 127.181 56.2301 128.152 56.2301C129.055 56.2301 129.766 56.0305 130.287 55.6314C130.807 55.2323 131.067 54.7291 131.067 54.1218C131.067 53.4971 130.79 53.0373 130.235 52.7423C129.679 52.43 128.82 52.1263 127.658 51.8313C126.599 51.5537 125.732 51.276 125.055 50.9984C124.396 50.7034 123.823 50.2783 123.337 49.723C122.869 49.1504 122.634 48.4043 122.634 47.4846C122.634 46.7558 122.851 46.0877 123.285 45.4804C123.719 44.8731 124.335 44.3959 125.133 44.0489C125.931 43.6845 126.842 43.5023 127.866 43.5023C129.445 43.5023 130.72 43.9014 131.692 44.6996C132.664 45.4978 133.184 46.591 133.254 47.9791H130.885C130.833 47.233 130.53 46.6343 129.974 46.1832C129.436 45.732 128.708 45.5064 127.788 45.5064C126.938 45.5064 126.261 45.6886 125.758 46.053C125.255 46.4174 125.003 46.8946 125.003 47.4846C125.003 47.9531 125.15 48.3435 125.445 48.6559C125.758 48.9508 126.139 49.1938 126.591 49.3847C127.059 49.5582 127.701 49.7577 128.517 49.9833C129.541 50.2609 130.373 50.5386 131.015 50.8162C131.657 51.0765 132.204 51.4756 132.655 52.0135C133.124 52.5514 133.367 53.2542 133.384 54.1218C133.384 54.9026 133.167 55.6054 132.733 56.2301C132.299 56.8548 131.683 57.3493 130.885 57.7137C130.104 58.0607 129.202 58.2343 128.178 58.2343ZM142.782 50.8162C142.782 49.3586 143.077 48.0832 143.667 46.9901C144.257 45.8795 145.064 45.0206 146.087 44.4133C147.129 43.8059 148.291 43.5023 149.575 43.5023C150.686 43.5023 151.718 43.7625 152.673 44.2831C153.627 44.7863 154.356 45.4544 154.859 46.2873V38.7391H157.254V58H154.859V55.3191C154.39 56.1693 153.696 56.8721 152.777 57.4274C151.857 57.9653 150.781 58.2343 149.549 58.2343C148.282 58.2343 147.129 57.9219 146.087 57.2972C145.064 56.6726 144.257 55.7963 143.667 54.6684C143.077 53.5405 142.782 52.2564 142.782 50.8162ZM154.859 50.8422C154.859 49.7664 154.642 48.8294 154.208 48.0312C153.774 47.233 153.184 46.6257 152.438 46.2092C151.71 45.7754 150.903 45.5585 150.018 45.5585C149.133 45.5585 148.326 45.7667 147.597 46.1832C146.868 46.5996 146.287 47.207 145.853 48.0052C145.419 48.8034 145.202 49.7404 145.202 50.8162C145.202 51.9094 145.419 52.8638 145.853 53.6793C146.287 54.4775 146.868 55.0935 147.597 55.5273C148.326 55.9438 149.133 56.152 150.018 56.152C150.903 56.152 151.71 55.9438 152.438 55.5273C153.184 55.0935 153.774 54.4775 154.208 53.6793C154.642 52.8638 154.859 51.9181 154.859 50.8422ZM174.27 50.3217C174.27 50.7728 174.244 51.25 174.192 51.7532H162.792C162.879 53.1587 163.356 54.2606 164.223 55.0588C165.108 55.8397 166.176 56.2301 167.425 56.2301C168.449 56.2301 169.299 55.9958 169.976 55.5273C170.67 55.0415 171.156 54.3994 171.433 53.6012H173.984C173.602 54.972 172.839 56.0913 171.694 56.9589C170.548 57.8091 169.125 58.2343 167.425 58.2343C166.071 58.2343 164.857 57.9306 163.781 57.3233C162.722 56.7159 161.89 55.857 161.282 54.7465C160.675 53.6186 160.371 52.3172 160.371 50.8422C160.371 49.3673 160.666 48.0746 161.256 46.964C161.846 45.8535 162.67 45.0032 163.729 44.4133C164.805 43.8059 166.037 43.5023 167.425 43.5023C168.778 43.5023 169.976 43.7973 171.017 44.3872C172.058 44.9772 172.856 45.7928 173.411 46.8339C173.984 47.8577 174.27 49.0203 174.27 50.3217ZM171.824 49.8271C171.824 48.9248 171.624 48.1526 171.225 47.5106C170.826 46.8512 170.279 46.3567 169.585 46.027C168.908 45.68 168.154 45.5064 167.321 45.5064C166.123 45.5064 165.1 45.8882 164.249 46.6517C163.417 47.4152 162.939 48.4737 162.818 49.8271H171.824ZM186.704 46.3654C187.173 45.5498 187.867 44.8731 188.787 44.3352C189.724 43.7799 190.808 43.5023 192.04 43.5023C193.307 43.5023 194.452 43.8059 195.476 44.4133C196.517 45.0206 197.333 45.8795 197.923 46.9901C198.513 48.0832 198.808 49.3586 198.808 50.8162C198.808 52.2564 198.513 53.5405 197.923 54.6684C197.333 55.7963 196.517 56.6726 195.476 57.2972C194.452 57.9219 193.307 58.2343 192.04 58.2343C190.826 58.2343 189.75 57.9653 188.813 57.4274C187.893 56.8721 187.19 56.1867 186.704 55.3711V64.7673H184.336V43.7365H186.704V46.3654ZM196.387 50.8162C196.387 49.7404 196.17 48.8034 195.736 48.0052C195.302 47.207 194.713 46.5996 193.966 46.1832C193.238 45.7667 192.431 45.5585 191.546 45.5585C190.678 45.5585 189.871 45.7754 189.125 46.2092C188.396 46.6257 187.806 47.2417 187.355 48.0572C186.921 48.8554 186.704 49.7838 186.704 50.8422C186.704 51.9181 186.921 52.8638 187.355 53.6793C187.806 54.4775 188.396 55.0935 189.125 55.5273C189.871 55.9438 190.678 56.152 191.546 56.152C192.431 56.152 193.238 55.9438 193.966 55.5273C194.713 55.0935 195.302 54.4775 195.736 53.6793C196.17 52.8638 196.387 51.9094 196.387 50.8162ZM214.939 50.3217C214.939 50.7728 214.913 51.25 214.861 51.7532H203.461C203.548 53.1587 204.025 54.2606 204.893 55.0588C205.777 55.8397 206.845 56.2301 208.094 56.2301C209.118 56.2301 209.968 55.9958 210.645 55.5273C211.339 55.0415 211.825 54.3994 212.102 53.6012H214.653C214.271 54.972 213.508 56.0913 212.363 56.9589C211.217 57.8091 209.795 58.2343 208.094 58.2343C206.741 58.2343 205.526 57.9306 204.45 57.3233C203.392 56.7159 202.559 55.857 201.951 54.7465C201.344 53.6186 201.04 52.3172 201.04 50.8422C201.04 49.3673 201.335 48.0746 201.925 46.964C202.515 45.8535 203.34 45.0032 204.398 44.4133C205.474 43.8059 206.706 43.5023 208.094 43.5023C209.447 43.5023 210.645 43.7973 211.686 44.3872C212.727 44.9772 213.525 45.7928 214.081 46.8339C214.653 47.8577 214.939 49.0203 214.939 50.3217ZM212.493 49.8271C212.493 48.9248 212.293 48.1526 211.894 47.5106C211.495 46.8512 210.948 46.3567 210.254 46.027C209.578 45.68 208.823 45.5064 207.99 45.5064C206.793 45.5064 205.769 45.8882 204.919 46.6517C204.086 47.4152 203.608 48.4737 203.487 49.8271H212.493ZM220.434 38.7391V58H218.066V38.7391H220.434ZM237.485 50.3217C237.485 50.7728 237.459 51.25 237.407 51.7532H226.007C226.094 53.1587 226.571 54.2606 227.438 55.0588C228.323 55.8397 229.391 56.2301 230.64 56.2301C231.664 56.2301 232.514 55.9958 233.191 55.5273C233.885 55.0415 234.371 54.3994 234.648 53.6012H237.199C236.817 54.972 236.054 56.0913 234.909 56.9589C233.763 57.8091 232.34 58.2343 230.64 58.2343C229.287 58.2343 228.072 57.9306 226.996 57.3233C225.938 56.7159 225.105 55.857 224.497 54.7465C223.89 53.6186 223.586 52.3172 223.586 50.8422C223.586 49.3673 223.881 48.0746 224.471 46.964C225.061 45.8535 225.885 45.0032 226.944 44.4133C228.02 43.8059 229.252 43.5023 230.64 43.5023C231.993 43.5023 233.191 43.7973 234.232 44.3872C235.273 44.9772 236.071 45.7928 236.626 46.8339C237.199 47.8577 237.485 49.0203 237.485 50.3217ZM235.039 49.8271C235.039 48.9248 234.839 48.1526 234.44 47.5106C234.041 46.8512 233.494 46.3567 232.8 46.027C232.124 45.68 231.369 45.5064 230.536 45.5064C229.339 45.5064 228.315 45.8882 227.465 46.6517C226.632 47.4152 226.154 48.4737 226.033 49.8271H235.039Z" fill="#FFE8DD"></path><path d="M6.53049 20.3792C6.64947 20.4275 6.77258 20.4504 6.89363 20.4504C7.27492 20.4504 7.63639 20.2228 7.78873 19.8477C9.11148 16.5909 10.9679 13.6071 13.3059 10.9793L13.6449 10.5982C14.5731 9.55505 15.1623 8.27221 15.3486 6.88842L15.9972 2.07541C16.0684 1.54679 15.6977 1.06055 15.1691 0.989337C14.6403 0.917611 14.1542 1.28886 14.083 1.81747L13.4344 6.63049C13.2994 7.63144 12.8733 8.5595 12.2018 9.31437L11.8627 9.69541C9.37791 12.4882 7.40511 15.6594 5.99917 19.1209C5.79841 19.6152 6.03626 20.1785 6.53049 20.3792Z" fill="#FFE8DD"></path><path d="M7.89174 43.2635C6.71154 40.431 5.96337 37.4483 5.66809 34.3981C5.61671 33.8672 5.14412 33.4777 4.6137 33.53C4.08277 33.5813 3.69401 34.0534 3.74539 34.5844C4.05934 37.8262 4.85438 40.9962 6.10876 44.0065L12.382 59.0623C12.9365 60.3929 13.2177 61.7985 13.2177 63.2402V65.9529C13.2177 66.4863 13.6501 66.9187 14.1835 66.9187C14.7168 66.9187 15.1492 66.4863 15.1492 65.9529V63.2402C15.1492 61.5422 14.8182 59.8865 14.165 58.3192L7.89174 43.2635Z" fill="#FFE8DD"></path><path d="M51.1184 21.0991C50.95 20.5931 50.403 20.3192 49.8972 20.4877C49.3911 20.6562 49.1173 21.2031 49.2858 21.7091C51.6311 28.7558 51.3502 36.4107 48.4948 43.2635L42.2215 58.3192C41.5684 59.8865 41.2373 61.5422 41.2373 63.2402V65.9529C41.2373 66.4863 41.6697 66.9187 42.2031 66.9187C42.7365 66.9187 43.1689 66.4863 43.1689 65.9529V63.2402C43.1689 61.7985 43.45 60.3929 44.0045 59.0623L50.2778 44.0065C53.3124 36.7234 53.6108 28.5882 51.1184 21.0991Z" fill="#FFE8DD"></path><path d="M41.0379 6.88842C41.2243 8.27221 41.8135 9.55505 42.7415 10.5982L43.0806 10.9794C44.9559 13.0873 46.5321 15.4423 47.7649 17.9791C47.9321 18.3228 48.2762 18.5229 48.6343 18.5229C48.7759 18.5229 48.9198 18.4916 49.0558 18.4256C49.5354 18.1924 49.7353 17.6144 49.5022 17.1347C48.1918 14.4386 46.5168 11.9357 44.5236 9.69554L44.1845 9.31437C43.513 8.55963 43.0869 7.63157 42.9519 6.63061L42.3036 1.81747C42.2323 1.28886 41.7466 0.917739 41.2175 0.989337C40.6889 1.06055 40.3181 1.54679 40.3894 2.07541L41.0379 6.88842Z" fill="#FFE8DD"></path><path d="M19.2051 41.0812C18.3116 41.3147 17.3869 41.433 16.4564 41.433C14.54 41.433 12.6572 40.9264 11.0114 39.9682C10.5504 39.6999 9.95932 39.8559 9.69083 40.3169C9.42246 40.7779 9.57854 41.3691 10.0395 41.6375C11.9802 42.7673 14.1992 43.3646 16.4565 43.3646C17.5518 43.3646 18.6409 43.2251 19.6936 42.95C20.2096 42.8151 20.5187 42.2874 20.3839 41.7713C20.2488 41.2554 19.7216 40.9462 19.2051 41.0812Z" fill="#FFE8DD"></path><path d="M46.4817 41.6375C46.9427 41.3691 47.0988 40.7778 46.8304 40.3169C46.562 39.8559 45.9706 39.7 45.5099 39.9682C43.8642 40.9264 41.9812 41.433 40.0648 41.433C34.0885 41.433 29.2264 36.5709 29.2264 30.5946C29.2264 28.1269 30.0341 25.8026 31.5622 23.8725C31.8933 23.4543 31.8226 22.8468 31.4045 22.5158C30.9864 22.1847 30.3791 22.2553 30.0477 22.6735C29.304 23.6129 28.7076 24.6324 28.2606 25.7093C27.8137 24.6324 27.2173 23.6128 26.4735 22.6734C26.1425 22.2553 25.5349 22.1847 25.1168 22.5156C24.6985 22.8467 24.628 23.4543 24.959 23.8724C26.4872 25.8024 27.2948 28.1269 27.2948 30.5945C27.2948 34.1227 25.5677 37.4414 22.6751 39.4718C22.2384 39.7781 22.133 40.3805 22.4395 40.8171C22.6273 41.0849 22.9267 41.2281 23.2308 41.2281C23.4224 41.2281 23.6161 41.1712 23.7847 41.0527C25.8052 39.6346 27.3427 37.6826 28.2597 35.4619C30.1774 40.0956 34.7463 43.3643 40.0648 43.3643C42.3222 43.3647 44.5413 42.7675 46.4817 41.6375Z" fill="#FFE8DD"></path><path d="M28.2606 41.0377C27.7273 41.0377 27.2948 41.4701 27.2948 42.0035V65.9529C27.2948 66.4863 27.7273 66.9187 28.2606 66.9187C28.794 66.9187 29.2264 66.4863 29.2264 65.9529V42.0035C29.2264 41.4701 28.794 41.0377 28.2606 41.0377Z" fill="#FFE8DD"></path><path d="M4.83674 31.599H4.84472C5.42201 31.599 5.93414 31.2533 6.15073 30.7164C6.68759 29.3861 7.57818 28.4964 8.87338 27.9963C9.40959 27.7895 9.76384 27.286 9.77607 26.7138C9.78831 26.1434 9.45697 25.627 8.93223 25.3983C7.59801 24.8168 6.69132 23.94 6.16039 22.7182C5.93453 22.1982 5.42497 21.864 4.85309 21.8769C4.28559 21.8858 3.78389 22.2313 3.57476 22.7572C3.09959 23.9524 2.21209 24.8111 0.86165 25.3829C0.326857 25.6093 -0.0113008 26.13 0.000288732 26.7096C0.0116207 27.2835 0.366004 27.7852 0.903244 27.9878C2.14745 28.4573 3.01087 29.3476 3.54283 30.7093C3.7526 31.2466 4.26048 31.5958 4.83674 31.599ZM2.60227 26.6659C3.57567 26.0902 4.3407 25.3453 4.88992 24.4386C5.46038 25.344 6.228 26.0893 7.18517 26.6669C6.21409 27.2272 5.43502 28.0017 4.85631 28.9824C4.29229 27.9926 3.53845 27.2178 2.60227 26.6659Z" fill="#FFE8DD"></path><path d="M42.4299 49.606C42.4415 49.0673 42.1288 48.5799 41.6334 48.3639C40.5806 47.9051 39.8658 47.2149 39.4483 46.2541C39.2349 45.7633 38.7523 45.4499 38.2137 45.4597C37.6779 45.4681 37.204 45.7945 37.0065 46.2913C36.6346 47.2269 35.9369 47.9004 34.8736 48.3506C34.3692 48.5641 34.0501 49.0555 34.0611 49.6024C34.0718 50.1444 34.4067 50.6185 34.9141 50.8099C35.8867 51.1769 36.5624 51.8749 36.98 52.9441C37.1781 53.4515 37.658 53.7813 38.2023 53.7844H38.2099C38.7547 53.7844 39.2379 53.4582 39.4424 52.9516C39.864 51.9067 40.5627 51.2083 41.5783 50.8163C42.0841 50.6212 42.4184 50.146 42.4299 49.606ZM38.2219 51.1318C37.8151 50.4914 37.3059 49.9676 36.6973 49.5633C37.3291 49.1506 37.8476 48.646 38.2494 48.0526C38.662 48.6439 39.1806 49.1477 39.8022 49.561C39.1691 49.9699 38.6413 50.4946 38.2219 51.1318Z" fill="#FFE8DD"></path></svg>