<svg xmlns="http://www.w3.org/2000/svg" width="313" height="67" viewBox="0 0 313 67" fill="none"><path d="M112.268 28H109.899L100.373 13.5543V28H98.0042V9.83229H100.373L109.899 24.2519V9.83229H112.268V28ZM115.42 20.8162C115.42 19.3586 115.715 18.0832 116.305 16.9901C116.895 15.8795 117.702 15.0206 118.726 14.4133C119.767 13.8059 120.921 13.5023 122.188 13.5023C123.437 13.5023 124.522 13.7712 125.441 14.3091C126.361 14.8471 127.046 15.5238 127.497 16.3393V13.7365H129.892V28H127.497V25.3451C127.029 26.178 126.326 26.8721 125.389 27.4274C124.469 27.9653 123.394 28.2343 122.162 28.2343C120.895 28.2343 119.75 27.9219 118.726 27.2972C117.702 26.6726 116.895 25.7963 116.305 24.6684C115.715 23.5405 115.42 22.2564 115.42 20.8162ZM127.497 20.8422C127.497 19.7664 127.281 18.8294 126.847 18.0312C126.413 17.233 125.823 16.6257 125.077 16.2092C124.348 15.7754 123.541 15.5585 122.656 15.5585C121.771 15.5585 120.964 15.7667 120.236 16.1832C119.507 16.5996 118.925 17.207 118.492 18.0052C118.058 18.8034 117.841 19.7404 117.841 20.8162C117.841 21.9094 118.058 22.8638 118.492 23.6793C118.925 24.4775 119.507 25.0935 120.236 25.5273C120.964 25.9438 121.771 26.152 122.656 26.152C123.541 26.152 124.348 25.9438 125.077 25.5273C125.823 25.0935 126.413 24.4775 126.847 23.6793C127.281 22.8638 127.497 21.9181 127.497 20.8422ZM119.299 12.2009C119.42 11.3159 119.706 10.6392 120.157 10.1707C120.626 9.70214 121.207 9.46789 121.901 9.46789C122.231 9.46789 122.509 9.52862 122.734 9.65009C122.977 9.7542 123.264 9.91037 123.593 10.1186C123.836 10.2921 124.053 10.4309 124.244 10.535C124.435 10.6218 124.643 10.6652 124.869 10.6652C125.164 10.6652 125.415 10.5698 125.623 10.3789C125.832 10.188 125.962 9.91037 126.014 9.54597H127.367C127.263 10.4136 126.977 11.0816 126.508 11.5501C126.04 12.0187 125.459 12.2529 124.764 12.2529C124.435 12.2529 124.14 12.2009 123.88 12.0967C123.637 11.9753 123.359 11.8018 123.047 11.5762C122.769 11.4027 122.543 11.2725 122.37 11.1858C122.214 11.099 122.023 11.0556 121.797 11.0556C121.502 11.0556 121.251 11.151 121.042 11.3419C120.852 11.5328 120.73 11.8191 120.678 12.2009H119.299ZM140.115 28.2343C138.779 28.2343 137.565 27.9306 136.471 27.3233C135.396 26.7159 134.545 25.857 133.921 24.7465C133.313 23.6186 133.01 22.3172 133.01 20.8422C133.01 19.3847 133.322 18.1006 133.947 16.9901C134.589 15.8622 135.456 15.0032 136.55 14.4133C137.643 13.8059 138.866 13.5023 140.22 13.5023C141.573 13.5023 142.796 13.8059 143.89 14.4133C144.983 15.0032 145.842 15.8535 146.466 16.964C147.108 18.0746 147.429 19.3673 147.429 20.8422C147.429 22.3172 147.1 23.6186 146.44 24.7465C145.798 25.857 144.922 26.7159 143.811 27.3233C142.701 27.9306 141.469 28.2343 140.115 28.2343ZM140.115 26.152C140.966 26.152 141.764 25.9524 142.51 25.5533C143.256 25.1542 143.855 24.5556 144.306 23.7574C144.774 22.9592 145.009 21.9875 145.009 20.8422C145.009 19.697 144.783 18.7253 144.332 17.9271C143.881 17.1289 143.291 16.5389 142.562 16.1571C141.833 15.758 141.044 15.5585 140.194 15.5585C139.326 15.5585 138.528 15.758 137.799 16.1571C137.087 16.5389 136.515 17.1289 136.081 17.9271C135.647 18.7253 135.43 19.697 135.43 20.8422C135.43 22.0048 135.639 22.9852 136.055 23.7834C136.489 24.5816 137.061 25.1803 137.773 25.5794C138.484 25.9611 139.265 26.152 140.115 26.152ZM160.372 15.6886V24.0958C160.372 24.7898 160.519 25.2844 160.814 25.5794C161.109 25.857 161.621 25.9958 162.35 25.9958H164.094V28H161.96C160.641 28 159.652 27.6963 158.992 27.089C158.333 26.4817 158.003 25.4839 158.003 24.0958V15.6886H156.155V13.7365H158.003V10.1446H160.372V13.7365H164.094V15.6886H160.372ZM179.978 20.3217C179.978 20.7728 179.952 21.25 179.9 21.7532H168.499C168.586 23.1587 169.063 24.2606 169.931 25.0588C170.816 25.8397 171.883 26.2301 173.132 26.2301C174.156 26.2301 175.006 25.9958 175.683 25.5273C176.377 25.0415 176.863 24.3994 177.141 23.6012H179.692C179.31 24.972 178.546 26.0913 177.401 26.9589C176.256 27.8091 174.833 28.2343 173.132 28.2343C171.779 28.2343 170.564 27.9306 169.489 27.3233C168.43 26.7159 167.597 25.857 166.99 24.7465C166.382 23.6186 166.079 22.3172 166.079 20.8422C166.079 19.3673 166.374 18.0746 166.964 16.964C167.554 15.8535 168.378 15.0032 169.436 14.4133C170.512 13.8059 171.744 13.5023 173.132 13.5023C174.486 13.5023 175.683 13.7973 176.724 14.3872C177.765 14.9772 178.564 15.7928 179.119 16.8339C179.692 17.8577 179.978 19.0203 179.978 20.3217ZM177.531 19.8271C177.531 18.9248 177.332 18.1526 176.933 17.5106C176.533 16.8512 175.987 16.3567 175.293 16.027C174.616 15.68 173.861 15.5064 173.028 15.5064C171.831 15.5064 170.807 15.8882 169.957 16.6517C169.124 17.4152 168.647 18.4737 168.525 19.8271H177.531ZM188.154 28.2343C187.061 28.2343 186.08 28.0521 185.213 27.6877C184.345 27.3059 183.66 26.7853 183.156 26.126C182.653 25.4492 182.376 24.6771 182.323 23.8095H184.77C184.84 24.5209 185.169 25.1022 185.759 25.5533C186.367 26.0045 187.156 26.2301 188.128 26.2301C189.03 26.2301 189.742 26.0305 190.262 25.6314C190.783 25.2323 191.043 24.7291 191.043 24.1218C191.043 23.4971 190.765 23.0373 190.21 22.7423C189.655 22.43 188.796 22.1263 187.633 21.8313C186.575 21.5537 185.707 21.276 185.03 20.9984C184.371 20.7034 183.798 20.2783 183.313 19.723C182.844 19.1504 182.61 18.4043 182.61 17.4846C182.61 16.7558 182.827 16.0877 183.261 15.4804C183.694 14.8731 184.31 14.3959 185.109 14.0489C185.907 13.6845 186.818 13.5023 187.841 13.5023C189.421 13.5023 190.696 13.9014 191.668 14.6996C192.639 15.4978 193.16 16.591 193.229 17.9791H190.861C190.809 17.233 190.505 16.6343 189.95 16.1832C189.412 15.732 188.683 15.5064 187.763 15.5064C186.913 15.5064 186.236 15.6886 185.733 16.053C185.23 16.4174 184.978 16.8946 184.978 17.4846C184.978 17.9531 185.126 18.3435 185.421 18.6559C185.733 18.9508 186.115 19.1938 186.566 19.3847C187.035 19.5582 187.677 19.7577 188.492 19.9833C189.516 20.2609 190.349 20.5386 190.991 20.8162C191.633 21.0765 192.18 21.4756 192.631 22.0135C193.099 22.5514 193.342 23.2542 193.359 24.1218C193.359 24.9026 193.143 25.6054 192.709 26.2301C192.275 26.8548 191.659 27.3493 190.861 27.7137C190.08 28.0607 189.178 28.2343 188.154 28.2343ZM199.592 15.6886V24.0958C199.592 24.7898 199.74 25.2844 200.035 25.5794C200.33 25.857 200.842 25.9958 201.57 25.9958H203.314V28H201.18C199.861 28 198.872 27.6963 198.213 27.089C197.553 26.4817 197.224 25.4839 197.224 24.0958V15.6886H195.376V13.7365H197.224V10.1446H199.592V13.7365H203.314V15.6886H199.592ZM205.299 20.8162C205.299 19.3586 205.594 18.0832 206.184 16.9901C206.774 15.8795 207.581 15.0206 208.605 14.4133C209.646 13.8059 210.8 13.5023 212.066 13.5023C213.316 13.5023 214.4 13.7712 215.32 14.3091C216.24 14.8471 216.925 15.5238 217.376 16.3393V13.7365H219.771V28H217.376V25.3451C216.908 26.178 216.205 26.8721 215.268 27.4274C214.348 27.9653 213.272 28.2343 212.04 28.2343C210.774 28.2343 209.628 27.9219 208.605 27.2972C207.581 26.6726 206.774 25.7963 206.184 24.6684C205.594 23.5405 205.299 22.2564 205.299 20.8162ZM217.376 20.8422C217.376 19.7664 217.159 18.8294 216.726 18.0312C216.292 17.233 215.702 16.6257 214.956 16.2092C214.227 15.7754 213.42 15.5585 212.535 15.5585C211.65 15.5585 210.843 15.7667 210.114 16.1832C209.386 16.5996 208.804 17.207 208.37 18.0052C207.937 18.8034 207.72 19.7404 207.72 20.8162C207.72 21.9094 207.937 22.8638 208.37 23.6793C208.804 24.4775 209.386 25.0935 210.114 25.5273C210.843 25.9438 211.65 26.152 212.535 26.152C213.42 26.152 214.227 25.9438 214.956 25.5273C215.702 25.0935 216.292 24.4775 216.726 23.6793C217.159 22.8638 217.376 21.9181 217.376 20.8422ZM240.926 13.4762C242.037 13.4762 243.026 13.7105 243.893 14.179C244.761 14.6302 245.446 15.3156 245.95 16.2352C246.453 17.1549 246.704 18.2741 246.704 19.5929V28H244.362V19.9312C244.362 18.5084 244.006 17.4239 243.295 16.6777C242.601 15.9142 241.655 15.5325 240.458 15.5325C239.226 15.5325 238.245 15.9316 237.516 16.7298C236.788 17.5106 236.423 18.6472 236.423 20.1395V28H234.081V19.9312C234.081 18.5084 233.725 17.4239 233.013 16.6777C232.319 15.9142 231.374 15.5325 230.176 15.5325C228.944 15.5325 227.964 15.9316 227.235 16.7298C226.506 17.5106 226.142 18.6472 226.142 20.1395V28H223.773V13.7365H226.142V15.7928C226.611 15.0466 227.235 14.474 228.016 14.0749C228.814 13.6758 229.691 13.4762 230.645 13.4762C231.842 13.4762 232.901 13.7452 233.82 14.2831C234.74 14.821 235.425 15.6106 235.877 16.6517C236.276 15.6453 236.935 14.8644 237.855 14.3091C238.774 13.7539 239.798 13.4762 240.926 13.4762ZM256.81 28.2343C255.474 28.2343 254.26 27.9306 253.166 27.3233C252.091 26.7159 251.24 25.857 250.616 24.7465C250.008 23.6186 249.705 22.3172 249.705 20.8422C249.705 19.3847 250.017 18.1006 250.642 16.9901C251.284 15.8622 252.151 15.0032 253.245 14.4133C254.338 13.8059 255.561 13.5023 256.915 13.5023C258.268 13.5023 259.491 13.8059 260.585 14.4133C261.678 15.0032 262.537 15.8535 263.161 16.964C263.803 18.0746 264.124 19.3673 264.124 20.8422C264.124 22.3172 263.795 23.6186 263.135 24.7465C262.493 25.857 261.617 26.7159 260.506 27.3233C259.396 27.9306 258.164 28.2343 256.81 28.2343ZM256.81 26.152C257.661 26.152 258.459 25.9524 259.205 25.5533C259.951 25.1542 260.55 24.5556 261.001 23.7574C261.469 22.9592 261.704 21.9875 261.704 20.8422C261.704 19.697 261.478 18.7253 261.027 17.9271C260.576 17.1289 259.986 16.5389 259.257 16.1571C258.528 15.758 257.739 15.5585 256.889 15.5585C256.021 15.5585 255.223 15.758 254.494 16.1571C253.782 16.5389 253.21 17.1289 252.776 17.9271C252.342 18.7253 252.125 19.697 252.125 20.8422C252.125 22.0048 252.334 22.9852 252.75 23.7834C253.184 24.5816 253.756 25.1803 254.468 25.5794C255.179 25.9611 255.96 26.152 256.81 26.152ZM272.288 28.2343C271.195 28.2343 270.214 28.0521 269.347 27.6877C268.479 27.3059 267.794 26.7853 267.291 26.126C266.787 25.4492 266.51 24.6771 266.458 23.8095H268.904C268.974 24.5209 269.304 25.1022 269.893 25.5533C270.501 26.0045 271.29 26.2301 272.262 26.2301C273.164 26.2301 273.876 26.0305 274.396 25.6314C274.917 25.2323 275.177 24.7291 275.177 24.1218C275.177 23.4971 274.9 23.0373 274.344 22.7423C273.789 22.43 272.93 22.1263 271.768 21.8313C270.709 21.5537 269.841 21.276 269.165 20.9984C268.505 20.7034 267.933 20.2783 267.447 19.723C266.978 19.1504 266.744 18.4043 266.744 17.4846C266.744 16.7558 266.961 16.0877 267.395 15.4804C267.829 14.8731 268.445 14.3959 269.243 14.0489C270.041 13.6845 270.952 13.5023 271.976 13.5023C273.555 13.5023 274.83 13.9014 275.802 14.6996C276.774 15.4978 277.294 16.591 277.364 17.9791H274.995C274.943 17.233 274.639 16.6343 274.084 16.1832C273.546 15.732 272.817 15.5064 271.898 15.5064C271.047 15.5064 270.371 15.6886 269.867 16.053C269.364 16.4174 269.113 16.8946 269.113 17.4846C269.113 17.9531 269.26 18.3435 269.555 18.6559C269.867 18.9508 270.249 19.1938 270.7 19.3847C271.169 19.5582 271.811 19.7577 272.626 19.9833C273.65 20.2609 274.483 20.5386 275.125 20.8162C275.767 21.0765 276.314 21.4756 276.765 22.0135C277.233 22.5514 277.476 23.2542 277.494 24.1218C277.494 24.9026 277.277 25.6054 276.843 26.2301C276.409 26.8548 275.793 27.3493 274.995 27.7137C274.214 28.0607 273.312 28.2343 272.288 28.2343ZM111.018 50.3217C111.018 50.7728 110.992 51.25 110.94 51.7532H99.5398C99.6266 53.1587 100.104 54.2606 100.971 55.0588C101.856 55.8397 102.924 56.2301 104.173 56.2301C105.197 56.2301 106.047 55.9958 106.724 55.5273C107.418 55.0415 107.904 54.3994 108.181 53.6012H110.732C110.35 54.972 109.587 56.0913 108.442 56.9589C107.296 57.8091 105.873 58.2343 104.173 58.2343C102.819 58.2343 101.605 57.9306 100.529 57.3233C99.4704 56.7159 98.6375 55.857 98.0302 54.7465C97.4229 53.6186 97.1192 52.3172 97.1192 50.8422C97.1192 49.3673 97.4142 48.0746 98.0042 46.964C98.5941 45.8535 99.4184 45.0032 100.477 44.4133C101.553 43.8059 102.785 43.5023 104.173 43.5023C105.526 43.5023 106.724 43.7973 107.765 44.3872C108.806 44.9772 109.604 45.7928 110.159 46.8339C110.732 47.8577 111.018 49.0203 111.018 50.3217ZM108.572 49.8271C108.572 48.9248 108.372 48.1526 107.973 47.5106C107.574 46.8512 107.027 46.3567 106.333 46.027C105.656 45.68 104.902 45.5064 104.069 45.5064C102.871 45.5064 101.848 45.8882 100.997 46.6517C100.165 47.4152 99.6873 48.4737 99.5659 49.8271H108.572ZM131.297 43.4762C132.408 43.4762 133.397 43.7105 134.265 44.179C135.132 44.6302 135.818 45.3156 136.321 46.2352C136.824 47.1549 137.076 48.2741 137.076 49.5929V58H134.733V49.9312C134.733 48.5084 134.377 47.4239 133.666 46.6777C132.972 45.9142 132.026 45.5325 130.829 45.5325C129.597 45.5325 128.616 45.9316 127.888 46.7298C127.159 47.5106 126.794 48.6472 126.794 50.1395V58H124.452V49.9312C124.452 48.5084 124.096 47.4239 123.385 46.6777C122.691 45.9142 121.745 45.5325 120.548 45.5325C119.316 45.5325 118.335 45.9316 117.606 46.7298C116.878 47.5106 116.513 48.6472 116.513 50.1395V58H114.145V43.7365H116.513V45.7928C116.982 45.0466 117.606 44.474 118.387 44.0749C119.186 43.6758 120.062 43.4762 121.016 43.4762C122.213 43.4762 123.272 43.7452 124.192 44.2831C125.111 44.821 125.797 45.6106 126.248 46.6517C126.647 45.6453 127.306 44.8644 128.226 44.3091C129.146 43.7539 130.169 43.4762 131.297 43.4762ZM147.015 50.8162C147.015 49.3586 147.31 48.0832 147.9 46.9901C148.49 45.8795 149.297 45.0206 150.321 44.4133C151.362 43.8059 152.516 43.5023 153.782 43.5023C155.032 43.5023 156.116 43.7712 157.036 44.3091C157.956 44.8471 158.641 45.5238 159.092 46.3393V43.7365H161.487V58H159.092V55.3451C158.624 56.178 157.921 56.8721 156.984 57.4274C156.064 57.9653 154.988 58.2343 153.756 58.2343C152.49 58.2343 151.345 57.9219 150.321 57.2972C149.297 56.6726 148.49 55.7963 147.9 54.6684C147.31 53.5405 147.015 52.2564 147.015 50.8162ZM159.092 50.8422C159.092 49.7664 158.875 48.8294 158.442 48.0312C158.008 47.233 157.418 46.6257 156.672 46.2092C155.943 45.7754 155.136 45.5585 154.251 45.5585C153.366 45.5585 152.559 45.7667 151.83 46.1832C151.102 46.5996 150.52 47.207 150.086 48.0052C149.653 48.8034 149.436 49.7404 149.436 50.8162C149.436 51.9094 149.653 52.8638 150.086 53.6793C150.52 54.4775 151.102 55.0935 151.83 55.5273C152.559 55.9438 153.366 56.152 154.251 56.152C155.136 56.152 155.943 55.9438 156.672 55.5273C157.418 55.0935 158.008 54.4775 158.442 53.6793C158.875 52.8638 159.092 51.9181 159.092 50.8422ZM172.439 43.4762C174.174 43.4762 175.58 44.0055 176.656 45.064C177.731 46.1051 178.269 47.6147 178.269 49.5929V58H175.927V49.9312C175.927 48.5084 175.571 47.4239 174.86 46.6777C174.148 45.9142 173.177 45.5325 171.945 45.5325C170.695 45.5325 169.697 45.9229 168.951 46.7037C168.222 47.4846 167.858 48.6212 167.858 50.1134V58H165.49V43.7365H167.858V45.7667C168.327 45.0379 168.96 44.474 169.758 44.0749C170.574 43.6758 171.467 43.4762 172.439 43.4762ZM183.362 41.42C182.911 41.42 182.529 41.2638 182.217 40.9515C181.904 40.6392 181.748 40.2574 181.748 39.8063C181.748 39.3551 181.904 38.9734 182.217 38.661C182.529 38.3487 182.911 38.1925 183.362 38.1925C183.796 38.1925 184.16 38.3487 184.455 38.661C184.767 38.9734 184.923 39.3551 184.923 39.8063C184.923 40.2574 184.767 40.6392 184.455 40.9515C184.16 41.2638 183.796 41.42 183.362 41.42ZM184.507 43.7365V58H182.138V43.7365H184.507ZM205.696 43.4762C206.807 43.4762 207.796 43.7105 208.664 44.179C209.531 44.6302 210.217 45.3156 210.72 46.2352C211.223 47.1549 211.475 48.2741 211.475 49.5929V58H209.132V49.9312C209.132 48.5084 208.776 47.4239 208.065 46.6777C207.371 45.9142 206.425 45.5325 205.228 45.5325C203.996 45.5325 203.016 45.9316 202.287 46.7298C201.558 47.5106 201.194 48.6472 201.194 50.1395V58H198.851V49.9312C198.851 48.5084 198.495 47.4239 197.784 46.6777C197.09 45.9142 196.144 45.5325 194.947 45.5325C193.715 45.5325 192.734 45.9316 192.006 46.7298C191.277 47.5106 190.912 48.6472 190.912 50.1395V58H188.544V43.7365H190.912V45.7928C191.381 45.0466 192.006 44.474 192.786 44.0749C193.585 43.6758 194.461 43.4762 195.415 43.4762C196.613 43.4762 197.671 43.7452 198.591 44.2831C199.51 44.821 200.196 45.6106 200.647 46.6517C201.046 45.6453 201.705 44.8644 202.625 44.3091C203.545 43.7539 204.569 43.4762 205.696 43.4762ZM214.475 50.8162C214.475 49.3586 214.77 48.0832 215.36 46.9901C215.95 45.8795 216.757 45.0206 217.781 44.4133C218.822 43.8059 219.976 43.5023 221.242 43.5023C222.492 43.5023 223.576 43.7712 224.496 44.3091C225.416 44.8471 226.101 45.5238 226.552 46.3393V43.7365H228.947V58H226.552V55.3451C226.084 56.178 225.381 56.8721 224.444 57.4274C223.524 57.9653 222.448 58.2343 221.216 58.2343C219.95 58.2343 218.804 57.9219 217.781 57.2972C216.757 56.6726 215.95 55.7963 215.36 54.6684C214.77 53.5405 214.475 52.2564 214.475 50.8162ZM226.552 50.8422C226.552 49.7664 226.335 48.8294 225.901 48.0312C225.468 47.233 224.878 46.6257 224.132 46.2092C223.403 45.7754 222.596 45.5585 221.711 45.5585C220.826 45.5585 220.019 45.7667 219.29 46.1832C218.562 46.5996 217.98 47.207 217.546 48.0052C217.113 48.8034 216.896 49.7404 216.896 50.8162C216.896 51.9094 217.113 52.8638 217.546 53.6793C217.98 54.4775 218.562 55.0935 219.29 55.5273C220.019 55.9438 220.826 56.152 221.711 56.152C222.596 56.152 223.403 55.9438 224.132 55.5273C224.878 55.0935 225.468 54.4775 225.901 53.6793C226.335 52.8638 226.552 51.9181 226.552 50.8422ZM234.173 41.42C233.722 41.42 233.34 41.2638 233.028 40.9515C232.715 40.6392 232.559 40.2574 232.559 39.8063C232.559 39.3551 232.715 38.9734 233.028 38.661C233.34 38.3487 233.722 38.1925 234.173 38.1925C234.607 38.1925 234.971 38.3487 235.266 38.661C235.578 38.9734 235.734 39.3551 235.734 39.8063C235.734 40.2574 235.578 40.6392 235.266 40.9515C234.971 41.2638 234.607 41.42 234.173 41.42ZM235.318 43.7365V58H232.949V43.7365H235.318ZM244.404 58.2343C243.311 58.2343 242.331 58.0521 241.463 57.6877C240.596 57.3059 239.91 56.7853 239.407 56.126C238.904 55.4492 238.626 54.6771 238.574 53.8095H241.021C241.09 54.5209 241.42 55.1022 242.01 55.5533C242.617 56.0045 243.407 56.2301 244.378 56.2301C245.281 56.2301 245.992 56.0305 246.513 55.6314C247.033 55.2323 247.293 54.7291 247.293 54.1218C247.293 53.4971 247.016 53.0373 246.461 52.7423C245.905 52.43 245.046 52.1263 243.884 51.8313C242.825 51.5537 241.958 51.276 241.281 50.9984C240.622 50.7034 240.049 50.2783 239.563 49.723C239.095 49.1504 238.86 48.4043 238.86 47.4846C238.86 46.7558 239.077 46.0877 239.511 45.4804C239.945 44.8731 240.561 44.3959 241.359 44.0489C242.157 43.6845 243.068 43.5023 244.092 43.5023C245.671 43.5023 246.946 43.9014 247.918 44.6996C248.89 45.4978 249.41 46.591 249.48 47.9791H247.111C247.059 47.233 246.756 46.6343 246.2 46.1832C245.662 45.732 244.934 45.5064 244.014 45.5064C243.164 45.5064 242.487 45.6886 241.984 46.053C241.48 46.4174 241.229 46.8946 241.229 47.4846C241.229 47.9531 241.376 48.3435 241.671 48.6559C241.984 48.9508 242.365 49.1938 242.817 49.3847C243.285 49.5582 243.927 49.7577 244.743 49.9833C245.766 50.2609 246.599 50.5386 247.241 50.8162C247.883 51.0765 248.43 51.4756 248.881 52.0135C249.35 52.5514 249.593 53.2542 249.61 54.1218C249.61 54.9026 249.393 55.6054 248.959 56.2301C248.525 56.8548 247.909 57.3493 247.111 57.7137C246.33 58.0607 245.428 58.2343 244.404 58.2343Z" fill="#FFE8DD"></path><path d="M72.5886 19.3343C71.7017 13.7752 68.7704 8.85477 64.3348 5.47951C60.2535 2.37402 55.2041 0.783303 50.1135 1.00028C45.056 1.21599 40.3549 3.15936 36.4382 6.63838C33.0181 3.60631 28.9497 1.71969 24.5947 1.1591C20.1166 0.582134 15.6143 1.40912 11.5733 3.54885C10.8798 3.91618 10.6177 4.77125 10.9881 5.45904C11.3585 6.14668 12.2205 6.40672 12.9143 6.03939C20.4184 2.06613 29.2569 3.45582 35.4322 9.57955C35.9883 10.1307 36.8894 10.1307 37.4456 9.57955C45.679 1.4149 56.2576 2.89184 62.6017 7.71961C69.1772 12.723 73.886 23.6669 65.5162 38.0429C62.1542 43.8178 56.9005 49.8859 50.723 55.1295C45.4869 59.574 40.0658 62.9498 36.439 64.0389C32.8121 62.9496 27.3911 59.574 22.1551 55.1295C15.9775 49.8858 10.7239 43.8177 7.36168 38.0429C2.42941 29.571 1.50779 21.1936 4.76664 14.4536C5.10673 13.7507 4.8075 12.9075 4.09855 12.5704C3.38976 12.2333 2.53945 12.5297 2.1995 13.2329C-1.47817 20.8385 -0.520384 30.151 4.89604 39.4545C8.41541 45.4993 13.8872 51.8279 20.3036 57.2744C26.1095 62.2026 32.0037 65.7899 36.0705 66.8705C36.1912 66.9027 36.3151 66.9187 36.439 66.9187C36.5628 66.9187 36.6867 66.9027 36.8074 66.8705C40.8742 65.79 46.7686 62.2027 52.5743 57.2744C58.9907 51.828 64.4626 45.4995 67.9819 39.4545C71.9956 32.56 73.5886 25.6025 72.5886 19.3343Z" fill="#FFE8DD"></path><path d="M28.9696 32.861C28.152 34.6087 27.5564 35.2891 26.0729 36.1709C23.6033 37.6388 22.0692 40.3226 22.0692 43.1748C22.0692 47.675 25.7613 51.3362 30.2992 51.3362C32.109 51.3362 33.4732 50.6741 34.5694 50.142C35.2917 49.7913 35.9155 49.4885 36.4384 49.4885C36.9614 49.4885 37.5852 49.7915 38.3077 50.142C39.4038 50.6741 40.7679 51.3362 42.5776 51.3362C47.1156 51.3362 50.8075 47.6749 50.8075 43.1748C50.8075 40.3224 49.2735 37.6386 46.8039 36.1709C45.3204 35.2891 44.7249 34.6087 43.9073 32.861C42.563 29.9878 39.6312 28.1314 36.4382 28.1314C33.2453 28.1314 30.314 29.988 28.9696 32.861ZM41.3248 34.0492C42.3825 36.3106 43.3582 37.4146 45.3403 38.5927C46.981 39.5679 47.9605 41.2808 47.9605 43.1749C47.9605 46.1184 45.5457 48.5129 42.5777 48.5129C41.4276 48.5129 40.5201 48.0724 39.5594 47.6062C38.6065 47.1437 37.6209 46.6653 36.4385 46.6653C35.2562 46.6653 34.2707 47.1435 33.3178 47.6062C32.3571 48.0724 31.4496 48.5129 30.2993 48.5129C27.3312 48.5129 24.9165 46.1182 24.9165 43.1749C24.9165 41.281 25.8961 39.5679 27.5368 38.5927C29.5187 37.4147 30.4944 36.3108 31.5524 34.0493C32.432 32.1696 34.3499 30.9549 36.4385 30.9549C38.5273 30.9549 40.4453 32.1696 41.3248 34.0492Z" fill="#FFE8DD"></path><path d="M32.6162 15.1629C31.4018 14.0438 29.8714 13.5493 28.4171 13.8075C25.5292 14.3194 23.7006 17.6269 24.3411 21.1804C24.6384 22.8303 25.4198 24.3081 26.5411 25.3416C27.5443 26.2661 28.7629 26.7639 29.9763 26.7639C30.2317 26.7639 30.4873 26.7419 30.7401 26.6969C32.1944 26.4392 33.4576 25.45 34.2058 23.983C34.8968 22.6283 35.1136 20.9738 34.8162 19.3238C34.519 17.6742 33.7376 16.1964 32.6162 15.1629ZM31.6651 22.7088C31.465 23.1012 31.0134 23.7804 30.2391 23.9175C29.4654 24.0541 28.8043 23.5727 28.4793 23.2733C27.8172 22.6632 27.3305 21.7192 27.1437 20.6838C26.7857 18.697 27.5981 16.8208 28.9181 16.5869C29.011 16.5705 29.1024 16.5629 29.1918 16.5629C29.8462 16.5629 30.392 16.9676 30.6779 17.231C31.34 17.8413 31.8267 18.7852 32.0135 19.8205C32.2001 20.8562 32.0731 21.9087 31.6651 22.7088Z" fill="#FFE8DD"></path><path d="M21.4642 24.581C20.0719 23.8554 18.5447 23.781 17.2743 24.3767C14.7587 25.5568 13.9084 29.0253 15.3791 32.1088C16.0602 33.5367 17.1397 34.6903 18.4189 35.3569C19.1885 35.7579 19.9992 35.9599 20.7849 35.9599C21.4208 35.9599 22.0405 35.8275 22.6086 35.561C23.879 34.9653 24.7897 33.7472 25.1074 32.2195C25.3993 30.8162 25.1849 29.257 24.5038 27.829C23.8228 26.4011 22.7433 25.2477 21.4642 24.581ZM22.3189 31.6493C22.2393 32.0317 22.0133 32.7168 21.3912 33.0085C20.7694 33.3006 20.0919 33.039 19.7434 32.8573C19.0181 32.4794 18.3656 31.7665 17.9531 30.9015C17.1671 29.2537 17.4138 27.4345 18.4918 26.9289C19.1133 26.6371 19.7911 26.8984 20.1397 27.0803C20.8649 27.4582 21.5174 28.171 21.9299 29.0361C22.3425 29.9012 22.4843 30.8536 22.3189 31.6493Z" fill="#FFE8DD"></path><path d="M44.4602 13.8075C41.5704 13.2955 38.7014 15.7702 38.061 19.3239C37.7636 20.9738 37.9805 22.6283 38.6714 23.9831C39.4198 25.45 40.6829 26.4391 42.1371 26.6969C42.3901 26.7417 42.6455 26.7639 42.901 26.7639C44.1143 26.7639 45.3332 26.266 46.3362 25.3416C47.4576 24.3082 48.239 22.8303 48.5362 21.1804C49.1767 17.6269 47.3481 14.3194 44.4602 13.8075ZM45.7335 20.6838C45.5467 21.7192 45.0601 22.6632 44.3979 23.2733C44.0729 23.5727 43.4121 24.0544 42.6379 23.9175C41.8638 23.7803 41.4124 23.1012 41.2119 22.7086C40.8041 21.9087 40.6769 20.8562 40.8636 19.8207C41.1968 17.9726 42.4462 16.5626 43.6813 16.5626C43.7741 16.5626 43.867 16.5706 43.9591 16.5869C45.2791 16.8208 46.0915 18.697 45.7335 20.6838Z" fill="#FFE8DD"></path><path d="M50.2684 35.5609C50.8367 35.8274 51.4563 35.9598 52.0923 35.9598C52.878 35.9598 53.6889 35.7575 54.4583 35.3567C55.7374 34.6901 56.8169 33.5366 57.4981 32.1087C58.9686 29.0252 58.1185 25.5566 55.603 24.3766C53.0878 23.1971 49.8442 24.7453 48.3734 27.8289C46.9028 30.9125 47.753 34.3811 50.2684 35.5609ZM50.9472 29.0361C51.5911 27.686 52.7645 26.7943 53.7605 26.7943C53.98 26.7943 54.191 26.8377 54.3856 26.9289C55.4633 27.4345 55.7102 29.2537 54.9242 30.9015C54.5117 31.7665 53.8593 32.4794 53.1339 32.8573C52.7855 33.039 52.1077 33.3004 51.4859 33.0085C50.4081 32.5031 50.1614 30.6838 50.9472 29.0361Z" fill="#FFE8DD"></path><path d="M7.13049 10.0323C7.91659 10.0323 8.55407 9.40012 8.55407 8.62057C8.55407 7.84102 7.91659 7.20886 7.13049 7.20886H7.12935C6.34325 7.20886 5.70634 7.84102 5.70634 8.62057C5.70634 9.40012 6.34439 10.0323 7.13049 10.0323Z" fill="#FFE8DD"></path></svg>