<svg xmlns="http://www.w3.org/2000/svg" width="223" height="66" viewBox="0 0 223 66" fill="none"><path d="M104.17 6.85831V8.7844H99.2249V25H96.8564V8.7844H91.885V6.85831H104.17ZM120.1 17.3217C120.1 17.7728 120.074 18.25 120.022 18.7532H108.622C108.708 20.1587 109.185 21.2606 110.053 22.0588C110.938 22.8397 112.005 23.2301 113.255 23.2301C114.278 23.2301 115.129 22.9958 115.805 22.5273C116.499 22.0415 116.985 21.3994 117.263 20.6012H119.814C119.432 21.972 118.668 23.0913 117.523 23.9589C116.378 24.8091 114.955 25.2343 113.255 25.2343C111.901 25.2343 110.686 24.9306 109.611 24.3233C108.552 23.7159 107.719 22.857 107.112 21.7465C106.505 20.6186 106.201 19.3172 106.201 17.8422C106.201 16.3673 106.496 15.0746 107.086 13.964C107.676 12.8535 108.5 12.0032 109.559 11.4133C110.634 10.8059 111.866 10.5023 113.255 10.5023C114.608 10.5023 115.805 10.7973 116.846 11.3872C117.888 11.9772 118.686 12.7928 119.241 13.8339C119.814 14.8577 120.1 16.0203 120.1 17.3217ZM117.653 16.8271C117.653 15.9248 117.454 15.1526 117.055 14.5106C116.656 13.8512 116.109 13.3567 115.415 13.027C114.738 12.68 113.983 12.5064 113.15 12.5064C111.953 12.5064 110.929 12.8882 110.079 13.6517C109.246 14.4152 108.769 15.4737 108.648 16.8271H117.653ZM128.276 25.2343C127.183 25.2343 126.202 25.0521 125.335 24.6877C124.467 24.3059 123.782 23.7853 123.278 23.126C122.775 22.4492 122.498 21.6771 122.446 20.8095H124.892C124.962 21.5209 125.291 22.1022 125.881 22.5533C126.489 23.0045 127.278 23.2301 128.25 23.2301C129.152 23.2301 129.864 23.0305 130.384 22.6314C130.905 22.2323 131.165 21.7291 131.165 21.1218C131.165 20.4971 130.887 20.0373 130.332 19.7423C129.777 19.43 128.918 19.1263 127.755 18.8313C126.697 18.5537 125.829 18.276 125.153 17.9984C124.493 17.7034 123.921 17.2783 123.435 16.723C122.966 16.1504 122.732 15.4043 122.732 14.4846C122.732 13.7558 122.949 13.0877 123.383 12.4804C123.816 11.8731 124.432 11.3959 125.231 11.0489C126.029 10.6845 126.94 10.5023 127.964 10.5023C129.543 10.5023 130.818 10.9014 131.79 11.6996C132.761 12.4978 133.282 13.591 133.351 14.9791H130.983C130.931 14.233 130.627 13.6343 130.072 13.1832C129.534 12.732 128.805 12.5064 127.885 12.5064C127.035 12.5064 126.358 12.6886 125.855 13.053C125.352 13.4174 125.1 13.8946 125.1 14.4846C125.1 14.9531 125.248 15.3435 125.543 15.6559C125.855 15.9508 126.237 16.1938 126.688 16.3847C127.157 16.5582 127.799 16.7577 128.614 16.9833C129.638 17.2609 130.471 17.5386 131.113 17.8162C131.755 18.0765 132.302 18.4756 132.753 19.0135C133.221 19.5514 133.464 20.2542 133.482 21.1218C133.482 21.9026 133.265 22.6054 132.831 23.2301C132.397 23.8548 131.781 24.3493 130.983 24.7137C130.202 25.0607 129.3 25.2343 128.276 25.2343ZM139.714 12.6886V21.0958C139.714 21.7898 139.862 22.2844 140.157 22.5794C140.452 22.857 140.964 22.9958 141.692 22.9958H143.436V25H141.302C139.983 25 138.994 24.6963 138.335 24.089C137.675 23.4817 137.346 22.4839 137.346 21.0958V12.6886H135.498V10.7365H137.346V7.14462H139.714V10.7365H143.436V12.6886H139.714ZM145.421 17.8162C145.421 16.3586 145.716 15.0832 146.306 13.9901C146.896 12.8795 147.703 12.0206 148.727 11.4133C149.768 10.8059 150.922 10.5023 152.189 10.5023C153.438 10.5023 154.522 10.7712 155.442 11.3091C156.362 11.8471 157.047 12.5238 157.498 13.3393V10.7365H159.893V25H157.498V22.3451C157.03 23.178 156.327 23.8721 155.39 24.4274C154.47 24.9653 153.395 25.2343 152.163 25.2343C150.896 25.2343 149.751 24.9219 148.727 24.2972C147.703 23.6726 146.896 22.7963 146.306 21.6684C145.716 20.5405 145.421 19.2564 145.421 17.8162ZM157.498 17.8422C157.498 16.7664 157.281 15.8294 156.848 15.0312C156.414 14.233 155.824 13.6257 155.078 13.2092C154.349 12.7754 153.542 12.5585 152.657 12.5585C151.772 12.5585 150.965 12.7667 150.236 13.1832C149.508 13.5996 148.926 14.207 148.493 15.0052C148.059 15.8034 147.842 16.7404 147.842 17.8162C147.842 18.9094 148.059 19.8638 148.493 20.6793C148.926 21.4775 149.508 22.0935 150.236 22.5273C150.965 22.9438 151.772 23.152 152.657 23.152C153.542 23.152 154.349 22.9438 155.078 22.5273C155.824 22.0935 156.414 21.4775 156.848 20.6793C157.281 19.8638 157.498 18.9181 157.498 17.8422ZM163.011 17.8162C163.011 16.3586 163.306 15.0832 163.896 13.9901C164.486 12.8795 165.292 12.0206 166.316 11.4133C167.357 10.8059 168.52 10.5023 169.804 10.5023C170.915 10.5023 171.947 10.7625 172.901 11.2831C173.856 11.7863 174.584 12.4544 175.088 13.2873V5.7391H177.482V25H175.088V22.3191C174.619 23.1693 173.925 23.8721 173.005 24.4274C172.086 24.9653 171.01 25.2343 169.778 25.2343C168.511 25.2343 167.357 24.9219 166.316 24.2972C165.292 23.6726 164.486 22.7963 163.896 21.6684C163.306 20.5405 163.011 19.2564 163.011 17.8162ZM175.088 17.8422C175.088 16.7664 174.871 15.8294 174.437 15.0312C174.003 14.233 173.413 13.6257 172.667 13.2092C171.938 12.7754 171.131 12.5585 170.246 12.5585C169.361 12.5585 168.555 12.7667 167.826 13.1832C167.097 13.5996 166.516 14.207 166.082 15.0052C165.648 15.8034 165.431 16.7404 165.431 17.8162C165.431 18.9094 165.648 19.8638 166.082 20.6793C166.516 21.4775 167.097 22.0935 167.826 22.5273C168.555 22.9438 169.361 23.152 170.246 23.152C171.131 23.152 171.938 22.9438 172.667 22.5273C173.413 22.0935 174.003 21.4775 174.437 20.6793C174.871 19.8638 175.088 18.9181 175.088 17.8422ZM187.706 25.2343C186.37 25.2343 185.155 24.9306 184.062 24.3233C182.986 23.7159 182.136 22.857 181.511 21.7465C180.904 20.6186 180.6 19.3172 180.6 17.8422C180.6 16.3847 180.912 15.1006 181.537 13.9901C182.179 12.8622 183.047 12.0032 184.14 11.4133C185.233 10.8059 186.456 10.5023 187.81 10.5023C189.163 10.5023 190.387 10.8059 191.48 11.4133C192.573 12.0032 193.432 12.8535 194.057 13.964C194.699 15.0746 195.02 16.3673 195.02 17.8422C195.02 19.3172 194.69 20.6186 194.031 21.7465C193.389 22.857 192.512 23.7159 191.402 24.3233C190.291 24.9306 189.059 25.2343 187.706 25.2343ZM187.706 23.152C188.556 23.152 189.354 22.9524 190.1 22.5533C190.846 22.1542 191.445 21.5556 191.896 20.7574C192.365 19.9592 192.599 18.9875 192.599 17.8422C192.599 16.697 192.373 15.7253 191.922 14.9271C191.471 14.1289 190.881 13.5389 190.152 13.1571C189.424 12.758 188.634 12.5585 187.784 12.5585C186.916 12.5585 186.118 12.758 185.389 13.1571C184.678 13.5389 184.105 14.1289 183.671 14.9271C183.238 15.7253 183.021 16.697 183.021 17.8422C183.021 19.0048 183.229 19.9852 183.645 20.7834C184.079 21.5816 184.652 22.1803 185.363 22.5794C186.075 22.9611 186.855 23.152 187.706 23.152ZM218.087 17.3217C218.087 17.7728 218.061 18.25 218.009 18.7532H206.609C206.695 20.1587 207.173 21.2606 208.04 22.0588C208.925 22.8397 209.992 23.2301 211.242 23.2301C212.266 23.2301 213.116 22.9958 213.793 22.5273C214.487 22.0415 214.972 21.3994 215.25 20.6012H217.801C217.419 21.972 216.656 23.0913 215.51 23.9589C214.365 24.8091 212.942 25.2343 211.242 25.2343C209.888 25.2343 208.674 24.9306 207.598 24.3233C206.539 23.7159 205.706 22.857 205.099 21.7465C204.492 20.6186 204.188 19.3172 204.188 17.8422C204.188 16.3673 204.483 15.0746 205.073 13.964C205.663 12.8535 206.487 12.0032 207.546 11.4133C208.622 10.8059 209.854 10.5023 211.242 10.5023C212.595 10.5023 213.793 10.7973 214.834 11.3872C215.875 11.9772 216.673 12.7928 217.228 13.8339C217.801 14.8577 218.087 16.0203 218.087 17.3217ZM215.641 16.8271C215.641 15.9248 215.441 15.1526 215.042 14.5106C214.643 13.8512 214.096 13.3567 213.402 13.027C212.725 12.68 211.971 12.5064 211.138 12.5064C209.94 12.5064 208.917 12.8882 208.066 13.6517C207.233 14.4152 206.756 15.4737 206.635 16.8271H215.641ZM92.1192 47.8162C92.1192 46.3586 92.4142 45.0832 93.0042 43.9901C93.5941 42.8795 94.401 42.0206 95.4248 41.4133C96.4659 40.8059 97.6199 40.5023 98.8866 40.5023C100.136 40.5023 101.22 40.7712 102.14 41.3091C103.06 41.8471 103.745 42.5238 104.196 43.3393V40.7365H106.591V55H104.196V52.3451C103.728 53.178 103.025 53.8721 102.088 54.4274C101.168 54.9653 100.093 55.2343 98.8605 55.2343C97.5938 55.2343 96.4486 54.9219 95.4248 54.2972C94.401 53.6726 93.5941 52.7963 93.0042 51.6684C92.4142 50.5405 92.1192 49.2564 92.1192 47.8162ZM104.196 47.8422C104.196 46.7664 103.979 45.8294 103.546 45.0312C103.112 44.233 102.522 43.6257 101.776 43.2092C101.047 42.7754 100.24 42.5585 99.3551 42.5585C98.4701 42.5585 97.6632 42.7667 96.9344 43.1832C96.2056 43.5996 95.6244 44.207 95.1905 45.0052C94.7567 45.8034 94.5398 46.7404 94.5398 47.8162C94.5398 48.9094 94.7567 49.8638 95.1905 50.6793C95.6244 51.4775 96.2056 52.0935 96.9344 52.5273C97.6632 52.9438 98.4701 53.152 99.3551 53.152C100.24 53.152 101.047 52.9438 101.776 52.5273C102.522 52.0935 103.112 51.4775 103.546 50.6793C103.979 49.8638 104.196 48.9181 104.196 47.8422ZM112.962 43.3654C113.431 42.5498 114.125 41.8731 115.044 41.3352C115.981 40.7799 117.066 40.5023 118.298 40.5023C119.565 40.5023 120.71 40.8059 121.734 41.4133C122.775 42.0206 123.59 42.8795 124.18 43.9901C124.77 45.0832 125.065 46.3586 125.065 47.8162C125.065 49.2564 124.77 50.5405 124.18 51.6684C123.59 52.7963 122.775 53.6726 121.734 54.2972C120.71 54.9219 119.565 55.2343 118.298 55.2343C117.083 55.2343 116.007 54.9653 115.07 54.4274C114.151 53.8721 113.448 53.1867 112.962 52.3711V61.7673H110.594V40.7365H112.962V43.3654ZM122.645 47.8162C122.645 46.7404 122.428 45.8034 121.994 45.0052C121.56 44.207 120.97 43.5996 120.224 43.1832C119.495 42.7667 118.688 42.5585 117.803 42.5585C116.936 42.5585 116.129 42.7754 115.383 43.2092C114.654 43.6257 114.064 44.2417 113.613 45.0572C113.179 45.8554 112.962 46.7838 112.962 47.8422C112.962 48.9181 113.179 49.8638 113.613 50.6793C114.064 51.4775 114.654 52.0935 115.383 52.5273C116.129 52.9438 116.936 53.152 117.803 53.152C118.688 53.152 119.495 52.9438 120.224 52.5273C120.97 52.0935 121.56 51.4775 121.994 50.6793C122.428 49.8638 122.645 48.9094 122.645 47.8162ZM130.552 43.053C130.968 42.2375 131.558 41.6041 132.321 41.153C133.102 40.7018 134.048 40.4762 135.159 40.4762V42.9229H134.534C131.879 42.9229 130.552 44.3631 130.552 47.2436V55H128.183V40.7365H130.552V43.053ZM144.113 55.2343C142.777 55.2343 141.563 54.9306 140.47 54.3233C139.394 53.7159 138.543 52.857 137.919 51.7465C137.311 50.6186 137.008 49.3172 137.008 47.8422C137.008 46.3847 137.32 45.1006 137.945 43.9901C138.587 42.8622 139.454 42.0032 140.548 41.4133C141.641 40.8059 142.864 40.5023 144.218 40.5023C145.571 40.5023 146.794 40.8059 147.888 41.4133C148.981 42.0032 149.84 42.8535 150.464 43.964C151.106 45.0746 151.427 46.3673 151.427 47.8422C151.427 49.3172 151.098 50.6186 150.438 51.7465C149.796 52.857 148.92 53.7159 147.809 54.3233C146.699 54.9306 145.467 55.2343 144.113 55.2343ZM144.113 53.152C144.964 53.152 145.762 52.9524 146.508 52.5533C147.254 52.1542 147.853 51.5556 148.304 50.7574C148.773 49.9592 149.007 48.9875 149.007 47.8422C149.007 46.697 148.781 45.7253 148.33 44.9271C147.879 44.1289 147.289 43.5389 146.56 43.1571C145.831 42.758 145.042 42.5585 144.192 42.5585C143.324 42.5585 142.526 42.758 141.797 43.1571C141.086 43.5389 140.513 44.1289 140.079 44.9271C139.645 45.7253 139.428 46.697 139.428 47.8422C139.428 49.0048 139.637 49.9852 140.053 50.7834C140.487 51.5816 141.059 52.1803 141.771 52.5794C142.482 52.9611 143.263 53.152 144.113 53.152ZM159.851 52.8136L164.276 40.7365H166.801L161.205 55H158.446L152.85 40.7365H155.401L159.851 52.8136ZM168.247 47.8162C168.247 46.3586 168.542 45.0832 169.132 43.9901C169.722 42.8795 170.529 42.0206 171.552 41.4133C172.593 40.8059 173.747 40.5023 175.014 40.5023C176.263 40.5023 177.348 40.7712 178.268 41.3091C179.187 41.8471 179.873 42.5238 180.324 43.3393V40.7365H182.718V55H180.324V52.3451C179.855 53.178 179.153 53.8721 178.216 54.4274C177.296 54.9653 176.22 55.2343 174.988 55.2343C173.721 55.2343 172.576 54.9219 171.552 54.2972C170.529 53.6726 169.722 52.7963 169.132 51.6684C168.542 50.5405 168.247 49.2564 168.247 47.8162ZM180.324 47.8422C180.324 46.7664 180.107 45.8294 179.673 45.0312C179.239 44.233 178.649 43.6257 177.903 43.2092C177.174 42.7754 176.368 42.5585 175.483 42.5585C174.598 42.5585 173.791 42.7667 173.062 43.1832C172.333 43.5996 171.752 44.207 171.318 45.0052C170.884 45.8034 170.667 46.7404 170.667 47.8162C170.667 48.9094 170.884 49.8638 171.318 50.6793C171.752 51.4775 172.333 52.0935 173.062 52.5273C173.791 52.9438 174.598 53.152 175.483 53.152C176.368 53.152 177.174 52.9438 177.903 52.5273C178.649 52.0935 179.239 51.4775 179.673 50.6793C180.107 49.8638 180.324 48.9181 180.324 47.8422ZM185.836 47.8162C185.836 46.3586 186.131 45.0832 186.721 43.9901C187.311 42.8795 188.118 42.0206 189.142 41.4133C190.183 40.8059 191.345 40.5023 192.63 40.5023C193.74 40.5023 194.773 40.7625 195.727 41.2831C196.681 41.7863 197.41 42.4544 197.913 43.2873V35.7391H200.308V55H197.913V52.3191C197.445 53.1693 196.751 53.8721 195.831 54.4274C194.911 54.9653 193.835 55.2343 192.603 55.2343C191.337 55.2343 190.183 54.9219 189.142 54.2972C188.118 53.6726 187.311 52.7963 186.721 51.6684C186.131 50.5405 185.836 49.2564 185.836 47.8162ZM197.913 47.8422C197.913 46.7664 197.696 45.8294 197.263 45.0312C196.829 44.233 196.239 43.6257 195.493 43.2092C194.764 42.7754 193.957 42.5585 193.072 42.5585C192.187 42.5585 191.38 42.7667 190.651 43.1832C189.923 43.5996 189.341 44.207 188.907 45.0052C188.474 45.8034 188.257 46.7404 188.257 47.8162C188.257 48.9094 188.474 49.8638 188.907 50.6793C189.341 51.4775 189.923 52.0935 190.651 52.5273C191.38 52.9438 192.187 53.152 193.072 53.152C193.957 53.152 194.764 52.9438 195.493 52.5273C196.239 52.0935 196.829 51.4775 197.263 50.6793C197.696 49.8638 197.913 48.9181 197.913 47.8422ZM210.531 55.2343C209.195 55.2343 207.98 54.9306 206.887 54.3233C205.811 53.7159 204.961 52.857 204.337 51.7465C203.729 50.6186 203.426 49.3172 203.426 47.8422C203.426 46.3847 203.738 45.1006 204.363 43.9901C205.005 42.8622 205.872 42.0032 206.965 41.4133C208.059 40.8059 209.282 40.5023 210.635 40.5023C211.989 40.5023 213.212 40.8059 214.305 41.4133C215.399 42.0032 216.257 42.8535 216.882 43.964C217.524 45.0746 217.845 46.3673 217.845 47.8422C217.845 49.3172 217.515 50.6186 216.856 51.7465C216.214 52.857 215.338 53.7159 214.227 54.3233C213.117 54.9306 211.885 55.2343 210.531 55.2343ZM210.531 53.152C211.382 53.152 212.18 52.9524 212.926 52.5533C213.672 52.1542 214.271 51.5556 214.722 50.7574C215.19 49.9592 215.425 48.9875 215.425 47.8422C215.425 46.697 215.199 45.7253 214.748 44.9271C214.297 44.1289 213.707 43.5389 212.978 43.1571C212.249 42.758 211.46 42.5585 210.609 42.5585C209.742 42.5585 208.944 42.758 208.215 43.1571C207.503 43.5389 206.931 44.1289 206.497 44.9271C206.063 45.7253 205.846 46.697 205.846 47.8422C205.846 49.0048 206.054 49.9852 206.471 50.7834C206.905 51.5816 207.477 52.1803 208.189 52.5794C208.9 52.9611 209.681 53.152 210.531 53.152Z" fill="#FFE8DD"></path><path d="M65.9382 32.9691C65.9382 39.4768 64.0064 45.8054 60.3521 51.2713C59.8556 52.0143 59.0396 52.4157 58.2085 52.4157C57.7165 52.4157 57.219 52.2754 56.7793 51.9811C55.5966 51.1908 55.2791 49.591 56.0695 48.4083C59.1558 43.7926 60.7867 38.4541 60.7867 32.9691C60.7867 30.6122 60.4919 28.2715 59.9104 26.0127C59.5557 24.6353 60.3853 23.2307 61.7627 22.876C63.1411 22.5219 64.5447 23.3509 64.8993 24.7283C65.5885 27.4067 65.9382 30.1791 65.9382 32.9691ZM47.3588 56.7809C43.0325 59.4013 38.0566 60.7868 32.9691 60.7868C17.6305 60.7868 5.15142 48.3077 5.15142 32.9691C5.15142 17.6305 17.6305 5.15142 32.9691 5.15142C38.6482 5.15142 44.109 6.85079 48.7619 10.0659C49.932 10.8743 51.5363 10.581 52.3453 9.4109C53.1537 8.24077 52.8609 6.63648 51.6903 5.82755C46.1726 2.01529 39.6991 0 32.9691 0C24.1629 0 15.8834 3.42942 9.65639 9.6564C3.42942 15.8834 0 24.1629 0 32.9691C0 41.7753 3.42942 50.0548 9.65639 56.2818C15.8834 62.5088 24.1629 65.9382 32.9691 65.9382C38.9978 65.9382 44.8968 64.2952 50.0281 61.1867C51.245 60.4497 51.6339 58.8661 50.8969 57.6492C50.1594 56.4322 48.5758 56.0439 47.3588 56.7809ZM33.2176 40.4377C32.8096 40.4538 32.4288 40.3089 32.133 40.0272L18.6432 27.2366C17.6109 26.2577 15.9805 26.3009 15.002 27.3332C14.023 28.3655 14.0663 29.996 15.0986 30.9744L28.5858 43.763C29.8314 44.9472 31.4428 45.5901 33.1502 45.5901C33.2417 45.5901 33.3333 45.5881 33.4249 45.5846C35.2334 45.5116 36.8945 44.7288 38.1019 43.3801C38.1326 43.3464 38.1617 43.3117 38.1904 43.276L65.3697 9.46976C66.2611 8.361 66.0851 6.73961 64.9763 5.84868C63.868 4.95724 62.2461 5.13331 61.3547 6.24208L34.2288 39.9824C33.9621 40.2606 33.605 40.4221 33.2176 40.4377Z" fill="#FFE8DD"></path></svg>