<svg xmlns="http://www.w3.org/2000/svg" width="1316" height="687" viewBox="0 0 1316 687" fill="none"><path d="M417.244 995.677C388.304 991.217 359.382 986.606 330.498 981.767C306.283 894.508 287.552 806.282 274.021 716.746C278.253 715.095 284.535 712.761 292.999 709.725C301.444 706.688 309.851 704.639 318.163 703.614C337.046 701.28 352.114 704.506 361.109 713.444C374.583 726.842 378.473 749.805 380.523 768.498C390.429 844.636 402.556 920.299 417.244 995.658V995.677ZM507.748 1220.71C482.052 1212.08 459.545 1192.59 439.372 1173.33C416.77 1151.73 397.28 1125.29 380.257 1098.65C361.963 1070.01 347.521 1038.53 337.539 1006.02C332.377 988.712 329.872 979.964 325.071 962.353C354.372 966.509 383.692 970.494 413.05 974.29C416.58 992.736 418.402 1001.88 422.178 1020.04C426.581 1041.74 434.779 1062.88 447.627 1080.92C459.26 1097.24 471.767 1107.36 485.506 1110.81C499.265 1114.27 509.646 1109.58 516.098 1096.5C524.903 1078.65 524.125 1056.29 521.374 1036.74C518.869 1017.06 517.635 1007.14 515.263 987.194C548.625 991.293 582.007 995.355 615.388 999.416C616.489 1017.73 617.627 1036.04 618.804 1054.36C620.113 1090.79 619.468 1126.43 609.258 1161.77C602.73 1184.37 590.641 1207.28 570.335 1220.22C550.466 1232.88 526.839 1227.18 507.71 1220.75L507.748 1220.71ZM617.02 1025.6C584.094 1021.16 551.187 1016.65 518.299 1012.04C505.641 907.356 495.337 802.411 488.125 697.219C493.04 695.757 500.328 693.708 510.082 691.108C519.836 688.527 529.439 687.085 538.852 686.8C560.22 686.174 576.807 691.431 586.163 702.437C600.586 719.403 601.326 744.131 603.185 765.917C607.133 852.511 611.706 939.067 617.02 1025.6Z" fill="#A61745"></path><path d="M885.402 1105.01C864.432 1138.5 841.09 1171.9 813.933 1200.54C798.523 1216.78 781.652 1237.03 759.809 1244.74C750.188 1248.13 737.928 1250.72 723.183 1252.35C708.418 1253.96 694.47 1252.14 682.647 1246.35C660.861 1235.7 654.276 1205.99 652.814 1183.17C645.166 1039.65 638.942 896.064 633.894 752.424C633.419 738.893 635.697 728.456 640.783 721.13C645.85 713.805 652.606 707.751 661.032 703.216C680.692 693.48 702.156 689.058 722.841 686.99C742.065 685.073 763.301 684.428 783.019 686.364C824.219 690.425 864.185 702.475 897.244 729.139C926.185 752.481 946.206 788.443 954.366 824.785C965.032 872.267 957.099 920.564 945.314 966.357C932.865 1014.77 912.009 1062.48 885.402 1104.99V1105.01ZM854.754 890.77C851.3 872.191 845.796 852.037 831.886 837.139C820.215 824.652 807.234 817.099 786.549 816.777C780.381 816.682 774.099 816.909 767.742 817.46C761.384 818.01 754.913 818.902 748.366 820.117C746.373 923.373 743.754 1026.59 740.338 1129.81C744.039 1130.25 748.651 1130.34 754.173 1130.08C759.695 1129.83 764.668 1129.18 769.013 1128.35C789.585 1124.38 803.932 1102.99 813.667 1086.31C833.233 1052.78 845.341 1013.23 851.281 975.276C855.627 947.493 859.783 917.832 854.754 890.789V890.77Z" fill="#A61745"></path><path d="M108.513 554.389C71.9056 568.053 35.6017 582.438 0 598.625C6.96473 502.846 37.4995 418.548 94.0902 340.911C100.713 332.334 107.261 324.932 113.22 318.518C119.178 312.104 125.005 306.126 130.622 300.546C140.509 290.773 150.264 281.531 160.151 272.877C170.038 264.223 178.331 257.126 184.954 252.742C198.694 243.652 220.48 229.191 232.777 243.766C249.497 263.578 245.872 304.702 244.961 331.992C243.879 364.121 237.256 396.914 226.268 427.487C215.755 456.731 199.168 485.69 178.369 507.287C158.86 527.555 136.182 544.293 108.456 554.389H108.513ZM6.31949 540.82C32.1668 527.725 58.2039 515.295 84.6205 503.415C77.7696 575.568 79.7812 646.259 90.4655 717.937C87.4102 720.48 82.6279 723.459 76.1945 726.97C69.7611 730.481 63.138 733.289 56.3061 735.358C41.5037 739.837 30.326 738.337 22.2985 730.936C14.271 723.516 7.38223 708.41 4.08015 685.068C-1.61309 635.992 -0.891944 589.706 6.31949 540.82ZM91.2436 455.649C99.8404 451.474 104.167 449.406 112.954 445.325C125.441 439.537 136.543 429.384 145.956 415.455C155.349 401.563 161.992 382.13 164.895 365.867C168.197 347.364 168.615 335.256 165.142 329.316C161.669 323.376 154.685 323.794 143.489 330.417C139.503 332.77 136.182 334.858 133.525 336.641C130.85 338.444 127.984 340.608 124.91 343.151C109.025 379.341 99.1193 417.049 91.2436 455.649Z" fill="#A61745"></path><path d="M603.705 338.979C622.531 393.159 627.598 456.145 609.246 512.148C594.842 556.1 571.064 596.161 533.754 626.278C505.155 649.355 466.175 666.226 429.909 670.059C398.881 673.342 362.179 665.713 336.199 647.818C305.986 627.018 284.77 592.992 271.827 559.25C253.514 511.541 247.327 459.296 247.555 409.271C247.764 363.213 252.963 315.238 270.783 271.495C281.525 245.154 296.612 216.669 318.189 199.039C333.561 186.476 351.172 175.791 371.516 171.939C392.163 168.03 413.873 169.813 433.952 173.704C464.183 179.568 491.586 195.205 516.636 213.519C558.728 244.281 587.176 291.364 603.724 338.979H603.705ZM497.26 350.764C488.986 316.168 473.975 275.765 446.268 250.126C431.409 236.386 410.894 227.049 390.265 231.927C370.415 236.633 357.093 253.599 350.583 272.064C338.343 306.793 340.241 346 343.277 381.621C346.636 420.904 352.159 465.349 372.92 500.325C385.768 521.978 408.427 538.071 434.502 533.877C462.19 529.417 483.938 506.948 493.901 481.518C510.108 440.147 507.072 391.831 497.241 350.783L497.26 350.764Z" fill="#A61745"></path><path d="M815.365 450.651C764.733 447.956 714.31 447.178 663.602 448.279C645.744 354.303 611.604 240.381 529.431 181.266C522.922 176.674 519.544 173.903 518.994 172.252C518.462 170.601 519.468 169.671 521.803 169.31C526.148 168.722 532.468 169.367 540.818 171.151C549.168 172.935 556.854 175.269 564.464 177.66C601.052 189.161 638.723 197.72 676.146 206.297C734.711 219.715 796.71 239.47 842.73 277.88C870.286 300.881 895.962 327.506 905.868 363.488C912.188 386.469 907.538 412.981 889.946 429.833C869.432 449.475 842.389 450.461 815.365 450.651ZM646.579 373.736C683.225 372.445 719.699 372.236 756.345 373.052C788.246 462.246 797.64 552.275 785.722 646.214C780.655 647.941 773.178 648.871 762.968 649.971C752.739 651.072 740.992 651.926 730.365 650.996C714.841 649.63 691.613 648.131 682.276 631.715C671.003 611.903 672.522 587.308 672.313 565.237C672.009 499.765 663.849 436.855 646.579 373.717V373.736ZM730.137 317.771C741.049 318.094 746.458 318.321 757.18 318.872C772.457 319.669 781.243 314.583 782.458 304.354C783.654 294.125 775.949 279.399 758.869 262.49C743.858 247.63 726.152 235.561 707.079 226.489C690.436 218.576 676.013 214.211 662.862 212.731C658.175 212.199 654.379 211.896 651.494 211.763C648.61 211.63 645.915 211.744 643.448 212.124C680.226 240.912 706.7 277.88 730.156 317.79L730.137 317.771Z" fill="#A61745"></path><path d="M1243.85 342.586C1291.45 405.136 1324.51 488.941 1314.07 569.917C1307.6 620.075 1290.21 674.521 1250.29 706.043C1224.82 726.159 1190.64 738.551 1156.73 730.201C1124.94 722.382 1096.49 692.986 1078.41 667.765C1050.87 629.336 1032.46 582.196 1013.62 537.978C986.67 474.764 958.565 410.222 919.528 355.415C888.86 312.336 848.173 264.817 797.769 245.972C776.134 237.888 750.686 233.276 730.607 220.846C719.809 214.166 720.872 208.207 739.052 200.844C770.441 188.148 805.549 183.403 838.874 179.931C901.689 173.402 966.137 180.063 1027.07 196.991C1113.06 220.884 1191.02 273.148 1243.83 342.567L1243.85 342.586ZM1154.36 344.313C1116.04 294.554 1062.58 252.861 1002.17 231.72C973.177 221.567 937.708 210.389 906.908 217.886C890.417 221.909 893.757 231.568 913.664 251.153C948.507 285.426 985.019 318.466 1014.42 356.668C1048.27 400.657 1073.83 453.339 1105.2 499.492C1120.08 521.392 1140.79 554.413 1170.77 557.354C1201.84 560.391 1210.24 526.952 1213.3 505.261C1221 450.378 1188.06 388.094 1154.37 344.332L1154.36 344.313Z" fill="#A61745"></path><path d="M667.598 68.9292C667.598 68.9292 667.39 68.6825 666.972 68.2271C666.555 67.7716 665.928 67.1074 665.131 66.2724C664.315 65.4374 663.31 64.4126 662.133 63.255C661.545 62.6667 660.918 62.0594 660.235 61.4142C659.533 60.7879 658.793 60.1047 658.015 59.4025C656.459 58.0172 654.713 56.499 652.834 54.9428C650.898 53.4057 648.811 51.7736 646.59 50.1415C646.04 49.743 645.471 49.3255 644.901 48.908C644.313 48.5095 643.725 48.092 643.118 47.6745C641.903 46.8584 640.669 46.0424 639.398 45.2074C638.126 44.3914 636.836 43.5564 635.47 42.7593C634.103 41.9623 632.718 41.1652 631.295 40.3871C619.965 34.1435 606.415 28.9058 591.878 26.7044C590.057 26.4387 588.235 26.192 586.394 26.0212C584.553 25.8314 582.712 25.6986 580.834 25.6227C577.076 25.4708 573.318 25.5088 569.542 25.7745C565.727 26.0591 561.894 26.5526 558.08 27.2927C556.163 27.6533 554.265 28.0897 552.348 28.5642C550.432 29.0576 548.515 29.6079 546.598 30.2342C546.427 30.2911 546.332 30.3101 546.332 30.3101L546.598 30.2342C547.547 29.9495 551.134 28.9058 556.846 28.3554C559.712 28.0708 563.147 27.881 567.056 27.9949C570.927 28.1277 575.368 28.5072 580.207 29.3992C582.617 29.8546 585.141 30.424 587.779 31.1261C590.417 31.8283 593.093 32.7202 595.921 33.726C598.748 34.7318 601.614 35.9654 604.574 37.3697C606.055 38.0719 607.592 38.812 609.072 39.628C610.571 40.4441 612.089 41.298 613.646 42.209C616.777 44.0118 619.832 46.0993 623.039 48.3956C624.652 49.5343 626.19 50.7678 627.803 52.0583C629.378 53.3487 631.029 54.6772 632.604 56.1005C638.999 61.7747 645.414 68.5687 651.638 76.6531C650.139 77.2224 648.621 77.7537 647.084 78.2282C637.254 81.3595 626.759 83.0295 616.17 83.3711C610.894 83.5229 605.504 83.409 600.153 82.9536C597.458 82.7258 594.839 82.4032 592.125 82.0427C589.43 81.6821 586.754 81.2266 584.117 80.6953C565.765 77.0516 550.109 66.8037 535.193 56.7267C528.683 52.267 521.111 49.2116 513.843 47.9402C506.594 46.7256 499.155 46.4599 492 47.4657C503.405 34.7129 514.299 24.503 525.116 16.9689C530.524 13.1924 535.895 10.0801 541.266 7.59408C546.636 5.08906 551.912 3.2862 557.226 2.03369C559.863 1.40743 562.52 0.914016 565.12 0.591399C567.72 0.268783 570.32 0.0790079 572.901 0.0220756C578.101 -0.110767 583.111 0.36367 588.102 1.23663C597.97 3.07745 607.459 6.72112 615.942 11.6363C633.059 21.3717 646.496 35.7946 655.016 47.7504C656.079 49.2496 657.104 50.6919 658.034 52.0772C658.964 53.4816 659.799 54.829 660.596 56.1005C661.393 57.372 662.114 58.5865 662.778 59.7062C663.442 60.8259 663.993 61.8886 664.524 62.8375C665.549 64.7542 666.327 66.2724 666.839 67.3161C667.371 68.3599 667.617 68.9292 667.617 68.9292H667.598Z" fill="#A61745"></path><path d="M678.144 89.9165C678.144 89.9165 678.295 89.6319 678.637 89.1195C678.979 88.6071 679.472 87.848 680.117 86.8611C680.762 85.8933 681.578 84.7167 682.546 83.3693C683.021 82.6861 683.533 81.9839 684.103 81.2248C684.672 80.4847 685.298 79.6877 685.943 78.8716C687.234 77.2206 688.676 75.4557 690.27 73.5769C691.902 71.7171 693.686 69.7625 695.584 67.7698C696.058 67.2764 696.552 66.764 697.045 66.2516C697.558 65.7582 698.07 65.2458 698.582 64.7334C699.626 63.7086 700.708 62.7028 701.827 61.6591C702.947 60.6343 704.067 59.5905 705.262 58.5847C706.458 57.5599 707.691 56.5541 708.963 55.5294C719.059 47.426 731.47 39.9109 745.419 35.2235C747.165 34.6352 748.93 34.0848 750.713 33.5914C752.478 33.079 754.281 32.6236 756.122 32.244C759.785 31.447 763.504 30.8397 767.281 30.4412C771.095 30.0616 774.948 29.8908 778.838 29.9477C780.774 29.9857 782.728 30.0616 784.702 30.2134C786.676 30.3652 788.668 30.593 790.661 30.8587C790.832 30.8776 790.927 30.8966 790.927 30.8966L790.661 30.8587C789.674 30.7448 785.955 30.3463 780.242 30.7827C777.377 30.9915 773.961 31.409 770.127 32.2061C766.332 33.0221 762.024 34.1607 757.412 35.8687C755.116 36.7227 752.725 37.7285 750.258 38.8671C747.772 40.0058 745.305 41.3532 742.686 42.8334C740.067 44.3137 737.467 46.0216 734.791 47.9194C733.463 48.8683 732.077 49.8551 730.749 50.9178C729.421 51.9806 728.054 53.0813 726.688 54.2579C723.917 56.5731 721.26 59.173 718.509 61.9817C717.123 63.386 715.814 64.8663 714.447 66.4034C713.119 67.9406 711.715 69.5347 710.405 71.2237C705.073 77.9228 699.949 85.7225 695.223 94.7558C696.798 95.0404 698.393 95.3061 699.987 95.5338C710.215 96.9192 720.843 96.7294 731.337 95.2492C736.556 94.4901 741.851 93.4274 747.051 92.061C749.651 91.3778 752.194 90.5997 754.794 89.7837C757.374 88.9487 759.936 88.0567 762.46 87.0699C779.901 80.2949 793.564 67.5041 806.507 54.979C812.143 49.4755 819.07 45.1487 826.016 42.6247C832.943 40.1766 840.23 38.6204 847.442 38.3737C834.005 27.8033 821.499 19.624 809.544 14.0826C803.566 11.2929 797.74 9.16742 792.027 7.63025C786.296 6.09307 780.793 5.23908 775.346 4.91647C772.651 4.76465 769.938 4.72669 767.319 4.85954C764.7 4.99238 762.119 5.25806 759.557 5.65659C754.414 6.41569 749.556 7.76309 744.792 9.49004C735.399 13.0009 726.688 18.2386 719.173 24.5392C703.991 37.0833 693.25 53.6316 686.93 66.8779C686.133 68.5289 685.393 70.142 684.691 71.6602C684.008 73.1974 683.419 74.6776 682.869 76.063C682.319 77.4483 681.806 78.7767 681.351 79.9913C680.895 81.2059 680.516 82.3445 680.174 83.3883C679.491 85.4378 678.998 87.0889 678.656 88.2085C678.314 89.3282 678.182 89.9355 678.182 89.9355L678.144 89.9165Z" fill="#A61745"></path></svg>