<svg xmlns="http://www.w3.org/2000/svg" width="185" height="185" viewBox="0 0 185 185" fill="none"><g clip-path="url(#clip0_31_457)"><path d="M92.504 184.732C143.446 184.732 184.74 143.439 184.74 92.496C184.74 41.5536 143.438 0.268555 92.504 0.268555C41.5697 0.268555 0.268311 41.5618 0.268311 92.5042C0.268311 143.447 41.5615 184.74 92.504 184.74V184.732Z" fill="white"></path><path d="M50.1853 120.298C49.5213 113.614 53.0141 106.062 55.2793 100.004C56.1426 99.8644 56.579 99.7953 57.4628 99.6619C59.1111 101.161 60.0843 103.341 60.4642 105.495C60.6463 106.533 60.6997 107.585 60.5867 108.599C60.4721 109.613 60.2711 110.558 59.9854 111.426C58.4376 116.192 55.4315 123.369 57.6936 128.406C57.0405 127.918 56.7187 127.671 56.0893 127.171C55.4833 126.627 54.8083 126.023 54.0674 125.345C53.3265 124.667 52.6059 123.99 51.9309 123.282C51.3878 122.712 50.964 122.193 50.683 121.69C50.402 121.188 50.2371 120.725 50.1853 120.3V120.298ZM56.0594 99.8801C55.5618 102.787 55.1411 105.691 54.8256 108.625C50.9278 108.778 47.0332 108.958 43.1386 109.154C42.8247 108.823 42.4887 108.416 42.1371 107.935C41.7855 107.454 41.481 106.905 41.2329 106.278C40.8028 105.195 40.7165 104.349 40.9425 103.728C41.1686 103.108 41.6395 102.696 42.3506 102.533C46.8967 101.513 51.4616 100.63 56.0594 99.8785V99.8801ZM56.6089 127.579C55.7423 126.491 55.1003 124.921 54.8444 123.57C58.4659 125.036 62.1298 126.312 65.8611 127.474C66.1892 127.974 66.5455 128.585 66.9317 129.307C67.3179 130.028 67.6585 130.801 67.963 131.616C68.4905 133.024 68.7134 133.966 68.5988 134.41C68.4842 134.855 68.1247 134.902 67.5062 134.574C63.6901 132.495 60.0733 130.205 56.6089 127.58V127.579Z" fill="#9D123F"></path><path d="M72.1781 122.383C69.7842 122.014 67.3919 121.633 65.0027 121.232C62.9997 114.014 61.4503 106.717 60.3311 99.3103C60.6811 99.1738 61.2007 98.9807 61.9008 98.7295C62.5994 98.4784 63.2948 98.3088 63.9823 98.2241C65.5443 98.031 66.7907 98.2978 67.5347 99.0372C68.6493 100.145 68.9711 102.045 69.1406 103.591C69.96 109.889 70.9631 116.148 72.1781 122.381V122.383ZM79.6644 140.997C77.5389 140.283 75.6772 138.671 74.0085 137.078C72.1389 135.291 70.5267 133.104 69.1186 130.9C67.6054 128.532 66.4108 125.927 65.5851 123.238C65.1581 121.807 64.9509 121.083 64.5537 119.626C66.9775 119.97 69.4028 120.3 71.8312 120.614C72.1232 122.14 72.2739 122.896 72.5863 124.398C72.9505 126.193 73.6286 127.941 74.6913 129.434C75.6536 130.784 76.6881 131.621 77.8246 131.907C78.9627 132.192 79.8214 131.805 80.3551 130.723C81.0835 129.246 81.0191 127.397 80.7915 125.78C80.5843 124.152 80.4822 123.331 80.286 121.681C83.0457 122.02 85.8069 122.356 88.5681 122.692C88.6592 124.207 88.7534 125.722 88.8507 127.237C88.959 130.251 88.9056 133.199 88.0611 136.122C87.5211 137.991 86.5211 139.886 84.8415 140.956C83.1979 142.003 81.2436 141.533 79.6612 141L79.6644 140.997ZM88.7031 124.858C85.9796 124.491 83.2576 124.117 80.5372 123.736C79.4901 115.077 78.6377 106.396 78.0412 97.695C78.4478 97.5742 79.0506 97.4046 79.8575 97.1896C80.6643 96.9761 81.4586 96.8568 82.2372 96.8332C84.0048 96.7814 85.3768 97.2163 86.1507 98.1267C87.3437 99.5301 87.4049 101.576 87.5588 103.378C87.8853 110.54 88.2636 117.7 88.7031 124.858Z" fill="#9D123F"></path><path d="M110.903 131.426C109.168 134.197 107.237 136.96 104.991 139.329C103.716 140.672 102.321 142.347 100.514 142.985C99.7179 143.266 98.7038 143.479 97.4841 143.614C96.2628 143.748 95.1091 143.597 94.1311 143.118C92.329 142.237 91.7843 139.779 91.6634 137.892C91.0308 126.02 90.5159 114.143 90.0983 102.262C90.0591 101.142 90.2475 100.279 90.6682 99.6731C91.0873 99.0671 91.6461 98.5664 92.3431 98.1912C93.9694 97.3859 95.7448 97.0201 97.4559 96.849C99.046 96.6905 100.803 96.6371 102.434 96.7972C105.842 97.1332 109.148 98.13 111.882 100.336C114.276 102.266 115.932 105.241 116.607 108.247C117.489 112.175 116.833 116.17 115.858 119.958C114.829 123.962 113.103 127.909 110.903 131.425V131.426ZM108.367 113.705C108.082 112.168 107.626 110.501 106.476 109.269C105.51 108.236 104.437 107.611 102.726 107.585C102.215 107.577 101.696 107.596 101.17 107.641C100.644 107.687 100.109 107.761 99.5672 107.861C99.4024 116.402 99.1858 124.94 98.9032 133.478C99.2093 133.514 99.5908 133.522 100.048 133.5C100.504 133.48 100.916 133.426 101.275 133.357C102.977 133.029 104.164 131.26 104.969 129.88C106.587 127.106 107.589 123.835 108.08 120.695C108.44 118.397 108.783 115.944 108.367 113.707V113.705Z" fill="#9D123F"></path><path d="M130.992 110.38C130.881 110.378 130.826 110.376 130.714 110.375C130.14 111.345 129.494 112.414 128.774 113.591C128.002 114.852 127.226 116.111 126.446 117.367C125.584 118.757 124.735 120.159 123.901 121.567C122.779 123.669 121.638 125.76 120.482 127.843C120.004 128.611 119.552 129.355 119.126 130.075C118.701 130.796 118.288 131.484 117.889 132.138C117.489 132.793 117.103 133.429 116.732 134.044C116.36 134.659 116.007 135.428 115.632 135.838C115.332 136.165 114.721 136.512 114.211 136.876C113.701 137.24 113.147 137.571 112.555 137.855C111.211 138.5 110.401 138.59 110.026 138.168C109.651 137.745 109.673 136.882 110.084 135.629C110.269 135.064 110.503 134.48 110.791 133.879C111.076 133.279 111.412 132.573 111.791 131.763C112.616 129.991 113.48 128.225 114.365 126.479C115.539 124.164 116.732 121.848 117.935 119.549C119.178 117.17 120.438 114.792 121.704 112.422C122.784 110.398 123.867 108.375 124.952 106.353C125.895 104.593 126.554 102.964 127.017 102.52C127.371 102.179 128.556 101.945 129.721 101.805C130.884 101.666 131.973 101.736 132.998 101.973C134.505 102.32 135.758 102.903 136.748 103.672C137.739 104.443 138.215 105.336 138.178 106.372C138.191 108.215 138.028 110.081 137.75 111.849C137.449 113.762 136.987 115.715 136.343 117.524C135.763 119.156 134.973 120.836 134.004 122.335C133.227 123.537 132.223 124.781 131.158 125.77C130.639 126.204 130.052 126.696 129.392 127.247C128.733 127.798 128.088 128.335 127.435 128.828C126.466 129.562 125.937 129.857 125.864 129.697C125.79 129.537 125.969 129.052 126.388 128.233C127.102 126.842 127.422 126.107 127.994 124.562C128.603 123.131 129.141 121.638 129.593 120.148C129.89 119.001 130.129 117.858 130.319 116.728C130.509 115.597 130.659 114.486 130.782 113.403C130.903 112.321 130.956 111.318 130.995 110.381L130.992 110.38ZM116.833 129.725C118.781 126.93 120.76 124.159 122.766 121.404C125.897 120.756 129.009 120.063 132.144 119.434C131.411 121.269 130.564 123.059 129.593 124.781C125.405 126.586 121.157 128.277 116.833 129.724V129.725Z" fill="#9D123F"></path><path d="M46.64 85.8805C43.6119 87.0107 40.609 88.2006 37.6641 89.5396C38.2402 81.617 40.7659 74.6441 45.447 68.2221C45.9948 67.5126 46.5364 66.9004 47.0293 66.3698C47.5222 65.8392 48.0042 65.3447 48.4688 64.8832C49.2867 64.0748 50.0935 63.3103 50.9114 62.5945C51.7292 61.8787 52.4152 61.2916 52.9631 60.929C54.0996 60.177 55.9017 58.9809 56.9189 60.1865C58.3019 61.8253 58.002 65.227 57.9267 67.4843C57.8372 70.142 57.2894 72.8545 56.3805 75.3834C55.5108 77.8024 54.1388 80.1979 52.4184 81.9843C50.8046 83.6608 48.9288 85.0454 46.6353 85.8805H46.64ZM38.1868 84.7581C40.3248 83.675 42.4786 82.6468 44.6637 81.6641C44.097 87.6324 44.2634 93.4798 45.1472 99.4088C44.8944 99.6192 44.4989 99.8656 43.9667 100.156C43.4345 100.446 42.8867 100.679 42.3216 100.85C41.0972 101.22 40.1726 101.096 39.5085 100.484C38.8445 99.8703 38.2747 98.6208 38.0016 96.69C37.5306 92.6305 37.5903 88.8018 38.1868 84.7581ZM45.2115 77.713C45.9226 77.3676 46.2805 77.1965 47.0074 76.859C48.0403 76.3802 48.9586 75.5404 49.7372 74.3882C50.5142 73.2391 51.0636 71.6317 51.3038 70.2864C51.577 68.7558 51.6115 67.7543 51.3242 67.263C51.037 66.7717 50.4593 66.8062 49.5331 67.354C49.2035 67.5487 48.9288 67.7214 48.709 67.8689C48.4876 68.0181 48.2506 68.197 47.9963 68.4074C46.6824 71.4009 45.863 74.5201 45.2115 77.713Z" fill="#9D123F"></path><path d="M87.6003 68.0622C89.1575 72.5439 89.5767 77.7539 88.0587 82.3863C86.8672 86.0219 84.9003 89.3357 81.8141 91.827C79.4485 93.7358 76.2242 95.1313 73.2243 95.4484C70.6578 95.72 67.6218 95.0889 65.4728 93.6087C62.9737 91.8882 61.2187 89.0736 60.1481 86.2825C58.6333 82.3361 58.1216 78.0145 58.1404 73.8766C58.1577 70.0668 58.5878 66.0984 60.0618 62.4801C60.9503 60.3012 62.1983 57.945 63.9831 56.4867C65.2546 55.4475 66.7114 54.5637 68.3942 54.245C70.1021 53.9217 71.8979 54.0692 73.5587 54.391C76.0594 54.8761 78.3261 56.1696 80.3982 57.6844C83.88 60.229 86.2331 64.1236 87.6019 68.0622H87.6003ZM78.7955 69.037C78.111 66.1753 76.8694 62.8333 74.5775 60.7125C73.3484 59.576 71.6514 58.8036 69.9451 59.2071C68.3031 59.5964 67.2011 60.9998 66.6627 62.5271C65.6502 65.3998 65.8072 68.643 66.0583 71.5895C66.3362 74.8389 66.793 78.5153 68.5103 81.4084C69.5731 83.1995 71.4474 84.5307 73.6042 84.1837C75.8945 83.8148 77.6935 81.9562 78.5176 79.8527C79.8582 76.4306 79.607 72.434 78.7939 69.0386L78.7955 69.037Z" fill="#9D123F"></path><path d="M105.109 77.2997C100.921 77.0767 96.7496 77.0124 92.5552 77.1034C91.078 69.3299 88.254 59.9066 81.4569 55.0167C80.9185 54.6368 80.639 54.4077 80.5935 54.2711C80.5496 54.1345 80.6328 54.0576 80.8258 54.0278C81.1853 53.9791 81.7081 54.0325 82.3988 54.18C83.0895 54.3276 83.7252 54.5207 84.3547 54.7185C87.3812 55.6698 90.4972 56.3777 93.5928 57.0873C98.4371 58.1971 103.566 59.8312 107.372 63.0084C109.652 64.911 111.776 67.1134 112.595 70.0897C113.118 71.9907 112.733 74.1837 111.278 75.5776C109.581 77.2023 107.344 77.284 105.109 77.2997ZM91.1471 70.9374C94.1783 70.8306 97.1954 70.8134 100.227 70.8809C102.865 78.2588 103.642 85.7058 102.657 93.4762C102.238 93.619 101.619 93.6959 100.775 93.787C99.9284 93.878 98.9567 93.9487 98.0777 93.8717C96.7936 93.7587 94.8722 93.6347 94.0999 92.2769C93.1674 90.638 93.293 88.6036 93.2757 86.7779C93.2506 81.3622 92.5756 76.1584 91.1471 70.9358V70.9374ZM98.0588 66.3081C98.9614 66.3348 99.4088 66.3536 100.296 66.3992C101.559 66.4651 102.286 66.0444 102.387 65.1983C102.486 64.3522 101.848 63.134 100.435 61.7354C99.1938 60.5062 97.7292 59.5078 96.1515 58.7575C94.7748 58.1029 93.5818 57.7419 92.494 57.6194C92.1062 57.5755 91.7923 57.5503 91.5537 57.5394C91.3151 57.5284 91.0922 57.5378 90.8881 57.5692C93.9303 59.9505 96.1201 63.0084 98.0604 66.3097L98.0588 66.3081Z" fill="#9D123F"></path><path d="M140.554 68.3607C144.491 73.5347 147.226 80.4668 146.362 87.165C145.827 91.3139 144.389 95.8176 141.086 98.425C138.979 100.089 136.152 101.114 133.347 100.423C130.718 99.7766 128.365 97.345 126.869 95.2588C124.591 92.08 123.068 88.1807 121.509 84.5231C119.28 79.2942 116.956 73.9554 113.727 69.4219C111.19 65.8585 107.824 61.9278 103.655 60.369C101.865 59.7003 99.7603 59.3188 98.0994 58.2906C97.2062 57.7381 97.2942 57.2452 98.798 56.6361C101.394 55.5859 104.298 55.1935 107.055 54.9062C112.251 54.3662 117.582 54.9172 122.622 56.3174C129.735 58.2938 136.184 62.6169 140.552 68.3591L140.554 68.3607ZM133.151 68.5036C129.982 64.3876 125.559 60.9388 120.563 59.1901C118.164 58.3503 115.23 57.4257 112.683 58.0457C111.319 58.3785 111.595 59.1775 113.241 60.7975C116.124 63.6326 119.144 66.3655 121.575 69.5255C124.376 73.1642 126.49 77.5219 129.085 81.3396C130.316 83.1511 132.029 85.8825 134.509 86.1258C137.078 86.377 137.774 83.6111 138.027 81.8168C138.664 77.277 135.939 72.125 133.152 68.5051L133.151 68.5036Z" fill="#9D123F"></path><path d="M92.8862 45.7244C92.8862 45.7244 92.8689 45.704 92.8344 45.6663C92.7999 45.6286 92.7481 45.5737 92.6821 45.5046C92.6146 45.4355 92.5314 45.3508 92.4341 45.255C92.3854 45.2064 92.3336 45.1561 92.2771 45.1027C92.219 45.0509 92.1578 44.9944 92.0935 44.9364C91.9647 44.8218 91.8203 44.6962 91.6649 44.5675C91.5048 44.4403 91.3321 44.3053 91.1485 44.1703C91.1029 44.1373 91.0558 44.1028 91.0087 44.0683C90.9601 44.0353 90.9114 44.0008 90.8612 43.9662C90.7607 43.8987 90.6587 43.8312 90.5535 43.7622C90.4483 43.6947 90.3416 43.6256 90.2286 43.5597C90.1155 43.4937 90.001 43.4278 89.8832 43.3634C88.9461 42.847 87.8252 42.4137 86.6228 42.2316C86.4721 42.2097 86.3214 42.1892 86.1691 42.1751C86.0169 42.1594 85.8646 42.1484 85.7092 42.1422C85.3984 42.1296 85.0876 42.1327 84.7752 42.1547C84.4597 42.1783 84.1426 42.2191 83.827 42.2803C83.6685 42.3101 83.5115 42.3462 83.353 42.3855C83.1944 42.4263 83.0359 42.4718 82.8773 42.5236C82.8632 42.5283 82.8553 42.5299 82.8553 42.5299L82.8773 42.5236C82.9558 42.5001 83.2525 42.4137 83.725 42.3682C83.962 42.3447 84.2462 42.329 84.5695 42.3384C84.8898 42.3494 85.2571 42.3808 85.6574 42.4545C85.8568 42.4922 86.0655 42.5393 86.2837 42.5974C86.5019 42.6555 86.7233 42.7293 86.9572 42.8124C87.1911 42.8956 87.4281 42.9977 87.673 43.1138C87.7954 43.1719 87.9226 43.2331 88.045 43.3006C88.169 43.3681 88.2946 43.4388 88.4233 43.5141C88.6823 43.6633 88.9351 43.8359 89.2004 44.0259C89.3338 44.1201 89.461 44.2221 89.5944 44.3288C89.7247 44.4356 89.8612 44.5455 89.9915 44.6632C90.5205 45.1326 91.0511 45.6946 91.566 46.3633C91.442 46.4104 91.3164 46.4543 91.1893 46.4936C90.3761 46.7526 89.508 46.8907 88.6321 46.919C88.1957 46.9315 87.7499 46.9221 87.3072 46.8844C87.0843 46.8656 86.8677 46.8389 86.6432 46.8091C86.4203 46.7793 86.199 46.7416 85.9808 46.6976C84.4628 46.3962 83.1677 45.5486 81.9339 44.715C81.3955 44.3461 80.7691 44.0934 80.1679 43.9882C79.5682 43.8877 78.9529 43.8658 78.3611 43.949C79.3045 42.8941 80.2056 42.0495 81.1003 41.4263C81.5477 41.114 81.992 40.8565 82.4362 40.6509C82.8805 40.4437 83.3169 40.2945 83.7564 40.1909C83.9746 40.1391 84.1944 40.0983 84.4094 40.0716C84.6245 40.0449 84.8395 40.0292 85.053 40.0245C85.4831 40.0135 85.8976 40.0528 86.3104 40.125C87.1267 40.2773 87.9116 40.5787 88.6133 40.9852C90.0292 41.7905 91.1406 42.9836 91.8454 43.9725C91.9333 44.0965 92.0181 44.2158 92.095 44.3304C92.172 44.4466 92.241 44.558 92.307 44.6632C92.3729 44.7684 92.4325 44.8689 92.4875 44.9615C92.5424 45.0541 92.5879 45.142 92.6319 45.2205C92.7167 45.379 92.781 45.5046 92.8234 45.5909C92.8674 45.6773 92.8878 45.7244 92.8878 45.7244H92.8862Z" fill="#9D123F"></path><path d="M93.7585 47.4602C93.7585 47.4602 93.7711 47.4366 93.7994 47.3942C93.8276 47.3519 93.8684 47.2891 93.9218 47.2074C93.9752 47.1274 94.0427 47.03 94.1227 46.9186C94.162 46.8621 94.2044 46.804 94.2515 46.7412C94.2985 46.68 94.3504 46.6141 94.4037 46.5466C94.5105 46.41 94.6298 46.264 94.7616 46.1086C94.8966 45.9548 95.0442 45.7931 95.2012 45.6282C95.2404 45.5874 95.2812 45.545 95.322 45.5027C95.3644 45.4618 95.4068 45.4195 95.4492 45.3771C95.5355 45.2923 95.625 45.2091 95.7176 45.1228C95.8102 45.038 95.9029 44.9517 96.0018 44.8685C96.1006 44.7837 96.2027 44.7005 96.3079 44.6157C97.143 43.9454 98.1696 43.3238 99.3234 42.9361C99.4678 42.8874 99.6138 42.8419 99.7614 42.8011C99.9074 42.7587 100.056 42.721 100.209 42.6896C100.512 42.6237 100.819 42.5735 101.132 42.5405C101.447 42.5091 101.766 42.495 102.088 42.4997C102.248 42.5028 102.41 42.5091 102.573 42.5217C102.736 42.5342 102.901 42.5531 103.066 42.575C103.08 42.5766 103.088 42.5782 103.088 42.5782L103.066 42.575C102.984 42.5656 102.676 42.5326 102.204 42.5688C101.967 42.586 101.684 42.6206 101.367 42.6865C101.053 42.754 100.697 42.8482 100.315 42.9895C100.126 43.0601 99.9278 43.1433 99.7237 43.2375C99.518 43.3317 99.314 43.4431 99.0973 43.5656C98.8807 43.688 98.6657 43.8293 98.4443 43.9863C98.3344 44.0647 98.2198 44.1464 98.11 44.2343C98.0001 44.3222 97.8871 44.4132 97.774 44.5106C97.5448 44.7021 97.3251 44.9171 97.0975 45.1495C96.9829 45.2656 96.8745 45.3881 96.7615 45.5152C96.6516 45.6424 96.5355 45.7742 96.4272 45.9139C95.9861 46.4681 95.5622 47.1132 95.1713 47.8605C95.3016 47.884 95.4335 47.906 95.5654 47.9248C96.4115 48.0394 97.2905 48.0237 98.1586 47.9013C98.5903 47.8385 99.0283 47.7506 99.4584 47.6376C99.6734 47.581 99.8838 47.5167 100.099 47.4492C100.312 47.3801 100.524 47.3063 100.733 47.2247C102.176 46.6643 103.306 45.6063 104.376 44.5702C104.843 44.115 105.416 43.7571 105.99 43.5483C106.563 43.3458 107.166 43.2171 107.762 43.1967C106.651 42.3223 105.617 41.6457 104.628 41.1874C104.133 40.9566 103.651 40.7808 103.179 40.6536C102.705 40.5265 102.249 40.4558 101.799 40.4292C101.576 40.4166 101.352 40.4135 101.135 40.4244C100.918 40.4354 100.705 40.4574 100.493 40.4904C100.067 40.5532 99.6656 40.6646 99.2716 40.8075C98.4946 41.0979 97.774 41.5311 97.1524 42.0523C95.8966 43.0899 95.0081 44.4588 94.4854 45.5545C94.4194 45.691 94.3582 45.8245 94.3001 45.95C94.2436 46.0772 94.1949 46.1996 94.1494 46.3142C94.1039 46.4288 94.0615 46.5387 94.0238 46.6392C93.9862 46.7396 93.9548 46.8338 93.9265 46.9202C93.87 47.0897 93.8292 47.2263 93.8009 47.3189C93.7727 47.4115 93.7617 47.4617 93.7617 47.4617L93.7585 47.4602Z" fill="#9D123F"></path><path d="M20.5881 87.4959C20.4328 87.888 20.2694 88.2557 20.0733 88.5907L16.9522 88.3292C17.1647 88.0923 17.3608 87.8227 17.5487 87.5204C17.7366 87.2099 17.851 86.8504 17.8837 86.4419C17.949 85.7065 17.7529 85.1264 17.3117 84.7016C16.8705 84.2767 16.1924 84.0234 15.2855 83.9417C14.6564 83.8845 14.1416 83.9254 13.7331 84.0561C13.3328 84.1868 13.0223 84.3993 12.8017 84.6934C12.5811 84.9957 12.4585 85.3797 12.4177 85.8454C12.3932 86.1232 12.4095 86.3847 12.4504 86.6216C12.4994 86.8586 12.5566 87.0628 12.6301 87.2344L19.1828 87.79L18.8641 91.5075L11.7232 90.9029C11.331 90.8702 11.0042 90.7558 10.7591 90.5679C10.514 90.38 10.3015 90.1267 10.1381 89.8163C9.88484 89.3342 9.69693 88.7296 9.57437 87.9943C9.45181 87.2589 9.4273 86.4582 9.50084 85.6003C9.59888 84.4156 9.88484 83.3861 10.3506 82.5283C10.8163 81.6704 11.4781 81.0249 12.3523 80.5919C13.2265 80.167 14.3132 80.0036 15.6123 80.118C16.8624 80.2242 17.8837 80.551 18.6925 81.1066C19.5014 81.6622 20.0897 82.373 20.4573 83.2391C20.825 84.1051 20.9639 85.0611 20.874 86.1232C20.8332 86.6543 20.7351 87.1118 20.5799 87.504L20.5881 87.4959ZM24.3138 88.1985C24.3465 88.3619 24.371 88.5989 24.3873 88.9012C24.4036 89.2035 24.4036 89.5303 24.371 89.8816C24.3056 90.6006 24.1422 91.1153 23.8644 91.4176C23.5866 91.7281 23.1127 91.8507 22.4346 91.7935L17.9735 91.4176L18.2922 87.6838L24.3138 88.1903V88.1985Z" fill="#9D123F"></path><path d="M14.8934 73.892L17.3445 74.464L16.4866 78.1161L13.4799 77.4135C13.0632 77.3154 12.7282 77.1194 12.4749 76.8252C12.2217 76.5311 12.0174 76.1798 11.8703 75.7631C11.6906 75.1911 11.5925 74.5539 11.5925 73.843C11.5925 73.1322 11.6742 72.4214 11.8458 71.7024C12.2135 70.1418 12.9488 69.4882 14.0518 69.7497C14.3133 69.8068 14.542 69.9049 14.7463 70.0274C14.9506 70.15 15.1221 70.2807 15.2529 70.4196C15.1875 70.5585 15.1303 70.7219 15.065 70.918C14.9996 71.1141 14.9424 71.3347 14.8852 71.5798C14.8035 71.9393 14.7545 72.3315 14.7463 72.7482C14.7463 73.1731 14.7872 73.5489 14.8852 73.892H14.8934ZM15.7349 77.9446L16.5928 74.2924L22.2386 75.616C22.2386 75.7876 22.2386 76.0163 22.2059 76.3268C22.1814 76.6291 22.1242 76.9559 22.0506 77.2991C21.8872 78.0018 21.6421 78.4838 21.3235 78.7534C21.0048 79.0149 20.5146 79.0721 19.861 78.9168L15.7349 77.9527V77.9446Z" fill="#9D123F"></path><path d="M11.3556 62.7067L9.90942 59.7654C10.179 59.0546 10.5385 58.5725 10.9797 58.3356C11.4209 58.0986 11.8295 58.0496 12.2135 58.1967C12.5321 58.3192 12.7691 58.4908 12.9325 58.7032C13.0959 58.9157 13.2429 59.2507 13.3982 59.6837L14.2561 62.2574C14.0273 62.862 13.7087 63.2623 13.3001 63.4584C12.8916 63.6545 12.524 63.6954 12.1971 63.5646C12.0337 63.4993 11.8867 63.4094 11.7559 63.295C11.6252 63.1806 11.4945 62.9764 11.3638 62.7067H11.3556ZM14.542 63.1479C15.114 61.6528 15.882 60.5661 16.8379 59.9043C17.7939 59.2425 18.9132 59.1526 20.2041 59.651L24.8204 61.4158C25.1799 61.5547 25.4332 61.7672 25.5803 62.0531C25.7273 62.3391 25.8335 62.6496 25.8989 62.9845C25.9888 63.5238 25.9888 64.1366 25.8826 64.8229C25.7763 65.5092 25.5721 66.2527 25.2616 67.0616C24.706 68.4996 23.987 69.5535 23.0965 70.2153C22.2059 70.8771 21.2009 70.9915 20.0734 70.5585C19.1256 70.199 18.5047 69.6352 18.2187 68.8672C17.9328 68.0992 17.9491 67.1106 18.2677 65.9014L19.0113 63.0908L18.8642 63.0336C18.4638 62.8783 18.1125 62.9437 17.8102 63.2297C17.5079 63.5156 17.2219 63.9895 16.9768 64.6431C16.7807 65.1497 16.6418 65.6808 16.5601 66.22C16.4784 66.7593 16.4457 67.2658 16.4539 67.7234C16.2578 67.8541 16.0127 67.9358 15.7104 67.9603C15.4081 67.9848 15.1221 67.944 14.8443 67.8459C14.1825 67.5926 13.8557 67.0616 13.8476 66.2609C13.8476 65.8033 13.9211 65.2886 14.06 64.7248C14.1989 64.1611 14.3623 63.63 14.542 63.1479ZM22.7043 66.0811C22.7941 65.8442 22.8677 65.5827 22.9249 65.2804C22.9821 64.9781 22.9984 64.7493 22.9657 64.5778L21.3153 63.9487L20.8741 65.4765C20.7515 65.8687 20.7189 66.22 20.7597 66.5223C20.8006 66.8246 20.964 67.0207 21.2336 67.1269C21.5114 67.2332 21.7728 67.2086 22.0261 67.0616C22.2794 66.9145 22.5 66.5877 22.6961 66.0811H22.7043Z" fill="#9D123F"></path><path d="M24.7878 54.7326L22.9984 57.9762L16.0618 54.1606C16.1026 53.9972 16.168 53.7685 16.2742 53.4825C16.3722 53.1965 16.503 52.9024 16.6664 52.6001C17.0095 51.971 17.3772 51.5706 17.753 51.4072C18.1289 51.2438 18.6109 51.3255 19.2074 51.6523L24.7959 54.7244L24.7878 54.7326ZM22.1405 54.7407L19.6241 53.3599L21.634 49.7078C21.8056 49.7078 22.018 49.7241 22.2794 49.7731C22.5409 49.8222 22.7942 49.9202 23.0556 50.0591C23.505 50.3042 23.7746 50.5902 23.8645 50.8925C23.9544 51.2029 23.9054 51.5216 23.7256 51.8566L22.1405 54.7407ZM22.5327 57.7229L24.322 54.4793L26.1931 55.5088C26.5117 55.6885 26.8058 55.713 27.0755 55.5741C27.3369 55.4434 27.582 55.1819 27.7945 54.7979C27.9007 54.6018 27.9987 54.3976 28.0723 54.1688C28.154 53.9482 28.2112 53.7439 28.2438 53.556C28.4399 53.5152 28.6442 53.4988 28.873 53.5152C29.1017 53.5315 29.3387 53.605 29.5838 53.7439C30.0577 54.0054 30.36 54.4057 30.4662 54.945C30.5806 55.4842 30.3845 56.2196 29.8697 57.151C29.2488 58.2867 28.5053 59.0139 27.6556 59.3407C26.8058 59.6675 25.8009 59.5122 24.6407 58.875L22.5327 57.7148V57.7229Z" fill="#9D123F"></path><path d="M20.4572 45.6061C19.9997 45.2875 19.7137 44.8626 19.6157 44.3315C19.5176 43.8005 19.6402 43.2857 19.9834 42.7873C20.3265 42.2889 20.7595 41.9948 21.2906 41.8968C21.8217 41.7987 22.3201 41.9049 22.7776 42.2236C23.227 42.534 23.5048 42.9507 23.611 43.49C23.7172 44.0292 23.5947 44.544 23.2597 45.0424C22.9247 45.5408 22.4753 45.8349 21.9443 45.9329C21.405 46.031 20.9148 45.9248 20.4654 45.6143L20.4572 45.6061ZM30.7928 47.9429L28.6685 51.0313L23.1371 47.232C23.1943 47.0768 23.2842 46.8562 23.4231 46.5866C23.5538 46.3169 23.7254 46.031 23.9215 45.7368C24.3382 45.1322 24.7385 44.7646 25.1225 44.6338C25.5065 44.5031 25.9804 44.6338 26.5524 45.026L30.7928 47.9347V47.9429ZM27.0508 49.9201L29.1751 46.8317L33.9547 50.1162C33.8976 50.2714 33.8077 50.492 33.6688 50.7616C33.5299 51.0313 33.3665 51.3172 33.1704 51.6114C32.7619 52.2078 32.3615 52.5673 31.9693 52.698C31.5772 52.8288 31.1033 52.698 30.5395 52.3222L27.0508 49.9283V49.9201Z" fill="#9D123F"></path><path d="M32.9254 38.596C32.4434 39.1516 32.2064 39.7889 32.2064 40.4997C32.2064 41.2105 32.5578 41.8723 33.2441 42.4687C33.9304 43.0652 34.6167 43.3103 35.2867 43.2123C35.9567 43.1142 36.5449 42.771 37.0433 42.191C37.3293 41.856 37.5499 41.521 37.6888 41.1942C37.8277 40.8673 37.9339 40.565 37.9993 40.3118C38.3343 40.2382 38.6447 40.2219 38.9143 40.2709C39.184 40.3199 39.4454 40.4507 39.6987 40.6794C40.1399 41.0634 40.3115 41.5945 40.1971 42.2645C40.0827 42.9345 39.6742 43.678 38.9715 44.4868C38.1708 45.4101 37.313 46.0719 36.3979 46.4804C35.4828 46.8889 34.5432 46.9951 33.5872 46.8154C32.6231 46.6356 31.6835 46.1454 30.7603 45.3447C29.7798 44.495 29.1507 43.5881 28.8648 42.624C28.5788 41.6599 28.5788 40.7039 28.8484 39.748C29.118 38.7921 29.6001 37.9178 30.2946 37.1171C30.9809 36.3246 31.6509 35.8425 32.3208 35.6465C32.9908 35.4504 33.5546 35.5566 34.0121 35.9569C34.2245 36.1367 34.3798 36.3573 34.4778 36.6187C34.5759 36.8802 34.6331 37.1335 34.6494 37.3786C34.3961 37.493 34.1102 37.6482 33.7997 37.8361C33.4892 38.024 33.1951 38.2855 32.9254 38.596Z" fill="#9D123F"></path><path d="M46.5619 29.7066C47.3299 30.6053 47.8038 31.5286 47.9917 32.4845C48.1796 33.4404 48.0979 34.38 47.7466 35.287C47.3953 36.202 46.7661 37.0354 45.8756 37.7953C44.9932 38.547 44.0699 39.0372 43.114 39.2496C42.158 39.4702 41.2184 39.4048 40.3034 39.0699C39.3883 38.7349 38.5386 38.1058 37.7705 37.1988C37.0189 36.3164 36.545 35.3932 36.3652 34.4291C36.1855 33.465 36.2672 32.5254 36.6267 31.6103C36.9862 30.6952 37.599 29.8618 38.4732 29.1183C39.3556 28.3666 40.2788 27.8846 41.2348 27.6885C42.1907 27.4924 43.1385 27.5578 44.0617 27.8927C44.985 28.2277 45.8184 28.8323 46.5619 29.6984V29.7066ZM40.3769 31.357C39.9193 31.7492 39.7151 32.2394 39.7641 32.8277C39.8131 33.4159 40.1236 34.0451 40.6955 34.715C41.2838 35.4095 41.8639 35.8262 42.4277 35.9651C42.9914 36.104 43.5062 35.9651 43.98 35.5729C44.4539 35.1726 44.6582 34.6824 44.6092 34.0941C44.552 33.514 44.2415 32.8767 43.6532 32.1985C43.0895 31.5367 42.5175 31.1364 41.9374 30.9893C41.3573 30.8423 40.8426 30.9648 40.3851 31.357H40.3769Z" fill="#9D123F"></path><path d="M59.373 25.0494L56.4316 19.371L59.7406 17.6552L62.9271 23.8075C63.0987 24.1343 63.1722 24.4529 63.1559 24.7552C63.1395 25.0657 63.0333 25.3844 62.8209 25.7194C62.5676 26.1606 62.1917 26.6344 61.6933 27.1328C61.195 27.6312 60.5577 28.0806 59.7815 28.481C58.6458 29.0692 57.5755 29.3879 56.5705 29.4287C55.5656 29.4696 54.6505 29.2245 53.8334 28.7016C53.0164 28.1705 52.3219 27.3616 51.75 26.2668C51.1535 25.1147 50.8839 24.0526 50.9411 23.0721C50.9983 22.0917 51.3088 21.2175 51.8807 20.4494C52.4526 19.6814 53.2043 19.0523 54.1521 18.5703C54.6096 18.3333 55.0345 18.1699 55.4185 18.0882C55.8025 18.0065 56.1375 17.9656 56.4234 17.9656L57.8206 20.67C57.5836 20.6292 57.2977 20.6129 56.9709 20.6374C56.644 20.6619 56.3091 20.7599 55.9659 20.9315C55.5247 21.1603 55.1897 21.4544 54.9609 21.7976C54.7322 22.1407 54.6341 22.5492 54.6505 22.9986C54.6668 23.448 54.822 23.9627 55.1162 24.5183C55.541 25.3435 56.0394 25.8583 56.595 26.0625C57.1588 26.2668 57.7552 26.2014 58.4007 25.8746C58.6376 25.752 58.8337 25.6131 59.0053 25.4497C59.1687 25.2863 59.2912 25.1556 59.373 25.0494ZM60.0674 18.2843L56.7339 20.0082L54.0622 14.8527C54.1847 14.7383 54.3727 14.5913 54.6178 14.4115C54.8629 14.2318 55.1489 14.0602 55.4593 13.905C56.113 13.57 56.6359 13.4311 57.0362 13.4964C57.4366 13.5618 57.7961 13.905 58.1147 14.5177L60.0593 18.2761L60.0674 18.2843Z" fill="#9D123F"></path><path d="M66.228 21.193L65.3456 18.8808L69.9374 16.5195C69.823 16.2499 69.586 16.013 69.2429 15.8169C68.8997 15.6208 68.4667 15.6044 67.9356 15.776C67.3719 15.9558 66.9715 16.2908 66.7182 16.7728C66.4649 17.2549 66.4323 17.835 66.6202 18.5213L67.3147 20.2452C67.6578 20.8417 68.1235 21.193 68.7036 21.2829C69.2837 21.3727 69.8802 21.3237 70.493 21.1195C71.0812 20.9315 71.6123 20.6701 72.0944 20.3433C72.5764 20.0165 72.9522 19.7142 73.2137 19.4282C73.4833 19.4936 73.7366 19.6325 73.9735 19.8367C74.2105 20.041 74.3739 20.2779 74.4638 20.5639C74.6108 21.0214 74.5618 21.4626 74.3167 21.8711C74.0716 22.2797 73.6712 22.6555 73.1157 22.9905C72.5601 23.3255 71.8901 23.6196 71.1057 23.8729C70.0109 24.2242 68.9651 24.3386 67.9601 24.2079C66.9552 24.0772 66.0564 23.685 65.2802 23.0232C64.504 22.3614 63.9158 21.4054 63.5073 20.1635C63.2131 19.2403 63.0987 18.3906 63.1886 17.6225C63.2703 16.8545 63.4991 16.1764 63.8668 15.5963C64.2344 15.0162 64.7001 14.5178 65.2557 14.1174C65.8113 13.7171 66.4241 13.4066 67.0777 13.1942C68.0745 12.8755 68.9978 12.7857 69.8638 12.9327C70.7299 13.0798 71.4816 13.4148 72.1107 13.9459C72.748 14.4769 73.2055 15.1714 73.4833 16.0456C73.6386 16.5195 73.6222 16.928 73.4343 17.263C73.2464 17.598 72.9277 17.884 72.4784 18.1046L66.228 21.2093V21.193Z" fill="#9D123F"></path><path d="M84.121 15.9476L80.3872 16.2744L79.8643 10.3835C80.0195 10.3264 80.2483 10.261 80.5424 10.1875C80.8365 10.1139 81.1634 10.0649 81.5147 10.0322C82.25 9.96686 82.7811 10.0404 83.1324 10.2528C83.4756 10.4653 83.6798 10.9146 83.737 11.6091L84.121 15.9394V15.9476ZM80.428 16.781L80.2973 15.3266L84.0312 14.9998L84.1619 16.4542C84.2109 17.0424 84.3988 17.4509 84.7257 17.6879C85.0525 17.9248 85.4855 18.0229 86.0247 17.9739C86.3597 17.9412 86.6375 17.8921 86.85 17.8104C87.0624 17.7287 87.2176 17.6634 87.3157 17.5898L87.0624 14.7302L90.7963 14.4034L91.0986 17.8104C91.1312 18.1781 91.0822 18.5049 90.9515 18.7909C90.8208 19.0769 90.6083 19.3301 90.3224 19.5426C89.8403 19.9102 89.2521 20.2125 88.5494 20.4413C87.8467 20.6701 87.0869 20.8253 86.2535 20.8989C85.1995 20.9887 84.2436 20.9152 83.402 20.6783C82.5605 20.4413 81.866 20.0001 81.3513 19.3628C80.8284 18.7337 80.5179 17.8676 80.428 16.7891V16.781ZM90.8861 15.343L87.1523 15.6698L86.6293 9.77894C86.7846 9.72175 87.0134 9.65638 87.3075 9.58285C87.6016 9.50931 87.9284 9.46029 88.2798 9.42761C89.0151 9.36225 89.5462 9.43578 89.8975 9.64821C90.2488 9.86064 90.4449 10.31 90.5021 11.0045L90.8861 15.3348V15.343Z" fill="#9D123F"></path><path d="M102.309 17.5572C102.235 18.6766 101.753 19.5181 100.871 20.09C99.9881 20.662 98.7381 20.8989 97.1203 20.7927C95.8703 20.711 94.8653 20.4659 94.0891 20.0492C93.3129 19.6407 92.9534 19.0524 93.0025 18.2844C93.027 17.9331 93.1168 17.6389 93.2802 17.3938C93.4437 17.1569 93.6316 16.9689 93.8522 16.8382C94.2607 17.0997 94.7346 17.3448 95.2738 17.5654C95.8131 17.786 96.4422 17.9167 97.1612 17.9657C98.1008 18.0311 98.5828 17.8187 98.6155 17.3284C98.6319 17.1242 98.5502 16.9526 98.3867 16.83C98.2152 16.6993 97.9292 16.5849 97.5289 16.4869L96.8752 16.3153C95.6333 15.9803 94.7101 15.5228 94.1136 14.9427C93.5172 14.3626 93.2557 13.5782 93.3211 12.5896C93.3946 11.4866 93.9012 10.6614 94.8326 10.1058C95.7641 9.55022 96.9569 9.32145 98.3949 9.41132C99.1139 9.46035 99.7675 9.57473 100.348 9.75448C100.936 9.93423 101.393 10.1875 101.72 10.5062C102.055 10.833 102.202 11.2252 102.17 11.699C102.145 12.0259 102.063 12.3036 101.925 12.5488C101.786 12.7939 101.614 12.9818 101.41 13.137C101.255 13.0226 101.009 12.9001 100.674 12.7775C100.339 12.655 99.9718 12.5406 99.5796 12.4425C99.1875 12.3445 98.8361 12.2791 98.5338 12.2628C98.0518 12.2301 97.6759 12.2628 97.3981 12.3527C97.1285 12.4425 96.9814 12.606 96.9651 12.8429C96.9569 13.0063 97.0223 13.1452 97.1612 13.2514C97.3001 13.3658 97.5697 13.4802 97.9782 13.5946L98.6482 13.7907C100.037 14.2073 101.009 14.7139 101.565 15.3185C102.121 15.9231 102.374 16.6748 102.309 17.5654V17.5572Z" fill="#9D123F"></path><path d="M110.266 11.1188C111.835 11.4702 113.012 12.0666 113.812 12.9163C114.613 13.766 114.858 14.8609 114.556 16.2172L113.477 21.0377C113.396 21.4135 113.224 21.6913 112.963 21.8874C112.701 22.0835 112.407 22.2306 112.08 22.3368C111.557 22.5084 110.953 22.5901 110.258 22.5901C109.564 22.5901 108.796 22.492 107.946 22.3041C106.443 21.9691 105.291 21.4054 104.514 20.621C103.73 19.8366 103.469 18.8562 103.738 17.6797C103.959 16.691 104.425 15.9966 105.144 15.5962C105.863 15.1959 106.843 15.0733 108.085 15.2122L110.969 15.539L111.002 15.3919C111.092 14.9753 110.977 14.6403 110.65 14.3788C110.324 14.1174 109.817 13.9131 109.131 13.7579C108.6 13.6353 108.06 13.5781 107.513 13.5781C106.966 13.5781 106.459 13.6108 106.01 13.6925C105.854 13.5209 105.74 13.2922 105.667 12.998C105.593 12.7039 105.593 12.4097 105.658 12.1238C105.814 11.4375 106.287 11.029 107.08 10.9064C107.529 10.841 108.052 10.8329 108.632 10.8901C109.212 10.9472 109.76 11.029 110.258 11.1433L110.266 11.1188ZM108.551 19.6242C108.796 19.6814 109.065 19.7141 109.376 19.7304C109.686 19.7468 109.915 19.7304 110.079 19.6732L110.463 17.9493L108.886 17.7368C108.477 17.6797 108.126 17.6878 107.84 17.7777C107.546 17.8594 107.374 18.0473 107.309 18.3333C107.243 18.6193 107.309 18.8807 107.489 19.1095C107.668 19.3382 108.028 19.5098 108.559 19.6324L108.551 19.6242Z" fill="#9D123F"></path><path d="M116.786 18.2272L120.3 19.5427L118.257 24.976C118.094 24.9596 117.857 24.9188 117.562 24.8534C117.26 24.7881 116.95 24.6982 116.623 24.5675C115.945 24.3142 115.504 24.0119 115.275 23.6605C115.046 23.3092 115.062 22.819 115.299 22.1817L116.786 18.2191V18.2272ZM120.904 17.9167L120.022 20.2698L116.509 18.9544L117.595 16.0621C117.742 15.6617 117.979 15.3512 118.306 15.1388C118.633 14.9264 119.009 14.7711 119.434 14.6813C120.022 14.5751 120.667 14.5669 121.378 14.6568C122.081 14.7466 122.775 14.9264 123.47 15.1797C124.973 15.7434 125.52 16.5523 125.12 17.6144C125.03 17.8596 124.908 18.0802 124.761 18.2681C124.614 18.456 124.458 18.6112 124.303 18.7256C124.172 18.6439 124.017 18.5622 123.829 18.4805C123.641 18.3988 123.429 18.3089 123.2 18.2191C122.857 18.0883 122.473 17.9903 122.056 17.9331C121.64 17.8677 121.256 17.8677 120.904 17.9331V17.9167Z" fill="#9D123F"></path><path d="M123.135 28.8569C122.448 29.2164 121.754 29.2327 121.06 28.9059C120.471 28.6281 120.055 28.2278 119.801 27.7049C120.259 27.2555 120.7 26.7735 121.125 26.2669C121.55 25.7603 121.95 25.2619 122.334 24.7635C122.71 24.2651 123.053 23.8076 123.355 23.3746C123.641 23.3582 123.96 23.3909 124.32 23.4481C124.679 23.5053 125.022 23.6197 125.341 23.7667C125.749 23.9628 126.068 24.2243 126.297 24.5593C126.517 24.8943 126.517 25.3028 126.297 25.7767C126.125 26.1362 125.864 26.5202 125.496 26.9287C125.128 27.3372 124.744 27.713 124.32 28.0562C123.895 28.3994 123.502 28.669 123.135 28.8569Z" fill="#9D123F"></path><path d="M133.356 25.9073L136.428 27.9745L135.235 29.7474C135.031 30.0497 134.982 30.3439 135.088 30.6217C135.194 30.8995 135.431 31.1609 135.799 31.406C135.979 31.5286 136.183 31.643 136.395 31.741C136.608 31.8391 136.812 31.9126 136.984 31.9698C137.008 32.1659 137.008 32.3783 136.976 32.5989C136.943 32.8277 136.845 33.0483 136.69 33.2852C136.387 33.7346 135.962 33.996 135.407 34.0614C134.859 34.1268 134.149 33.8653 133.266 33.277C132.196 32.5581 131.534 31.7574 131.281 30.8749C131.027 30.0007 131.273 29.0121 132.008 27.9091L133.348 25.9155L133.356 25.9073ZM136.134 28.4157L133.062 26.3485L137.482 19.7795C137.637 19.8367 137.858 19.9266 138.136 20.0492C138.414 20.1717 138.691 20.3351 138.977 20.523C139.574 20.9234 139.941 21.3237 140.064 21.7078C140.195 22.0918 140.064 22.5738 139.688 23.1294L136.134 28.4238V28.4157ZM136.363 25.7766L137.964 23.399L141.428 25.7276C141.42 25.8992 141.379 26.1116 141.306 26.3649C141.232 26.6182 141.118 26.8633 140.955 27.1084C140.669 27.5333 140.366 27.7784 140.048 27.8437C139.729 27.9091 139.41 27.8274 139.1 27.615L136.371 25.7848L136.363 25.7766Z" fill="#9D123F"></path><path d="M140.677 33.7511L142.221 31.8147L146.584 34.5763C146.755 34.3393 146.845 34.0207 146.845 33.6203C146.845 33.2282 146.633 32.8441 146.216 32.4683C145.775 32.0761 145.285 31.8964 144.737 31.9209C144.19 31.9454 143.675 32.215 143.185 32.7216L142.049 34.1923C141.706 34.7969 141.641 35.3688 141.861 35.9162C142.074 36.4636 142.425 36.9457 142.907 37.3787C143.365 37.7872 143.863 38.1222 144.386 38.3673C144.909 38.6206 145.366 38.784 145.742 38.8657C145.816 39.1354 145.832 39.4213 145.775 39.7236C145.718 40.0259 145.595 40.2874 145.399 40.508C145.072 40.8675 144.672 41.0472 144.198 41.0472C143.716 41.0472 143.193 40.8838 142.621 40.5733C142.049 40.2629 141.461 39.8298 140.848 39.2824C139.99 38.5226 139.361 37.6729 138.969 36.7333C138.569 35.8018 138.462 34.8296 138.634 33.8246C138.814 32.8196 139.337 31.831 140.203 30.8506C140.848 30.1234 141.526 29.6087 142.229 29.29C142.932 28.9714 143.634 28.8243 144.321 28.8488C145.007 28.8733 145.669 29.0204 146.298 29.2982C146.927 29.576 147.499 29.9437 148.014 30.4012C148.79 31.0957 149.337 31.8555 149.648 32.6726C149.958 33.4896 150.048 34.3148 149.917 35.1237C149.778 35.9407 149.411 36.6842 148.806 37.3705C148.471 37.7464 148.112 37.9343 147.728 37.9506C147.344 37.9588 146.935 37.8281 146.518 37.5503L140.677 33.7265V33.7511Z" fill="#9D123F"></path><path d="M153.635 48.0573C152.777 48.7681 151.829 49.0051 150.808 48.7599C149.778 48.5148 148.749 47.7632 147.719 46.5213C146.919 45.5572 146.404 44.6502 146.175 43.8087C145.938 42.959 146.118 42.2972 146.706 41.8069C146.976 41.5782 147.254 41.4474 147.54 41.3984C147.826 41.3494 148.087 41.3657 148.332 41.4229C148.422 41.8968 148.577 42.4115 148.782 42.9508C148.994 43.49 149.329 44.0375 149.787 44.593C150.391 45.3202 150.873 45.5245 151.249 45.214C151.404 45.0833 151.478 44.9117 151.453 44.6993C151.429 44.4868 151.314 44.2009 151.11 43.8332L150.791 43.2368C150.179 42.1011 149.876 41.1206 149.893 40.2872C149.909 39.4539 150.293 38.7185 151.053 38.0894C151.903 37.3868 152.85 37.1825 153.896 37.4766C154.942 37.7708 155.931 38.4734 156.846 39.5846C157.303 40.1402 157.671 40.6876 157.941 41.235C158.21 41.7824 158.349 42.289 158.341 42.7547C158.341 43.2204 158.153 43.6044 157.785 43.8986C157.532 44.1028 157.279 44.2417 157.001 44.3071C156.731 44.3724 156.47 44.3806 156.225 44.3398C156.2 44.1518 156.119 43.8904 155.98 43.5554C155.841 43.2204 155.669 42.8854 155.473 42.5259C155.277 42.1746 155.081 41.8805 154.885 41.6435C154.574 41.2677 154.297 41.0144 154.035 40.8837C153.782 40.753 153.561 40.7611 153.382 40.9082C153.259 41.0144 153.202 41.1533 153.218 41.3331C153.234 41.5128 153.341 41.7906 153.529 42.1583L153.847 42.7792C154.501 44.0701 154.795 45.1323 154.738 45.9493C154.681 46.7664 154.305 47.469 153.618 48.041L153.635 48.0573Z" fill="#9D123F"></path><path d="M156.838 48.1799L158.815 51.3092L157.009 52.4531C156.699 52.6492 156.535 52.8943 156.527 53.1884C156.511 53.4825 156.625 53.8175 156.862 54.1934C156.977 54.3813 157.115 54.561 157.271 54.7408C157.426 54.9205 157.581 55.0676 157.72 55.182C157.663 55.3699 157.581 55.566 157.459 55.7539C157.336 55.9418 157.156 56.1134 156.919 56.2605C156.462 56.5546 155.963 56.6118 155.44 56.4566C154.918 56.3013 154.362 55.7703 153.798 54.8715C153.104 53.7767 152.826 52.7799 152.948 51.873C153.071 50.9661 153.692 50.1654 154.811 49.4545L156.846 48.1718L156.838 48.1799ZM158.365 51.5952L156.388 48.4659L163.088 44.2336C163.211 44.348 163.374 44.5196 163.578 44.7484C163.782 44.9771 163.979 45.2304 164.158 45.5164C164.542 46.1292 164.714 46.6357 164.681 47.0443C164.64 47.4528 164.338 47.8368 163.766 48.1963L158.374 51.6033L158.365 51.5952ZM159.64 49.2748L162.067 47.7469L164.289 51.2684C164.215 51.4236 164.093 51.5952 163.921 51.7994C163.75 52.0037 163.546 52.1834 163.292 52.3387C162.859 52.6165 162.483 52.7145 162.165 52.641C161.846 52.5675 161.593 52.3714 161.389 52.0527L159.632 49.2748H159.64Z" fill="#9D123F"></path><path d="M168.186 57.7066C168.848 59.1691 169.077 60.4682 168.881 61.6202C168.685 62.764 167.958 63.6301 166.699 64.202L162.198 66.2446C161.846 66.3999 161.519 66.4326 161.209 66.3427C160.898 66.2446 160.604 66.1057 160.318 65.9096C159.869 65.5992 159.436 65.158 159.027 64.6106C158.611 64.055 158.227 63.385 157.867 62.5925C157.23 61.1872 156.985 59.9371 157.148 58.8422C157.304 57.7474 157.933 56.9467 159.027 56.4483C159.951 56.0316 160.784 55.9826 161.536 56.3176C162.279 56.6526 162.974 57.3552 163.611 58.4419L165.09 60.942L165.229 60.8767C165.621 60.6969 165.817 60.4028 165.833 59.9861C165.842 59.5694 165.703 59.0383 165.417 58.3929C165.188 57.8945 164.918 57.4288 164.583 56.9876C164.257 56.5464 163.922 56.1705 163.587 55.8519C163.627 55.6231 163.742 55.3943 163.938 55.1574C164.134 54.9205 164.363 54.7489 164.632 54.6263C165.278 54.3322 165.882 54.4711 166.463 55.0267C166.789 55.3453 167.1 55.762 167.41 56.2604C167.721 56.7588 167.974 57.2408 168.186 57.7147V57.7066ZM160.367 61.4486C160.474 61.6774 160.604 61.9143 160.776 62.1676C160.948 62.4209 161.103 62.5925 161.242 62.6905L162.851 61.9633L162.075 60.5744C161.879 60.2149 161.658 59.9371 161.413 59.7573C161.168 59.5776 160.915 59.5449 160.645 59.6675C160.376 59.79 160.204 59.9943 160.13 60.2721C160.057 60.558 160.13 60.942 160.359 61.4404L160.367 61.4486Z" fill="#9D123F"></path><path d="M165.482 74.5784L171.667 72.928L172.631 76.5311L165.939 78.3204C165.58 78.4185 165.261 78.4185 164.959 78.3449C164.665 78.2632 164.371 78.0835 164.085 77.8139C163.709 77.4707 163.325 77.005 162.941 76.4085C162.557 75.8121 162.255 75.0931 162.034 74.2516C161.707 73.0178 161.626 71.8985 161.805 70.9099C161.985 69.9212 162.418 69.0797 163.104 68.3934C163.791 67.7071 164.738 67.2005 165.931 66.8819C167.181 66.5469 168.276 66.5142 169.224 66.7756C170.172 67.0371 170.956 67.5355 171.585 68.2545C172.214 68.9816 172.664 69.8477 172.933 70.8772C173.064 71.3756 173.129 71.8249 173.129 72.2171C173.129 72.6093 173.097 72.9525 173.031 73.2221L170.09 74.0064C170.18 73.7858 170.253 73.5081 170.302 73.1812C170.352 72.8544 170.327 72.5113 170.229 72.1354C170.098 71.6534 169.886 71.2612 169.6 70.9671C169.306 70.6729 168.938 70.485 168.489 70.4033C168.039 70.3216 167.508 70.3706 166.904 70.534C166.005 70.771 165.4 71.1468 165.082 71.6452C164.763 72.1518 164.689 72.7482 164.877 73.4509C164.943 73.7041 165.041 73.9329 165.163 74.129C165.286 74.3251 165.392 74.4722 165.474 74.5702L165.482 74.5784ZM171.945 76.7108L170.981 73.0832L176.586 71.588C176.667 71.7351 176.773 71.9475 176.896 72.2253C177.019 72.5031 177.125 72.8136 177.215 73.1567C177.403 73.8676 177.419 74.4068 177.272 74.7826C177.125 75.1585 176.708 75.4363 176.046 75.616L171.953 76.7108H171.945Z" fill="#9D123F"></path><path d="M170.294 91.2216C169.126 91.3279 168.088 91.1808 167.198 90.7804C166.307 90.3801 165.588 89.7755 165.049 88.9584C164.51 88.1414 164.191 87.1528 164.085 85.9762C163.979 84.816 164.118 83.7866 164.493 82.8797C164.869 81.9727 165.458 81.2456 166.266 80.69C167.075 80.1344 168.072 79.8076 169.257 79.7014C170.417 79.5952 171.438 79.7504 172.329 80.1589C173.219 80.5674 173.938 81.1802 174.478 82.0054C175.017 82.8306 175.336 83.8111 175.442 84.9549C175.548 86.1151 175.401 87.1364 175.009 88.0434C174.617 88.9421 174.02 89.6693 173.211 90.233C172.402 90.7886 171.43 91.1236 170.286 91.2298L170.294 91.2216ZM172.517 85.2164C172.46 84.6118 172.182 84.1624 171.675 83.8601C171.169 83.5578 170.474 83.4516 169.6 83.5251C168.693 83.6068 168.015 83.8356 167.582 84.2196C167.141 84.5954 166.953 85.0938 167.01 85.7148C167.067 86.3357 167.345 86.7851 167.851 87.0792C168.358 87.3734 169.061 87.4796 169.951 87.3979C170.817 87.3244 171.471 87.0874 171.928 86.7034C172.386 86.3194 172.582 85.821 172.525 85.2246L172.517 85.2164Z" fill="#9D123F"></path><path d="M166.707 104.36L173.048 105.234L172.541 108.927L165.678 107.979C165.31 107.93 165.008 107.808 164.771 107.62C164.534 107.432 164.33 107.154 164.175 106.794C163.954 106.337 163.791 105.757 163.668 105.054C163.546 104.352 163.546 103.575 163.668 102.717C163.84 101.451 164.207 100.397 164.747 99.5473C165.294 98.6976 166.021 98.093 166.92 97.7335C167.819 97.374 168.889 97.2678 170.115 97.4393C171.397 97.6191 172.427 98.0113 173.195 98.6159C173.963 99.2287 174.502 99.9885 174.796 100.895C175.098 101.802 175.172 102.783 175.025 103.837C174.96 104.343 174.845 104.785 174.69 105.152C174.535 105.52 174.379 105.814 174.208 106.043L171.193 105.626C171.365 105.455 171.536 105.234 171.708 104.948C171.879 104.67 171.994 104.335 172.043 103.959C172.108 103.461 172.067 103.02 171.912 102.636C171.757 102.252 171.487 101.933 171.103 101.688C170.719 101.443 170.221 101.279 169.592 101.19C168.677 101.067 167.966 101.173 167.475 101.508C166.985 101.851 166.691 102.374 166.593 103.093C166.56 103.355 166.56 103.6 166.593 103.829C166.626 104.057 166.667 104.229 166.707 104.36ZM171.838 108.829L172.345 105.111L178.097 105.904C178.122 106.067 178.13 106.304 178.13 106.607C178.13 106.909 178.113 107.236 178.064 107.587C177.966 108.314 177.77 108.821 177.484 109.115C177.198 109.401 176.716 109.499 176.03 109.401L171.838 108.821V108.829Z" fill="#9D123F"></path><path d="M165.899 112.203L168.293 112.816L167.574 117.931C167.86 117.988 168.186 117.931 168.546 117.775C168.905 117.612 169.167 117.261 169.338 116.729C169.51 116.166 169.477 115.643 169.232 115.161C168.987 114.671 168.53 114.311 167.86 114.074L166.054 113.649C165.368 113.584 164.812 113.764 164.404 114.188C163.995 114.605 163.693 115.128 163.505 115.741C163.317 116.329 163.219 116.917 163.211 117.498C163.202 118.078 163.235 118.56 163.317 118.936C163.104 119.115 162.851 119.246 162.549 119.32C162.247 119.393 161.961 119.385 161.675 119.303C161.209 119.156 160.882 118.87 160.686 118.429C160.49 117.988 160.416 117.448 160.465 116.803C160.514 116.158 160.661 115.439 160.907 114.654C161.25 113.559 161.764 112.636 162.451 111.893C163.137 111.141 163.979 110.643 164.967 110.389C165.956 110.136 167.075 110.201 168.325 110.594C169.249 110.879 170.008 111.28 170.589 111.795C171.169 112.309 171.585 112.881 171.855 113.519C172.125 114.156 172.255 114.818 172.263 115.504C172.272 116.19 172.174 116.868 171.969 117.522C171.659 118.519 171.193 119.328 170.572 119.949C169.951 120.57 169.249 120.994 168.448 121.207C167.647 121.419 166.814 121.387 165.948 121.117C165.474 120.97 165.147 120.717 164.975 120.373C164.804 120.03 164.763 119.605 164.837 119.107L165.907 112.203H165.899Z" fill="#9D123F"></path><path d="M164.493 122.882L162.884 126.273L157.638 123.781C157.671 123.617 157.728 123.388 157.818 123.094C157.908 122.8 158.031 122.498 158.178 122.179C158.488 121.526 158.823 121.109 159.191 120.913C159.558 120.725 160.049 120.774 160.661 121.06L164.485 122.874L164.493 122.882ZM164.461 127.016L162.189 125.938L163.799 122.547L166.585 123.87C166.969 124.05 167.255 124.312 167.443 124.655C167.631 124.998 167.753 125.382 167.811 125.815C167.868 126.411 167.819 127.057 167.672 127.751C167.525 128.446 167.288 129.124 166.969 129.786C166.283 131.232 165.425 131.714 164.404 131.232C164.167 131.118 163.954 130.979 163.783 130.815C163.611 130.652 163.472 130.489 163.366 130.325C163.456 130.203 163.554 130.055 163.652 129.876C163.75 129.696 163.856 129.492 163.962 129.263C164.118 128.928 164.248 128.56 164.346 128.152C164.444 127.743 164.477 127.359 164.453 127.008L164.461 127.016Z" fill="#9D123F"></path><path d="M153.324 141.617L151.135 144.664L146.42 141.273C146.478 141.118 146.576 140.906 146.723 140.628C146.87 140.35 147.033 140.081 147.246 139.795C147.662 139.206 148.071 138.855 148.471 138.732C148.863 138.61 149.337 138.749 149.893 139.141L153.333 141.617H153.324ZM157.009 136.494L154.82 139.541L150.113 136.151C150.171 135.995 150.269 135.783 150.408 135.505C150.546 135.236 150.718 134.958 150.93 134.672C151.355 134.084 151.764 133.732 152.156 133.61C152.548 133.487 153.022 133.626 153.578 134.018L157.017 136.494H157.009ZM152.066 145.326L150.367 144.1L152.556 141.053L154.166 142.213C154.525 142.475 154.852 142.564 155.155 142.483C155.457 142.409 155.718 142.213 155.939 141.903C156.102 141.674 156.209 141.429 156.266 141.159C156.323 140.889 156.347 140.653 156.331 140.448L159.232 140.007C159.232 140.636 159.158 141.29 159.011 141.952C158.864 142.622 158.521 143.324 157.982 144.076C157.54 144.689 157.017 145.187 156.405 145.587C155.792 145.988 155.114 146.192 154.387 146.184C153.651 146.184 152.883 145.89 152.074 145.31L152.066 145.326ZM160.694 131.371L158.504 134.419L153.79 131.028C153.847 130.873 153.945 130.66 154.092 130.382C154.239 130.105 154.403 129.835 154.615 129.549C155.032 128.961 155.441 128.609 155.841 128.487C156.241 128.364 156.707 128.503 157.263 128.895L160.702 131.371H160.694ZM156.078 140.44L154.052 138.986L156.241 135.938L157.851 137.098C158.21 137.36 158.545 137.442 158.856 137.344C159.166 137.254 159.428 137.058 159.648 136.755C159.812 136.526 159.918 136.306 159.975 136.093C160.032 135.881 160.065 135.693 160.081 135.546L157.736 133.855L159.926 130.807L162.647 132.768C162.965 132.997 163.186 133.258 163.284 133.544C163.39 133.83 163.439 134.149 163.431 134.508C163.431 135.121 163.292 135.791 163.031 136.518C162.769 137.245 162.402 137.94 161.936 138.594C161.536 139.157 161.062 139.631 160.514 140.015C159.975 140.407 159.362 140.669 158.676 140.816C158.521 140.849 158.366 140.889 158.21 140.93C158.055 140.971 157.908 140.979 157.777 140.963C157.483 140.947 157.181 140.898 156.879 140.816C156.576 140.734 156.307 140.604 156.061 140.432L156.078 140.44Z" fill="#9D123F"></path><path d="M149.329 153.382C148.153 154.469 146.984 155.098 145.832 155.269C144.68 155.441 143.634 155.024 142.695 154.003L139.345 150.375C139.084 150.097 138.953 149.795 138.945 149.468C138.936 149.141 138.977 148.823 139.075 148.488C139.231 147.965 139.508 147.417 139.901 146.854C140.301 146.29 140.816 145.71 141.453 145.122C142.589 144.076 143.7 143.455 144.786 143.259C145.873 143.063 146.829 143.406 147.646 144.296C148.332 145.04 148.643 145.824 148.561 146.633C148.479 147.45 148.03 148.324 147.197 149.272L145.285 151.462L145.391 151.576C145.677 151.887 146.028 151.985 146.429 151.87C146.829 151.748 147.287 151.454 147.81 150.972C148.21 150.604 148.569 150.195 148.88 149.738C149.19 149.28 149.452 148.855 149.64 148.431C149.868 148.398 150.122 148.431 150.408 148.545C150.685 148.651 150.931 148.815 151.127 149.035C151.609 149.55 151.674 150.179 151.323 150.898C151.119 151.307 150.833 151.731 150.449 152.181C150.073 152.63 149.697 153.031 149.313 153.374L149.329 153.382ZM143.316 147.132C143.136 147.303 142.948 147.507 142.76 147.752C142.572 147.998 142.458 148.202 142.409 148.365L143.61 149.664L144.688 148.488C144.974 148.186 145.162 147.891 145.252 147.605C145.35 147.319 145.293 147.066 145.097 146.854C144.893 146.641 144.656 146.543 144.362 146.56C144.067 146.576 143.724 146.772 143.324 147.14L143.316 147.132Z" fill="#9D123F"></path><path d="M139.753 154.714L136.714 156.838L135.488 155.081C135.276 154.779 135.023 154.632 134.729 154.632C134.434 154.632 134.108 154.763 133.74 155.008C133.56 155.13 133.38 155.278 133.209 155.441C133.037 155.604 132.898 155.76 132.784 155.915C132.588 155.874 132.4 155.792 132.204 155.678C132.008 155.564 131.828 155.392 131.673 155.163C131.362 154.714 131.272 154.224 131.411 153.692C131.55 153.153 132.049 152.589 132.923 151.977C133.985 151.233 134.966 150.906 135.881 150.988C136.796 151.07 137.621 151.658 138.381 152.737L139.753 154.706V154.714ZM138.781 157.565L140.423 159.918L137.008 162.304C136.853 162.231 136.665 162.116 136.461 161.961C136.248 161.806 136.06 161.601 135.897 161.364C135.603 160.94 135.48 160.572 135.537 160.253C135.595 159.935 135.774 159.665 136.093 159.453L138.789 157.573L138.781 157.565ZM136.412 156.397L139.451 154.273L143.986 160.768C143.879 160.899 143.716 161.07 143.495 161.283C143.275 161.495 143.03 161.699 142.752 161.896C142.164 162.304 141.665 162.508 141.257 162.484C140.848 162.467 140.448 162.173 140.064 161.626L136.412 156.397Z" fill="#9D123F"></path><path d="M122.277 164.404C121.746 163.35 121.501 162.337 121.541 161.364C121.582 160.384 121.885 159.502 122.44 158.701C122.996 157.9 123.805 157.23 124.859 156.699C125.896 156.176 126.901 155.923 127.882 155.939C128.862 155.956 129.761 156.233 130.57 156.781C131.379 157.328 132.057 158.129 132.596 159.191C133.119 160.229 133.356 161.234 133.307 162.214C133.258 163.195 132.947 164.085 132.384 164.894C131.82 165.703 131.019 166.356 129.998 166.879C128.96 167.402 127.955 167.647 126.975 167.615C125.994 167.582 125.096 167.296 124.279 166.757C123.462 166.209 122.792 165.433 122.277 164.404ZM128.674 164.257C129.214 163.987 129.524 163.554 129.622 162.974C129.712 162.394 129.565 161.708 129.164 160.915C128.756 160.098 128.29 159.559 127.776 159.289C127.261 159.019 126.73 159.028 126.174 159.305C125.619 159.583 125.308 160.016 125.218 160.596C125.128 161.176 125.292 161.863 125.692 162.663C126.084 163.44 126.542 163.963 127.073 164.24C127.604 164.518 128.135 164.518 128.674 164.249V164.257Z" fill="#9D123F"></path><path d="M120.349 165.458L116.811 166.708L114.875 161.242C115.013 161.144 115.218 161.03 115.487 160.883C115.757 160.744 116.059 160.613 116.394 160.49C117.072 160.253 117.612 160.188 118.004 160.319C118.396 160.441 118.706 160.825 118.935 161.463L120.349 165.458ZM116.157 164.861L119.695 163.611L123.208 173.53C123.069 173.628 122.865 173.743 122.596 173.89C122.326 174.029 122.024 174.159 121.689 174.282C120.994 174.527 120.455 174.592 120.071 174.47C119.687 174.347 119.376 173.963 119.148 173.31L116.157 164.87V164.861Z" fill="#9D123F"></path><path d="M103.338 169.559C103.093 168.407 103.109 167.37 103.395 166.43C103.681 165.499 104.196 164.714 104.939 164.077C105.683 163.44 106.631 162.998 107.775 162.753C108.91 162.508 109.948 162.516 110.896 162.778C111.843 163.039 112.636 163.538 113.281 164.273C113.927 165.008 114.376 165.956 114.63 167.116C114.875 168.252 114.85 169.29 114.556 170.221C114.262 171.161 113.739 171.945 112.987 172.582C112.236 173.22 111.304 173.661 110.177 173.898C109.041 174.143 108.003 174.127 107.064 173.849C106.124 173.571 105.323 173.064 104.67 172.337C104.016 171.61 103.567 170.679 103.322 169.559H103.338ZM109.572 171.03C110.16 170.899 110.577 170.564 110.814 170.025C111.051 169.486 111.075 168.783 110.887 167.917C110.691 167.026 110.381 166.389 109.956 165.997C109.531 165.605 109.008 165.482 108.404 165.613C107.799 165.744 107.382 166.079 107.154 166.618C106.925 167.157 106.9 167.868 107.096 168.742C107.276 169.592 107.595 170.213 108.036 170.613C108.477 171.014 108.992 171.153 109.58 171.022L109.572 171.03Z" fill="#9D123F"></path><path d="M94.3503 164.968L94.4402 166.953L90.9106 167.117L90.8126 165.041C90.7635 164.012 90.976 163.154 91.4417 162.459C91.9074 161.765 92.561 161.242 93.3862 160.882C94.2196 160.523 95.1511 160.319 96.1969 160.27C96.9731 160.237 97.6757 160.27 98.2885 160.36C98.9013 160.458 99.3915 160.613 99.7592 160.833C100.307 161.16 100.593 161.651 100.625 162.296C100.642 162.631 100.584 162.941 100.454 163.227C100.331 163.513 100.176 163.726 100.012 163.865C99.5794 163.652 99.0892 163.473 98.5418 163.334C97.9943 163.195 97.4306 163.138 96.8423 163.17C96.0661 163.203 95.4452 163.366 94.9876 163.652C94.5301 163.938 94.3177 164.371 94.3422 164.96L94.3503 164.968ZM96.54 165.066C97.4224 165.025 98.2476 165.156 99.0075 165.458C99.7755 165.76 100.396 166.291 100.878 167.043C101.361 167.795 101.63 168.8 101.687 170.066C101.745 171.243 101.548 172.239 101.115 173.065C100.682 173.89 100.045 174.519 99.2036 174.96C98.362 175.401 97.3652 175.655 96.2214 175.704C95.3798 175.744 94.6036 175.671 93.8846 175.483C93.1656 175.295 92.6019 175.083 92.2097 174.854C91.9074 174.674 91.6623 174.462 91.4825 174.2C91.3028 173.947 91.2047 173.62 91.1802 173.22L90.8616 166.275L94.4566 166.112L94.7507 172.566C94.8978 172.632 95.0612 172.689 95.2409 172.73C95.4207 172.77 95.6494 172.787 95.9272 172.779C96.5564 172.746 97.0629 172.533 97.4388 172.125C97.8146 171.716 97.9862 171.079 97.9453 170.213C97.9045 169.29 97.692 168.661 97.3162 168.342C96.9404 168.023 96.4828 167.868 95.9354 167.901C95.4942 167.925 95.1347 168.015 94.8406 168.187C94.5546 168.358 94.3013 168.538 94.0726 168.742L93.8274 165.817C94.1543 165.621 94.5383 165.458 94.9631 165.327C95.388 165.188 95.9027 165.107 96.5073 165.082L96.54 165.066Z" fill="#9D123F"></path><path d="M87.9857 178.334C87.9449 178.89 87.7161 179.348 87.3076 179.699C86.8991 180.05 86.3925 180.205 85.7879 180.156C85.1833 180.107 84.7094 179.887 84.3581 179.47C84.0068 179.062 83.8515 178.58 83.8924 178.016C83.9332 177.477 84.162 177.019 84.5705 176.66C84.979 176.3 85.4856 176.145 86.0902 176.186C86.6948 176.227 87.1687 176.463 87.52 176.88C87.8714 177.297 88.0266 177.779 87.9857 178.318V178.334ZM84.8156 168.228L88.5577 168.514L88.0511 175.197C87.8877 175.23 87.6508 175.254 87.3485 175.279C87.0461 175.303 86.7193 175.295 86.368 175.279C85.6327 175.222 85.1179 175.066 84.8075 174.797C84.5052 174.527 84.3744 174.053 84.4316 173.367L84.8156 168.244V168.228ZM88.4024 170.466L84.6604 170.18L85.1016 164.396C85.265 164.363 85.5019 164.339 85.8042 164.314C86.1066 164.29 86.4334 164.298 86.7847 164.314C87.5037 164.371 88.0184 164.535 88.3289 164.804C88.6394 165.082 88.7701 165.556 88.7211 166.226L88.4024 170.45V170.466Z" fill="#9D123F"></path><path d="M75.6646 171.079C76.3836 171.218 77.0536 171.104 77.6746 170.744C78.2955 170.385 78.6795 169.755 78.8511 168.857C79.0227 167.958 78.892 167.247 78.4753 166.716C78.0504 166.185 77.4621 165.85 76.7105 165.711C76.2774 165.629 75.8771 165.613 75.5176 165.654C75.1581 165.695 74.8476 165.752 74.5943 165.825C74.3574 165.572 74.194 165.319 74.1041 165.057C74.0142 164.796 73.9979 164.502 74.0551 164.175C74.1613 163.595 74.5371 163.186 75.1744 162.949C75.8117 162.713 76.6533 162.696 77.7072 162.892C78.9083 163.121 79.9133 163.53 80.7221 164.118C81.531 164.706 82.1029 165.458 82.4216 166.381C82.7484 167.304 82.7974 168.366 82.5686 169.568C82.3317 170.842 81.8578 171.839 81.1715 172.566C80.477 173.293 79.6518 173.783 78.6959 174.029C77.7399 174.274 76.735 174.298 75.6973 174.102C74.676 173.906 73.908 173.571 73.4096 173.081C72.9112 172.599 72.7151 172.059 72.8295 171.463C72.8785 171.185 72.9929 170.948 73.1727 170.728C73.3442 170.515 73.5403 170.336 73.7446 170.197C73.9652 170.36 74.243 170.532 74.5698 170.703C74.8966 170.875 75.2643 171.005 75.6646 171.079Z" fill="#9D123F"></path><path d="M65.2148 171.202C63.7033 170.671 62.6003 169.935 61.9139 168.996C61.2276 168.056 61.1051 166.937 61.5708 165.638L63.213 160.98C63.3438 160.621 63.548 160.359 63.8258 160.204C64.1036 160.049 64.4141 159.935 64.7491 159.861C65.2883 159.755 65.9011 159.747 66.5874 159.828C67.2737 159.918 68.0254 160.098 68.8424 160.392C70.2968 160.907 71.3671 161.601 72.0534 162.467C72.7397 163.342 72.8786 164.347 72.4783 165.482C72.1433 166.438 71.5959 167.076 70.836 167.386C70.0843 167.696 69.0876 167.705 67.8702 167.419L65.0432 166.749L64.9942 166.896C64.8553 167.296 64.9288 167.647 65.223 167.95C65.5171 168.252 65.991 168.514 66.6609 168.75C67.1757 168.93 67.7068 169.053 68.246 169.126C68.7934 169.192 69.2918 169.216 69.7575 169.192C69.8964 169.38 69.9781 169.625 70.0108 169.927C70.0435 170.229 70.0108 170.515 69.9128 170.793C69.6758 171.463 69.1611 171.806 68.3522 171.831C67.8947 171.839 67.3799 171.782 66.808 171.659C66.2361 171.537 65.705 171.39 65.223 171.218L65.2148 171.202ZM67.9274 162.974C67.6904 162.892 67.4208 162.827 67.1185 162.77C66.8162 162.721 66.5792 162.713 66.4158 162.745L65.8276 164.412L67.3718 164.812C67.7721 164.919 68.1153 164.951 68.4176 164.902C68.7199 164.853 68.916 164.69 69.014 164.412C69.1121 164.134 69.0876 163.873 68.9323 163.619C68.7771 163.366 68.4421 163.154 67.9355 162.974H67.9274Z" fill="#9D123F"></path><path d="M44.6827 156.168L45.7612 154.371L48.9721 156.307L47.9508 158.006C47.7221 158.382 47.6567 158.717 47.7548 159.011C47.8528 159.306 48.0652 159.551 48.392 159.747C48.629 159.894 48.8904 159.984 49.1601 160.016C49.4297 160.049 49.6666 160.049 49.8791 160.016L50.5572 162.868C49.9281 162.917 49.2745 162.901 48.5963 162.811C47.9182 162.721 47.1828 162.435 46.3903 161.961C45.7448 161.577 45.2056 161.095 44.7562 160.515C44.3068 159.935 44.0536 159.281 43.9964 158.546C43.9392 157.819 44.168 157.026 44.6827 156.168ZM48.4901 157.116L45.2791 155.18L48.2695 150.212C48.4329 150.261 48.6535 150.343 48.9313 150.457C49.2091 150.571 49.5032 150.727 49.8055 150.906C50.4265 151.282 50.8105 151.658 50.9657 152.042C51.121 152.426 51.0229 152.908 50.6716 153.488L48.4901 157.116ZM49.8872 159.763L51.17 157.631L54.381 159.567L53.3597 161.266C53.1309 161.642 53.0737 161.985 53.1962 162.288C53.3106 162.59 53.5312 162.835 53.8417 163.023C54.0786 163.17 54.3074 163.26 54.528 163.293C54.7486 163.334 54.9284 163.35 55.0836 163.358L56.5788 160.882L59.7898 162.819L58.0576 165.695C57.8534 166.038 57.6164 166.267 57.3386 166.397C57.069 166.528 56.7504 166.602 56.3909 166.626C55.7781 166.667 55.0999 166.594 54.3564 166.389C53.6129 166.185 52.8939 165.883 52.1995 165.466C51.6112 165.107 51.0965 164.674 50.6634 164.167C50.2304 163.66 49.9199 163.072 49.7157 162.402C49.6666 162.255 49.6176 162.1 49.5604 161.953C49.5032 161.798 49.4869 161.659 49.4951 161.528C49.4869 161.234 49.5114 160.923 49.5686 160.621C49.6258 160.319 49.732 160.033 49.8791 159.779L49.8872 159.763ZM53.8907 160.376L50.6798 158.44L53.6701 153.472C53.8335 153.521 54.0541 153.603 54.3319 153.717C54.6097 153.831 54.9039 153.987 55.2062 154.166C55.8271 154.542 56.2111 154.918 56.3664 155.302C56.5216 155.686 56.4236 156.168 56.0722 156.748L53.8907 160.376ZM59.2995 163.628L56.0886 161.691L59.0789 156.724C59.2423 156.773 59.4629 156.854 59.7407 156.969C60.0185 157.083 60.3127 157.238 60.615 157.418C61.2278 157.794 61.6199 158.17 61.7752 158.554C61.9304 158.938 61.8324 159.42 61.481 160L59.2995 163.628Z" fill="#9D123F"></path><path d="M43.3426 150.424L41.7657 152.328L37.4518 149.493C37.272 149.73 37.1821 150.049 37.1821 150.441C37.1821 150.833 37.3782 151.225 37.7949 151.601C38.2279 152.001 38.7182 152.189 39.2656 152.173C39.813 152.156 40.3359 151.895 40.8343 151.397L41.9945 149.942C42.3458 149.346 42.4194 148.774 42.2151 148.227C42.0108 147.679 41.6677 147.181 41.1938 146.748C40.7363 146.331 40.2542 145.988 39.7313 145.726C39.2084 145.465 38.759 145.293 38.3832 145.203C38.3096 144.934 38.3015 144.648 38.3668 144.346C38.424 144.043 38.5548 143.782 38.759 143.561C39.0858 143.202 39.4944 143.03 39.9682 143.046C40.4421 143.063 40.9732 143.226 41.537 143.545C42.1007 143.864 42.689 144.305 43.2936 144.86C44.1351 145.636 44.7479 146.494 45.1319 147.442C45.5159 148.382 45.6058 149.354 45.4179 150.359C45.2218 151.364 44.6826 152.344 43.8002 153.308C43.1384 154.019 42.4602 154.534 41.7494 154.836C41.0386 155.139 40.3359 155.278 39.6496 155.245C38.9633 155.212 38.3015 155.049 37.6805 154.763C37.0514 154.477 36.4876 154.101 35.9811 153.627C35.2131 152.916 34.682 152.156 34.3797 151.323C34.0774 150.498 34.0038 149.681 34.1591 148.864C34.3062 148.047 34.6902 147.311 35.3111 146.641C35.6543 146.274 36.0138 146.086 36.3978 146.086C36.7818 146.086 37.1821 146.225 37.5988 146.503L43.3753 150.424H43.3426Z" fill="#9D123F"></path><path d="M26.8302 136.976L28.4316 135.726L30.7356 138.684L29.2241 139.86C28.8646 140.138 28.6849 140.457 28.6849 140.8C28.6849 141.143 28.8156 141.494 29.0934 141.837C29.2731 142.066 29.4692 142.262 29.6898 142.417C29.9023 142.573 30.131 142.712 30.368 142.826L32.6148 141.077L34.9189 144.035L32.2717 146.094C31.9612 146.339 31.6507 146.47 31.3484 146.494C31.0461 146.519 30.7275 146.47 30.3843 146.364C29.796 146.184 29.1833 145.865 28.546 145.391C27.9087 144.918 27.3041 144.321 26.7485 143.602C25.7272 142.295 25.2288 141.061 25.2533 139.901C25.2778 138.749 25.8007 137.768 26.8384 136.96L26.8302 136.976ZM29.9921 139.272L27.6881 136.314L32.2635 132.744C32.4024 132.842 32.574 132.997 32.7946 133.209C33.0152 133.422 33.2358 133.667 33.4482 133.945C33.8894 134.517 34.1182 135.007 34.1264 135.415C34.1264 135.832 33.8649 136.249 33.3338 136.657L29.9921 139.264V139.272ZM34.1672 144.632L31.8632 141.674L36.4386 138.103C36.5693 138.201 36.7491 138.357 36.9697 138.569C37.1903 138.782 37.4109 139.027 37.6233 139.304C38.0645 139.876 38.2933 140.367 38.3014 140.775C38.3014 141.192 38.0482 141.609 37.5089 142.017L34.1672 144.623V144.632Z" fill="#9D123F"></path><path d="M24.9265 130.513L26.7649 133.732L19.8936 137.67C19.771 137.548 19.6158 137.376 19.4197 137.139C19.2236 136.902 19.0438 136.641 18.8722 136.347C18.5128 135.718 18.3657 135.203 18.4229 134.803C18.4801 134.394 18.7987 134.026 19.387 133.691L24.9183 130.521L24.9265 130.513ZM23.5457 132.776L21.0537 134.198L18.9785 130.578C19.0602 130.431 19.1909 130.26 19.3706 130.064C19.5504 129.868 19.7628 129.696 20.0161 129.557C20.4655 129.304 20.8413 129.214 21.1518 129.304C21.4623 129.386 21.7155 129.598 21.9035 129.925L23.5375 132.776H23.5457ZM26.3073 133.994L24.469 130.775L26.3237 129.712C26.6423 129.533 26.8139 129.288 26.8384 128.993C26.8629 128.699 26.7649 128.356 26.5524 127.98C26.4462 127.792 26.3155 127.604 26.1684 127.416C26.0214 127.229 25.8743 127.073 25.7354 126.951C25.8008 126.763 25.8906 126.575 26.0214 126.395C26.1521 126.207 26.34 126.044 26.5851 125.913C27.059 125.644 27.5574 125.603 28.0721 125.782C28.595 125.97 29.1179 126.518 29.6408 127.441C30.2863 128.569 30.5232 129.573 30.3598 130.472C30.1964 131.371 29.5428 132.147 28.3908 132.809L26.3073 134.002V133.994Z" fill="#9D123F"></path><path d="M23.2272 123.74L20.9885 124.785L18.3086 120.373C18.0471 120.512 17.8265 120.757 17.6549 121.109C17.4834 121.46 17.4997 121.901 17.704 122.416C17.9246 122.963 18.2841 123.347 18.7825 123.56C19.2809 123.78 19.8691 123.772 20.5309 123.535L22.1977 122.718C22.7696 122.326 23.0801 121.844 23.1291 121.256C23.1781 120.676 23.0801 120.079 22.8432 119.483C22.6144 118.911 22.3202 118.396 21.9607 117.939C21.6012 117.481 21.2744 117.13 20.964 116.885C21.013 116.615 21.1274 116.354 21.3153 116.1C21.5032 115.847 21.732 115.675 22.0016 115.561C22.451 115.381 22.8922 115.398 23.317 115.61C23.7419 115.823 24.1422 116.198 24.5181 116.729C24.8939 117.261 25.2289 117.906 25.5394 118.674C25.9642 119.736 26.1522 120.774 26.095 121.795C26.0378 122.808 25.7028 123.731 25.0982 124.549C24.4936 125.374 23.5867 126.027 22.3693 126.518C21.4705 126.877 20.629 127.049 19.861 127.016C19.0848 126.983 18.3985 126.812 17.7938 126.485C17.1892 126.158 16.6582 125.733 16.217 125.202C15.7758 124.679 15.4244 124.091 15.163 123.454C14.7708 122.481 14.6156 121.566 14.7054 120.692C14.7953 119.818 15.0731 119.042 15.5552 118.372C16.0372 117.702 16.7072 117.195 17.5487 116.852C18.0144 116.664 18.423 116.656 18.7661 116.811C19.1174 116.975 19.4198 117.269 19.673 117.71L23.219 123.723L23.2272 123.74Z" fill="#9D123F"></path><path d="M15.9801 107.325C17.3789 107.325 18.5129 106.191 18.5129 104.793C18.5129 103.394 17.3789 102.26 15.9801 102.26C14.5813 102.26 13.4473 103.394 13.4473 104.793C13.4473 106.191 14.5813 107.325 15.9801 107.325Z" fill="#9D123F"></path></g><defs><clipPath id="clip0_31_457"><rect width="184.463" height="184.463" fill="white" transform="translate(0.268311 0.268555)"></rect></clipPath></defs></svg>