<svg xmlns="http://www.w3.org/2000/svg" width="242" height="119" viewBox="0 0 242 119" fill="none"><path d="M24.8948 0C29.225 0 33.2317 0.576895 36.9148 1.73295C40.6681 2.81661 43.8807 4.51109 46.5526 6.82094C49.2245 9.13078 51.3172 12.0537 52.833 15.592C54.3488 19.0579 55.1067 23.207 55.1067 28.0439C55.1067 32.8808 54.4574 36.7064 53.1565 40.1723C51.8579 43.6382 50.0163 46.5611 47.634 48.9433C45.2517 51.2532 42.3649 52.9861 38.9713 54.1399C35.6502 55.296 31.9331 55.8729 27.8178 55.8729C24.7138 55.8729 21.827 55.4046 19.1551 54.4657V72.4399C18.4334 72.6571 17.2773 72.8743 15.6891 73.0892C14.101 73.3788 12.4766 73.5213 10.816 73.5213C9.15538 73.5213 7.78437 73.4128 6.48576 73.1956C5.25955 72.9784 4.21207 72.5463 3.34557 71.897C2.47908 71.2477 1.82978 70.345 1.3954 69.189C0.963283 68.1053 0.746094 66.6619 0.746094 64.8589V12.8863C0.746094 10.9361 1.14201 9.34797 1.93611 8.12178C2.8026 6.89333 3.95642 5.77574 5.40208 4.76448C7.63958 3.32111 10.4201 2.16505 13.739 1.29858C17.0624 0.432106 20.7795 0 24.8948 0ZM25.112 41.3623C32.5484 41.3623 36.2655 36.9236 36.2655 28.0439C36.2655 23.4242 35.3266 19.9945 33.4511 17.7571C31.6457 15.5196 29.0123 14.3998 25.5464 14.3998C24.1754 14.3998 22.9469 14.5807 21.8655 14.9405C20.7818 15.23 19.8451 15.5897 19.0511 16.0241V39.8465C19.9175 40.2786 20.8564 40.6406 21.8655 40.9302C22.8767 41.2197 23.9582 41.3623 25.1142 41.3623H25.112Z" fill="#F7CAB5"></path><path d="M113.881 27.9322C113.881 32.4066 113.196 36.4128 111.825 39.9507C110.454 43.4162 108.504 46.3388 105.978 48.7208C103.524 51.1027 100.565 52.9079 97.0997 54.1339C93.6345 55.3622 89.7734 55.9753 85.5165 55.9753C81.2596 55.9753 77.3962 55.326 73.9332 54.0276C70.468 52.7292 67.4732 50.8878 64.9467 48.5059C62.4925 46.0515 60.5812 43.0927 59.2082 39.6272C57.8375 36.1617 57.1521 32.2641 57.1521 27.9345C57.1521 23.6048 57.8375 19.8136 59.2082 16.3503C60.5789 12.8848 62.4925 9.96222 64.9467 7.58024C67.4732 5.12588 70.468 3.25061 73.9332 1.94992C77.3985 0.65148 81.2596 0 85.5165 0C89.7734 0 93.6368 0.685411 97.0997 2.05623C100.565 3.35467 103.524 5.2322 105.978 7.68656C108.504 10.0685 110.452 12.9911 111.825 16.4567C113.196 19.9222 113.881 23.7474 113.881 27.9322ZM75.9893 27.9322C75.9893 32.3342 76.8194 35.7273 78.4797 38.1093C80.2123 40.4189 82.5941 41.5748 85.6251 41.5748C88.656 41.5748 90.9654 40.3827 92.5533 38.003C94.2135 35.621 95.0437 32.2641 95.0437 27.9345C95.0437 23.6048 94.2135 20.2841 92.5533 17.9745C90.8931 15.5925 88.5475 14.4027 85.5165 14.4027C82.4855 14.4027 80.1399 15.5925 78.4797 17.9745C76.8194 20.2841 75.9893 23.6048 75.9893 27.9345V27.9322Z" fill="#F7CAB5"></path><path d="M139.966 0C144.299 0 148.303 0.576895 151.987 1.73295C155.74 2.81661 158.953 4.51109 161.625 6.82094C164.297 9.13078 166.39 12.0537 167.905 15.592C169.421 19.0579 170.179 23.207 170.179 28.0439C170.179 32.8808 169.53 36.7064 168.231 40.1723C166.933 43.6382 165.091 46.5611 162.708 48.9433C160.326 51.2532 157.439 52.9861 154.045 54.1399C150.724 55.296 147.007 55.8729 142.891 55.8729C139.787 55.8729 136.9 55.4046 134.228 54.4657V72.4399C133.507 72.6571 132.351 72.8743 130.762 73.0892C129.174 73.3788 127.55 73.5213 125.889 73.5213C124.228 73.5213 122.857 73.4128 121.556 73.1956C120.33 72.9784 119.282 72.5463 118.416 71.897C117.549 71.2477 116.9 70.345 116.468 69.189C116.036 68.1053 115.819 66.6619 115.819 64.8589V12.8863C115.819 10.9361 116.217 9.34797 117.011 8.12178C117.877 6.89333 119.031 5.77574 120.477 4.76448C122.715 3.32111 125.495 2.16505 128.814 1.29858C132.136 0.432106 135.853 0 139.968 0L139.966 0ZM140.183 41.3623C147.618 41.3623 151.337 36.9236 151.337 28.0439C151.337 23.4242 150.398 19.9945 148.523 17.7571C146.717 15.5196 144.084 14.3998 140.618 14.3998C139.247 14.3998 138.018 14.5807 136.937 14.9405C135.853 15.23 134.916 15.5897 134.122 16.0241V39.8465C134.989 40.2786 135.928 40.6406 136.937 40.9302C137.948 41.2197 139.029 41.3623 140.186 41.3623H140.183Z" fill="#F7CAB5"></path><path d="M38.7237 116.974C37.5681 115.963 36.6295 114.773 35.9081 113.4C35.259 112.03 34.9333 110.478 34.9333 108.746C34.9333 107.303 35.259 105.896 35.9081 104.524C36.6295 103.081 37.4957 101.746 38.5066 100.518L57.1238 78.6536H37.2062C36.7743 77.8598 36.3423 76.8489 35.9081 75.6232C35.5485 74.3974 35.3676 73.0608 35.3676 71.6179C35.3676 69.0918 35.9081 67.2893 36.9914 66.206C38.1448 65.0503 39.66 64.4736 41.5371 64.4736H75.6325C76.7881 65.4846 77.6905 66.6741 78.3396 68.0446C79.061 69.4152 79.4229 70.9666 79.4229 72.6989C79.4229 74.1418 79.061 75.5847 78.3396 77.0298C77.6905 78.4004 76.8605 79.7007 75.8496 80.9265L57.6643 102.791H78.8801C79.3143 103.585 79.7101 104.596 80.0719 105.822C80.5039 107.048 80.721 108.384 80.721 109.827C80.721 112.353 80.1443 114.192 78.9886 115.348C77.9076 116.431 76.4263 116.971 74.5514 116.971H38.7237V116.974Z" fill="white"></path><path d="M82.6602 65.1534C83.3816 64.9363 84.4988 64.7215 86.0163 64.5044C87.6017 64.2873 89.2255 64.1787 90.8855 64.1787C92.5455 64.1787 93.8798 64.2873 95.1078 64.5044C96.4059 64.7215 97.4892 65.1534 98.3554 65.8025C99.2216 66.4516 99.8707 67.3539 100.303 68.5096C100.809 69.5929 101.06 71.0358 101.06 72.8382V96.1097C101.06 99.0679 101.782 101.196 103.227 102.496C104.67 103.722 106.762 104.337 109.505 104.337C111.163 104.337 112.499 104.193 113.508 103.905C114.591 103.616 115.421 103.329 115.998 103.039V65.1534C116.719 64.9363 117.839 64.7215 119.354 64.5044C120.942 64.2873 122.565 64.1787 124.225 64.1787C125.885 64.1787 127.22 64.2873 128.446 64.5044C129.746 64.7215 130.827 65.1534 131.693 65.8025C132.559 66.4516 133.208 67.3539 133.643 68.5096C134.147 69.5929 134.4 71.0358 134.4 72.8382V105.744C134.4 109.351 132.885 112.058 129.854 113.863C127.328 115.451 124.298 116.64 120.761 117.434C117.298 118.3 113.508 118.732 109.396 118.732C105.5 118.732 101.89 118.3 98.5725 117.434C95.3249 116.568 92.5093 115.234 90.1278 113.429C87.7464 111.624 85.9078 109.315 84.6074 106.502C83.3092 103.616 82.6602 100.151 82.6602 96.1097V65.1512V65.1534Z" fill="white"></path><path d="M136.365 90.6704C136.365 85.9076 137.086 81.7938 138.529 78.3313C139.972 74.7942 141.958 71.8723 144.484 69.5632C147.08 67.2542 150.074 65.558 153.467 64.477C156.931 63.3213 160.647 62.7446 164.616 62.7446C166.059 62.7446 167.466 62.8894 168.836 63.1766C170.209 63.3937 171.326 63.6809 172.192 64.0428V29.0224C172.914 28.8053 174.07 28.5905 175.657 28.3734C177.245 28.0839 178.869 27.9414 180.529 27.9414C182.189 27.9414 183.523 28.05 184.749 28.2671C186.049 28.4842 187.13 28.9161 187.996 29.5652C188.862 30.2143 189.512 31.1166 189.946 32.2723C190.378 33.3556 190.595 34.7985 190.595 36.6009V105.393C190.595 108.786 189.007 111.49 185.832 113.512C183.738 114.883 181.033 116.075 177.713 117.083C174.393 118.167 170.569 118.707 166.24 118.707C161.55 118.707 157.327 118.058 153.575 116.76C149.896 115.462 146.757 113.585 144.158 111.131C141.632 108.677 139.685 105.755 138.312 102.363C137.014 98.898 136.365 95.0013 136.365 90.6727V90.6704ZM167.106 77.1395C163.21 77.1395 160.213 78.259 158.121 80.4956C156.029 82.7323 154.982 86.1247 154.982 90.6704C154.982 95.2162 155.957 98.5361 157.904 100.845C159.853 103.082 162.667 104.201 166.349 104.201C167.647 104.201 168.802 104.02 169.811 103.661C170.894 103.227 171.724 102.758 172.301 102.254V78.4399C170.858 77.5737 169.126 77.1417 167.106 77.1417V77.1395Z" fill="white"></path><path d="M216.888 105.282C218.116 105.282 219.45 105.173 220.893 104.956C222.408 104.667 223.528 104.307 224.249 103.873V95.2134L216.456 95.8625C214.436 96.0072 212.776 96.4392 211.476 97.1606C210.178 97.8821 209.529 98.9654 209.529 100.408C209.529 101.851 210.069 103.043 211.152 103.979C212.306 104.845 214.219 105.277 216.888 105.277V105.282ZM216.024 62.7441C219.921 62.7441 223.455 63.1399 226.631 63.9337C229.878 64.7275 232.619 65.9533 234.858 67.6133C237.167 69.2009 238.934 71.2567 240.162 73.7828C241.387 76.2366 242 79.1586 242 82.5509V106.797C242 108.674 241.46 110.226 240.379 111.451C239.368 112.607 238.14 113.616 236.697 114.482C232.006 117.295 225.405 118.704 216.888 118.704C213.063 118.704 209.601 118.342 206.498 117.621C203.468 116.9 200.833 115.816 198.596 114.373C196.432 112.931 194.736 111.09 193.508 108.853C192.354 106.616 191.775 104.018 191.775 101.06C191.775 96.0796 193.257 92.2553 196.215 89.5867C199.173 86.9157 203.755 85.258 209.961 84.6067L224.141 83.0914V82.3338C224.141 80.2419 223.202 78.7628 221.327 77.8966C219.523 76.9581 216.888 76.4899 213.425 76.4899C210.682 76.4899 208.013 76.7794 205.415 77.3561C202.816 77.9328 200.471 78.6542 198.379 79.5204C197.441 78.8714 196.647 77.8966 195.998 76.5985C195.349 75.228 195.023 73.8213 195.023 72.3761C195.023 70.499 195.457 69.02 196.323 67.939C197.26 66.7833 198.669 65.8108 200.543 65.017C202.638 64.2232 205.089 63.6465 207.905 63.2847C210.791 62.9228 213.498 62.7441 216.024 62.7441Z" fill="white"></path><path d="M228.846 27.9322C228.846 32.4066 228.162 36.4128 226.794 39.9507C225.425 43.4162 223.479 46.3388 220.958 48.7208C218.508 51.1027 215.555 52.9079 212.099 54.1339C208.64 55.3622 204.786 55.9753 200.535 55.9753C196.284 55.9753 192.43 55.326 188.974 54.0276C185.515 52.7292 182.526 50.8878 180.004 48.5059C177.555 46.0515 175.647 43.0927 174.277 39.6272C172.909 36.1617 172.225 32.2641 172.225 27.9345C172.225 23.6048 172.909 19.8136 174.277 16.3503C175.645 12.8848 177.555 9.96222 180.004 7.58024C182.526 5.12588 185.515 3.25061 188.974 1.94992C192.433 0.65148 196.286 0 200.535 0C204.784 0 208.64 0.685411 212.099 2.05623C215.555 3.35467 218.508 5.2322 220.958 7.68656C223.479 10.0685 225.425 12.9911 226.794 16.4567C228.162 19.9222 228.846 23.7474 228.846 27.9322ZM191.028 27.9322C191.028 32.3342 191.857 35.7273 193.514 38.1093C195.243 40.4189 197.621 41.5748 200.646 41.5748C203.671 41.5748 205.976 40.3827 207.561 38.003C209.218 35.621 210.047 32.2641 210.047 27.9345C210.047 23.6048 209.218 20.2841 207.561 17.9745C205.904 15.5925 203.563 14.4027 200.537 14.4027C197.512 14.4027 195.171 15.5925 193.514 17.9745C191.857 20.2841 191.028 23.6048 191.028 27.9345V27.9322Z" fill="#F7CAB5"></path></svg>