<svg xmlns="http://www.w3.org/2000/svg" width="45" height="45" viewBox="0 0 45 45" fill="none"><path d="M35.0153 44.9763L10.0285 45C4.53136 45.005 0.0299884 40.5124 0.0237417 35.0153L4.16507e-06 10.0285C-0.0049932 4.53136 4.48764 0.0299884 9.98473 0.0237417L34.9715 4.16506e-06C40.4686 -0.0049932 44.97 4.48764 44.9763 9.98473L45 34.9715C45.0062 40.4699 40.5124 44.9713 35.0153 44.9763Z" fill="#9D123F"></path><path d="M35.0153 44.9763L10.0285 45C4.53136 45.005 0.0299884 40.5124 0.0237417 35.0153L4.16507e-06 10.0285C-0.0049932 4.53136 4.48764 0.0299884 9.98473 0.0237417L34.9715 4.16506e-06C40.4686 -0.0049932 44.97 4.48764 44.9763 9.98473L45 34.9715C45.0062 40.4699 40.5124 44.9713 35.0153 44.9763Z" fill="#9D123F"></path><path d="M22.5003 31.2457C17.6791 31.2457 13.7549 27.3228 13.7549 22.5003C13.7549 17.6779 17.6791 13.7549 22.5003 13.7549C27.3215 13.7549 31.2457 17.6779 31.2457 22.5003C31.2457 27.3228 27.3215 31.2457 22.5003 31.2457ZM22.5003 16.2536C19.0559 16.2536 16.2536 19.0559 16.2536 22.5003C16.2536 25.9448 19.0559 28.747 22.5003 28.747C25.9448 28.747 28.747 25.9448 28.747 22.5003C28.747 19.0559 25.9448 16.2536 22.5003 16.2536Z" fill="#FFFEFE"></path><path d="M31.8704 15.0043C32.9054 15.0043 33.7444 14.1653 33.7444 13.1303C33.7444 12.0953 32.9054 11.2563 31.8704 11.2563C30.8354 11.2563 29.9964 12.0953 29.9964 13.1303C29.9964 14.1653 30.8354 15.0043 31.8704 15.0043Z" fill="#FFFEFE"></path><path d="M29.9964 38.7418H15.0043C10.1831 38.7418 6.2589 34.8188 6.2589 29.9964V15.0043C6.2589 10.1818 10.1831 6.2589 15.0043 6.2589H29.9964C34.8176 6.2589 38.7418 10.1818 38.7418 15.0043V29.9964C38.7418 34.8188 34.8176 38.7418 29.9964 38.7418ZM15.0043 8.75758C11.5599 8.75758 8.75758 11.5599 8.75758 15.0043V29.9964C8.75758 33.4408 11.5599 36.2431 15.0043 36.2431H29.9964C33.4408 36.2431 36.2431 33.4408 36.2431 29.9964V15.0043C36.2431 11.5599 33.4408 8.75758 29.9964 8.75758H15.0043Z" fill="#FFFEFE"></path></svg>