<svg xmlns="http://www.w3.org/2000/svg" width="58" height="56" viewBox="0 0 58 56" fill="none"><path d="M6.66835 42.7503C6.31474 39.1908 8.17476 35.169 9.38105 31.943C9.84083 31.8686 10.0732 31.8318 10.5439 31.7607C11.4216 32.5591 11.9399 33.7202 12.1422 34.8672C12.2392 35.4198 12.2676 35.9798 12.2074 36.5199C12.1464 37.0599 12.0394 37.5632 11.8873 38.0254C11.063 40.5634 9.46214 44.3855 10.6668 47.0681C10.319 46.8081 10.1476 46.6768 9.81241 46.4102C9.48973 46.1209 9.13026 45.7991 8.73569 45.4379C8.34111 45.0768 7.95741 44.7165 7.59794 44.3395C7.3087 44.036 7.08299 43.7593 6.93335 43.4918C6.78371 43.2243 6.69594 42.9777 6.66835 42.7511V42.7503ZM9.79653 31.8769C9.53153 33.4251 9.30749 34.9717 9.13946 36.5341C7.06376 36.6152 4.98974 36.7113 2.91571 36.8158C2.74852 36.6394 2.56962 36.4229 2.38237 36.1663C2.19511 35.9105 2.03294 35.6179 1.90085 35.2843C1.6718 34.7075 1.62582 34.2569 1.7462 33.9259C1.86658 33.5957 2.11737 33.3767 2.49606 33.2897C4.91701 32.7463 7.34799 32.2765 9.79653 31.8761V31.8769ZM10.0891 46.6275C9.62766 46.0482 9.28575 45.2122 9.14949 44.4925C11.0781 45.2733 13.0292 45.9529 15.0163 46.5715C15.191 46.8382 15.3808 47.1634 15.5864 47.5479C15.7921 47.9316 15.9735 48.3437 16.1356 48.7776C16.4165 49.5275 16.5352 50.029 16.4742 50.2656C16.4132 50.5022 16.2217 50.5273 15.8924 50.3526C13.8601 49.2457 11.9341 48.0261 10.0891 46.6283V46.6275Z" fill="#9D123F"></path><path d="M18.3803 43.8603C17.1055 43.6638 15.8315 43.4607 14.5591 43.2475C13.4924 39.4038 12.6673 35.5174 12.0713 31.5733C12.2577 31.5006 12.5344 31.3978 12.9073 31.264C13.2793 31.1302 13.6496 31.04 14.0157 30.9948C14.8475 30.892 15.5113 31.0341 15.9075 31.4278C16.5011 32.018 16.6724 33.0296 16.7627 33.853C17.1991 37.2069 17.7333 40.5398 18.3803 43.8595V43.8603ZM22.367 53.7731C21.2351 53.3928 20.2437 52.5342 19.355 51.6857C18.3594 50.7344 17.5009 49.5699 16.751 48.3962C15.9451 47.1348 15.309 45.7479 14.8693 44.3159C14.6419 43.5535 14.5315 43.1681 14.32 42.3923C15.6108 42.5754 16.9023 42.751 18.1956 42.9182C18.351 43.7307 18.4313 44.1337 18.5977 44.9337C18.7916 45.8892 19.1527 46.8204 19.7187 47.6154C20.2311 48.3344 20.782 48.7799 21.3873 48.9321C21.9933 49.0842 22.4506 48.8777 22.7348 48.3018C23.1227 47.5151 23.0884 46.5304 22.9672 45.6693C22.8569 44.8024 22.8025 44.3652 22.698 43.4866C24.1677 43.6672 25.6381 43.8461 27.1086 44.025C27.1571 44.8317 27.2072 45.6384 27.2591 46.4451C27.3167 48.0501 27.2883 49.6201 26.8386 51.1766C26.551 52.1723 26.0185 53.1813 25.124 53.7514C24.2488 54.309 23.208 54.0582 22.3653 53.7748L22.367 53.7731ZM27.1805 45.1786C25.7301 44.983 24.2805 44.784 22.8318 44.5809C22.2742 39.9697 21.8203 35.3468 21.5026 30.7131C21.7191 30.6487 22.0401 30.5584 22.4698 30.4439C22.8995 30.3302 23.3225 30.2667 23.7372 30.2542C24.6784 30.2266 25.4091 30.4581 25.8212 30.943C26.4565 31.6903 26.4891 32.7796 26.5711 33.7393C26.7449 37.5538 26.9464 41.3666 27.1805 45.1786Z" fill="#9D123F"></path><path d="M39.0026 48.6765C38.0789 50.152 37.0506 51.6233 35.8544 52.8847C35.1756 53.6003 34.4324 54.4923 33.4702 54.8317C33.0464 54.9813 32.5064 55.095 31.8568 55.1669C31.2064 55.238 30.592 55.1577 30.0712 54.9027C29.1115 54.4338 28.8214 53.1246 28.7571 52.1198C28.4202 45.7974 28.146 39.4725 27.9236 33.1451C27.9027 32.5491 28.003 32.0893 28.2271 31.7666C28.4503 31.4439 28.7479 31.1773 29.119 30.9775C29.9851 30.5486 30.9306 30.3538 31.8418 30.2627C32.6886 30.1783 33.624 30.1499 34.4926 30.2351C36.3075 30.414 38.068 30.9449 39.5243 32.1194C40.7991 33.1476 41.681 34.7318 42.0405 36.3327C42.5103 38.4242 42.1609 40.5518 41.6418 42.5689C41.0934 44.7015 40.1746 46.8031 39.0026 48.6756V48.6765ZM37.6525 39.2393C37.5004 38.4209 37.258 37.5331 36.6452 36.8769C36.1311 36.3268 35.5593 35.9941 34.6481 35.9799C34.3764 35.9757 34.0997 35.9857 33.8196 36.01C33.5396 36.0342 33.2545 36.0735 32.9661 36.127C32.8784 40.6755 32.763 45.2223 32.6125 49.7691C32.7755 49.7883 32.9787 49.7925 33.2219 49.7808C33.4652 49.7699 33.6842 49.7415 33.8757 49.7047C34.7818 49.53 35.4138 48.5879 35.8427 47.8531C36.7046 46.3759 37.2379 44.6338 37.4996 42.9618C37.691 41.738 37.8741 40.4314 37.6525 39.2401V39.2393Z" fill="#9D123F"></path><path d="M49.7007 37.4683C49.6413 37.4674 49.6121 37.4666 49.5527 37.4657C49.2467 37.9824 48.9032 38.5517 48.5195 39.1786C48.1082 39.8499 47.6952 40.5204 47.2797 41.1891C46.8208 41.9298 46.3685 42.6763 45.9246 43.4262C45.3269 44.5455 44.7192 45.659 44.1039 46.7683C43.8489 47.1771 43.6082 47.5734 43.3816 47.9571C43.1551 48.3408 42.9352 48.7069 42.7229 49.0555C42.5097 49.4041 42.3041 49.7427 42.1068 50.0704C41.9087 50.3981 41.7206 50.8077 41.5208 51.0259C41.3611 51.1998 41.0359 51.3845 40.7642 51.5785C40.4925 51.7724 40.1974 51.9488 39.8823 52.1001C39.1667 52.4437 38.7353 52.4913 38.5356 52.2665C38.3358 52.0416 38.3475 51.5818 38.5665 50.9147C38.6651 50.6138 38.7897 50.3028 38.9427 49.9826C39.0948 49.6633 39.2737 49.2871 39.4752 48.8557C39.9149 47.9119 40.3747 46.9715 40.8462 46.0419C41.4715 44.8088 42.1068 43.5758 42.7471 42.3511C43.4092 41.0846 44.0805 39.8181 44.7543 38.5558C45.3294 37.4783 45.9062 36.4007 46.4839 35.324C46.9863 34.3869 47.3374 33.5192 47.584 33.2826C47.7721 33.1012 48.4033 32.9766 49.0235 32.9022C49.643 32.8278 50.2232 32.8654 50.769 32.9917C51.5716 33.1764 52.2387 33.4866 52.7662 33.8962C53.2936 34.3066 53.5469 34.7823 53.5277 35.334C53.5344 36.3155 53.4475 37.3094 53.2995 38.2507C53.139 39.2698 52.8932 40.3097 52.5505 41.2727C52.2412 42.1421 51.8207 43.0366 51.3049 43.8349C50.8911 44.4753 50.3561 45.1374 49.7893 45.664C49.5126 45.8956 49.1999 46.1573 48.8488 46.4507C48.4977 46.7441 48.1541 47.03 47.8064 47.2925C47.2906 47.6837 47.0089 47.8409 46.9696 47.7556C46.9303 47.6703 47.0256 47.412 47.2488 46.9757C47.6292 46.235 47.7997 45.8438 48.104 45.0212C48.4283 44.2588 48.7151 43.4638 48.9558 42.6705C49.1138 42.0594 49.2409 41.4508 49.342 40.8489C49.4432 40.247 49.5234 39.6551 49.5887 39.0783C49.653 38.5023 49.6814 37.9682 49.7023 37.4691L49.7007 37.4683ZM42.1603 47.7707C43.1977 46.2818 44.2519 44.8063 45.3202 43.3392C46.9871 42.994 48.6449 42.6253 50.3143 42.2901C49.9239 43.2673 49.4725 44.2203 48.9558 45.1374C46.7255 46.0987 44.4634 46.9991 42.1603 47.7698V47.7707Z" fill="#9D123F"></path><path d="M4.78004 24.4214C3.16746 25.0233 1.56827 25.657 0 26.37C0.306798 22.1509 1.65186 18.4376 4.1447 15.0177C4.43646 14.6398 4.72486 14.3138 4.98736 14.0312C5.24985 13.7487 5.50649 13.4853 5.75393 13.2396C6.18947 12.809 6.61915 12.4019 7.05469 12.0207C7.49023 11.6395 7.85554 11.3269 8.14729 11.1338C8.75253 10.7333 9.71222 10.0963 10.2539 10.7384C10.9904 11.6111 10.8307 13.4226 10.7906 14.6248C10.743 16.04 10.4512 17.4846 9.96719 18.8313C9.50406 20.1195 8.77343 21.3952 7.85721 22.3465C6.99785 23.2394 5.99887 23.9767 4.77753 24.4214H4.78004ZM0.278376 23.8237C1.41696 23.2469 2.5639 22.6993 3.72756 22.176C3.42578 25.3543 3.51439 28.4683 3.98504 31.6257C3.85045 31.7378 3.63978 31.869 3.35639 32.0237C3.073 32.1783 2.78125 32.302 2.4803 32.3931C1.82825 32.5904 1.33587 32.5244 0.982256 32.1984C0.628644 31.8715 0.325189 31.2061 0.179732 30.1778C-0.071057 28.016 -0.0392904 25.9771 0.278376 23.8237ZM4.01931 20.0719C4.398 19.888 4.5886 19.7969 4.97565 19.6171C5.52572 19.3622 6.01475 18.9149 6.42939 18.3013C6.84319 17.6894 7.13578 16.8334 7.26368 16.1169C7.40914 15.3019 7.42753 14.7685 7.27455 14.5069C7.12157 14.2452 6.81393 14.2636 6.32072 14.5554C6.14516 14.659 5.99887 14.751 5.88184 14.8296C5.76396 14.909 5.63773 15.0043 5.50231 15.1163C4.80261 16.7105 4.36623 18.3715 4.01931 20.0719Z" fill="#9D123F"></path><path d="M26.5931 14.9321C27.4224 17.3188 27.6456 20.0933 26.8372 22.5603C26.2027 24.4964 25.1552 26.2611 23.5117 27.5877C22.2519 28.6043 20.5349 29.3475 18.9373 29.5163C17.5705 29.6609 15.9538 29.3249 14.8093 28.5366C13.4785 27.6204 12.5439 26.1215 11.9738 24.6351C11.1671 22.5335 10.8945 20.2321 10.9046 18.0285C10.9138 15.9996 11.1428 13.8863 11.9278 11.9594C12.4009 10.7991 13.0655 9.54433 14.016 8.76772C14.6931 8.21431 15.4689 7.74366 16.3651 7.57396C17.2746 7.40175 18.2309 7.48033 19.1154 7.65171C20.4471 7.91002 21.6542 8.59885 22.7577 9.40556C24.6118 10.7607 25.865 12.8347 26.5939 14.9321H26.5931ZM21.9042 15.4512C21.5397 13.9273 20.8784 12.1475 19.6579 11.0181C19.0034 10.4129 18.0997 10.0016 17.191 10.2164C16.3166 10.4238 15.7297 11.1711 15.443 11.9845C14.9038 13.5143 14.9874 15.2414 15.1212 16.8105C15.2691 18.541 15.5124 20.4988 16.4269 22.0395C16.9929 22.9933 17.991 23.7022 19.1396 23.5174C20.3593 23.321 21.3173 22.3312 21.7562 21.211C22.4701 19.3886 22.3364 17.2603 21.9033 15.4521L21.9042 15.4512Z" fill="#9D123F"></path><path d="M35.9168 19.8517C33.6865 19.733 31.4653 19.6987 29.2316 19.7472C28.445 15.6075 26.9411 10.5892 23.3214 7.9852C23.0346 7.7829 22.8858 7.66085 22.8616 7.58812C22.8382 7.51539 22.8825 7.47443 22.9853 7.45855C23.1767 7.43263 23.4551 7.46105 23.8229 7.53963C24.1908 7.61821 24.5293 7.72104 24.8646 7.82637C26.4763 8.33296 28.1357 8.70998 29.7842 9.08784C32.364 9.67886 35.0951 10.5491 37.1223 12.2411C38.3361 13.2543 39.4672 14.4271 39.9035 16.0121C40.1819 17.0245 39.9771 18.1923 39.2022 18.9346C38.2985 19.7999 37.1072 19.8433 35.9168 19.8517ZM28.4818 16.4635C30.096 16.4067 31.7027 16.3975 33.317 16.4334C34.7222 20.3625 35.136 24.3283 34.611 28.4663C34.3878 28.5424 34.0585 28.5833 33.6087 28.6318C33.1581 28.6803 32.6407 28.7179 32.1725 28.677C31.4887 28.6168 30.4655 28.5507 30.0542 27.8276C29.5577 26.9549 29.6245 25.8715 29.6153 24.8992C29.602 22.0152 29.2425 19.244 28.4818 16.4627V16.4635ZM32.1625 13.9983C32.6432 14.0125 32.8814 14.0225 33.3538 14.0468C34.0267 14.0819 34.4138 13.8578 34.4673 13.4073C34.5199 12.9567 34.1805 12.308 33.4282 11.5631C32.7669 10.9086 31.987 10.3769 31.1468 9.9773C30.4137 9.62871 29.7783 9.43643 29.199 9.37123C28.9925 9.34782 28.8253 9.33445 28.6983 9.3286C28.5712 9.32274 28.4525 9.32776 28.3438 9.34448C29.9639 10.6126 31.1301 12.2411 32.1633 13.9991L32.1625 13.9983Z" fill="#9D123F"></path><path d="M54.7923 15.0912C56.8889 17.8465 58.3451 21.5382 57.8853 25.1052C57.6003 27.3147 56.8345 29.713 55.0756 31.1016C53.9538 31.9877 52.4482 32.5336 50.9543 32.1658C49.5541 31.8213 48.301 30.5264 47.5043 29.4154C46.2913 27.7226 45.4805 25.6461 44.6504 23.6983C43.4633 20.9137 42.2252 18.0706 40.5056 15.6563C39.1547 13.7587 37.3624 11.6654 35.1421 10.8353C34.1891 10.4792 33.0681 10.2761 32.1836 9.72851C31.708 9.43425 31.7548 9.17176 32.5556 8.8474C33.9383 8.28814 35.4849 8.07915 36.9528 7.92617C39.7198 7.6386 42.5588 7.93202 45.243 8.6777C49.0308 9.73018 52.4649 12.0324 54.7914 15.0904L54.7923 15.0912ZM50.8498 15.1673C49.162 12.9754 46.8071 11.1388 44.1463 10.2075C42.8689 9.76028 41.3065 9.26789 39.9497 9.5981C39.2233 9.77532 39.3704 10.2008 40.2473 11.0635C41.7822 12.5733 43.3906 14.0287 44.6855 15.7115C46.1768 17.6493 47.3029 19.9699 48.6847 22.003C49.3401 22.9677 50.2521 24.4222 51.573 24.5518C52.9414 24.6856 53.3118 23.2126 53.4464 22.2571C53.7858 19.8395 52.3345 17.0959 50.8507 15.1681L50.8498 15.1673Z" fill="#9D123F"></path><path d="M29.8162 3.03635C29.8162 3.03635 29.807 3.02549 29.7886 3.00542C29.7702 2.98536 29.7427 2.9561 29.7075 2.91932C29.6716 2.88254 29.6273 2.83739 29.5755 2.7864C29.5495 2.76049 29.522 2.73374 29.4919 2.70531C29.4609 2.67773 29.4283 2.64763 29.3941 2.6167C29.3255 2.55568 29.2486 2.4888 29.1658 2.42025C29.0806 2.35254 28.9886 2.28064 28.8908 2.20875C28.8666 2.1912 28.8415 2.1728 28.8164 2.15441C28.7905 2.13686 28.7646 2.11847 28.7378 2.10008C28.6843 2.06413 28.63 2.02818 28.574 1.9914C28.518 1.95545 28.4611 1.91867 28.4009 1.88356C28.3407 1.84845 28.2797 1.81334 28.217 1.77907C27.718 1.50403 27.1211 1.27331 26.4807 1.17634C26.4005 1.16463 26.3202 1.15377 26.2391 1.14624C26.158 1.13788 26.077 1.13203 25.9942 1.12869C25.8287 1.122 25.6632 1.12367 25.4968 1.13537C25.3288 1.14791 25.1599 1.16965 24.9919 1.20225C24.9074 1.21813 24.8239 1.23736 24.7394 1.25826C24.655 1.28 24.5706 1.30424 24.4861 1.33183C24.4786 1.33433 24.4744 1.33517 24.4744 1.33517L24.4861 1.33183C24.5279 1.31929 24.6859 1.27331 24.9375 1.24907C25.0638 1.23653 25.2151 1.22817 25.3873 1.23318C25.5578 1.23903 25.7534 1.25575 25.9666 1.29504C26.0728 1.31511 26.184 1.34019 26.3002 1.37112C26.4164 1.40205 26.5342 1.44134 26.6588 1.48564C26.7833 1.52995 26.9096 1.58429 27.04 1.64615C27.1052 1.67708 27.1729 1.70968 27.2381 1.74563C27.3042 1.78157 27.371 1.81919 27.4396 1.85932C27.5775 1.93873 27.7121 2.03069 27.8534 2.13184C27.9244 2.182 27.9922 2.23634 28.0632 2.29318C28.1326 2.35003 28.2053 2.40855 28.2747 2.47124C28.5564 2.7212 28.839 3.02047 29.1132 3.37659C29.0471 3.40167 28.9803 3.42508 28.9125 3.44598C28.4795 3.58391 28.0172 3.65747 27.5508 3.67252C27.3184 3.67921 27.081 3.67419 26.8452 3.65413C26.7265 3.6441 26.6111 3.62989 26.4916 3.614C26.3729 3.59812 26.255 3.57806 26.1388 3.55465C25.3304 3.39415 24.6408 2.94273 23.9837 2.49883C23.697 2.30238 23.3634 2.16779 23.0432 2.11178C22.7239 2.05828 22.3962 2.04657 22.0811 2.09088C22.5835 1.52911 23.0633 1.07936 23.5398 0.747487C23.7781 0.581131 24.0146 0.444033 24.2512 0.334522C24.4878 0.224175 24.7202 0.144758 24.9543 0.0895845C25.0705 0.0619977 25.1875 0.0402627 25.302 0.0260513C25.4165 0.01184 25.5311 0.00348032 25.6448 0.000972436C25.8738 -0.00487931 26.0945 0.0160198 26.3144 0.0544741C26.7491 0.135562 27.1671 0.296067 27.5407 0.512582C28.2948 0.941431 28.8866 1.57676 29.262 2.10342C29.3088 2.16946 29.3539 2.23299 29.3949 2.29402C29.4359 2.35588 29.4726 2.41523 29.5078 2.47124C29.5429 2.52725 29.5746 2.58075 29.6039 2.63008C29.6331 2.6794 29.6574 2.72621 29.6808 2.76801C29.7259 2.85244 29.7602 2.91932 29.7828 2.9653C29.8062 3.01128 29.8171 3.03635 29.8171 3.03635H29.8162Z" fill="#9D123F"></path><path d="M30.2812 3.9613C30.2812 3.9613 30.2879 3.94876 30.303 3.92619C30.318 3.90362 30.3398 3.87018 30.3682 3.82671C30.3966 3.78408 30.4326 3.73225 30.4752 3.67289C30.4961 3.6428 30.5187 3.61187 30.5437 3.57843C30.5688 3.54583 30.5964 3.51072 30.6248 3.47477C30.6817 3.40204 30.7452 3.3243 30.8154 3.24154C30.8873 3.15961 30.9659 3.07351 31.0495 2.98573C31.0704 2.964 31.0921 2.94143 31.1139 2.91886C31.1364 2.89712 31.159 2.87455 31.1816 2.85198C31.2276 2.80684 31.2752 2.76253 31.3245 2.71655C31.3739 2.67141 31.4232 2.62543 31.4758 2.58113C31.5285 2.53598 31.5828 2.49168 31.6389 2.44654C32.0836 2.08958 32.6303 1.75854 33.2447 1.55206C33.3216 1.52614 33.3994 1.5019 33.478 1.48016C33.5557 1.45759 33.6351 1.43753 33.7162 1.42081C33.8776 1.3857 34.0414 1.35895 34.2078 1.34139C34.3758 1.32467 34.5455 1.31715 34.7169 1.31966C34.8021 1.32133 34.8882 1.32467 34.9752 1.33136C35.0621 1.33805 35.1499 1.34808 35.2377 1.35978C35.2452 1.36062 35.2494 1.36146 35.2494 1.36146L35.2377 1.35978C35.1942 1.35477 35.0304 1.33721 34.7787 1.35644C34.6525 1.36564 34.502 1.38403 34.3332 1.41914C34.166 1.45508 33.9762 1.50524 33.7731 1.58048C33.6719 1.6181 33.5666 1.6624 33.4579 1.71256C33.3484 1.76272 33.2397 1.82207 33.1244 1.88728C33.009 1.95248 32.8945 2.02772 32.7766 2.11132C32.7181 2.15311 32.6571 2.19658 32.5985 2.2434C32.54 2.29021 32.4798 2.3387 32.4196 2.39053C32.2976 2.49251 32.1806 2.60704 32.0593 2.73076C31.9983 2.79262 31.9406 2.85783 31.8804 2.92554C31.8219 2.99326 31.7601 3.06348 31.7024 3.13788C31.4675 3.43297 31.2418 3.77655 31.0336 4.17447C31.103 4.18701 31.1732 4.19871 31.2434 4.20875C31.694 4.26977 32.1622 4.26141 32.6245 4.19621C32.8543 4.16277 33.0876 4.11595 33.3166 4.05577C33.4312 4.02567 33.5432 3.9914 33.6577 3.95545C33.7714 3.91867 33.8843 3.87938 33.9954 3.83591C34.7637 3.53747 35.3656 2.97403 35.9357 2.42229C36.184 2.17986 36.4891 1.98926 36.7951 1.87808C37.1002 1.77024 37.4212 1.70169 37.7389 1.69083C37.147 1.22519 36.5961 0.864894 36.0695 0.620793C35.8061 0.497907 35.5495 0.404279 35.2979 0.336566C35.0454 0.268853 34.803 0.231234 34.5631 0.217023C34.4443 0.210335 34.3248 0.208663 34.2094 0.214515C34.0941 0.220367 33.9804 0.23207 33.8675 0.249626C33.641 0.283064 33.427 0.342417 33.2172 0.41849C32.8034 0.573143 32.4196 0.803869 32.0886 1.08141C31.4198 1.63398 30.9467 2.36294 30.6683 2.94644C30.6332 3.01917 30.6006 3.09023 30.5697 3.15711C30.5396 3.22482 30.5136 3.29002 30.4894 3.35105C30.4652 3.41207 30.4426 3.47059 30.4225 3.52409C30.4025 3.57759 30.3857 3.62775 30.3707 3.67373C30.3406 3.76401 30.3189 3.83674 30.3038 3.88607C30.2888 3.93539 30.2829 3.96214 30.2829 3.96214L30.2812 3.9613Z" fill="#9D123F"></path></svg>