<svg xmlns="http://www.w3.org/2000/svg" fill="none" viewBox="0 0 1179 1123" height="1123" width="1179"><path fill="#690324" d="M135.666 869.352C128.475 796.963 166.301 715.173 190.833 649.568C200.183 648.055 204.909 647.307 214.481 645.862C232.331 662.098 242.872 685.711 246.986 709.036C248.958 720.274 249.536 731.664 248.312 742.646C247.071 753.629 244.895 763.863 241.801 773.264C225.038 824.878 192.482 902.605 216.98 957.159C209.908 951.872 206.423 949.203 199.605 943.78C193.043 937.898 185.733 931.353 177.709 924.008C169.684 916.664 161.881 909.337 154.571 901.67C148.689 895.498 144.098 889.871 141.055 884.431C138.012 878.991 136.227 873.976 135.666 869.369V869.352ZM199.282 648.225C193.893 679.71 189.337 711.161 185.92 742.935C143.707 744.584 101.529 746.539 59.3506 748.664C55.9505 745.077 52.3124 740.674 48.5043 735.455C44.6961 730.253 41.398 724.303 38.7119 717.519C34.0538 705.789 33.1188 696.626 35.5668 689.894C38.0149 683.178 43.1151 678.724 50.8163 676.956C100.05 665.906 149.488 656.351 199.282 648.208V648.225ZM205.232 948.2C195.848 936.419 188.895 919.418 186.124 904.781C225.344 920.659 265.023 934.481 305.434 947.061C308.987 952.484 312.846 959.098 317.028 966.918C321.21 974.721 324.899 983.102 328.198 991.926C333.91 1007.18 336.324 1017.38 335.083 1022.19C333.842 1027 329.949 1027.51 323.25 1023.95C281.922 1001.45 242.753 976.642 205.232 948.217V948.2Z"></path><path fill="#690324" d="M373.882 891.966C347.957 887.971 322.048 883.84 296.173 879.505C274.48 801.336 257.701 722.301 245.579 642.092C249.37 640.613 254.997 638.522 262.58 635.802C270.145 633.082 277.676 631.246 285.122 630.328C302.038 628.236 315.536 631.127 323.595 639.134C335.665 651.136 339.15 671.707 340.986 688.452C349.861 756.659 360.724 824.44 373.882 891.949V891.966ZM454.958 1093.56C431.939 1085.82 411.777 1068.36 393.705 1051.11C373.457 1031.76 355.998 1008.08 340.748 984.211C324.36 958.557 311.422 930.354 302.48 901.232C297.856 885.727 295.612 877.89 291.311 862.113C317.56 865.836 343.825 869.406 370.125 872.807C373.287 889.331 374.919 897.525 378.302 913.795C382.247 933.227 389.591 952.165 401.1 968.333C411.522 982.953 422.725 992.015 435.033 995.109C447.359 998.203 456.658 994.004 462.438 982.29C470.327 966.293 469.63 946.266 467.164 928.755C464.92 911.126 463.815 902.235 461.69 884.367C491.577 888.039 521.481 891.677 551.385 895.315C552.371 911.721 553.391 928.126 554.445 944.532C555.618 977.173 555.04 1009.1 545.894 1040.76C540.046 1061 529.216 1081.52 511.026 1093.12C493.226 1104.46 472.061 1099.36 454.924 1093.59L454.958 1093.56ZM552.847 918.776C523.351 914.798 493.872 910.752 464.41 906.621C453.071 812.846 443.84 718.832 437.379 624.598C441.783 623.289 448.311 621.453 457.049 619.124C465.787 616.812 474.39 615.52 482.822 615.265C501.965 614.704 516.823 619.413 525.204 629.273C538.125 644.472 538.788 666.624 540.454 686.14C543.99 763.714 548.087 841.254 552.847 918.776Z"></path><path fill="#690324" d="M793.234 989.895C774.449 1019.9 753.538 1049.82 729.21 1075.48C715.406 1090.03 700.292 1108.17 680.725 1115.07C672.105 1118.11 661.123 1120.42 647.914 1121.89C634.687 1123.33 622.192 1121.7 611.6 1116.51C592.084 1106.98 586.185 1080.35 584.876 1059.92C578.024 931.344 572.448 802.718 567.926 674.041C567.501 661.92 569.541 652.569 574.097 646.007C578.636 639.445 584.689 634.022 592.237 629.958C609.849 621.237 629.077 617.276 647.608 615.423C664.829 613.706 683.853 613.128 701.516 614.862C738.425 618.5 774.228 629.295 803.843 653.181C829.769 674.092 847.704 706.308 855.015 738.864C864.569 781.4 857.463 824.666 846.905 865.688C835.753 909.057 817.069 951.796 793.234 989.877V989.895ZM765.779 797.975C762.685 781.332 757.754 763.277 745.293 749.931C734.838 738.745 723.209 731.979 704.679 731.69C699.153 731.605 693.526 731.809 687.831 732.302C682.136 732.795 676.339 733.594 670.473 734.682C668.688 827.182 666.342 919.648 663.282 1012.11C666.597 1012.51 670.728 1012.59 675.676 1012.35C680.623 1012.13 685.077 1011.55 688.97 1010.81C707.399 1007.25 720.251 988.092 728.972 973.149C746.5 943.109 757.346 907.68 762.668 873.679C766.561 848.79 770.284 822.218 765.779 797.992V797.975Z"></path><path fill="#690324" d="M1010.78 761.93C1009.57 761.913 1008.98 761.896 1007.77 761.879C1001.55 772.385 994.561 783.963 986.758 796.713C978.393 810.364 969.995 823.999 961.546 837.599C952.212 852.662 943.015 867.843 933.988 883.093C921.832 905.857 909.473 928.501 896.961 951.061C891.775 959.374 886.879 967.433 882.272 975.236C877.665 983.039 873.194 990.485 868.876 997.575C864.54 1004.66 860.358 1011.55 856.346 1018.21C852.317 1024.88 848.492 1033.21 844.429 1037.64C841.182 1041.18 834.568 1044.94 829.043 1048.88C823.518 1052.83 817.517 1056.41 811.108 1059.49C796.555 1066.48 787.783 1067.45 783.72 1062.87C779.657 1058.3 779.895 1048.95 784.349 1035.38C786.355 1029.26 788.888 1022.94 791.999 1016.43C795.093 1009.93 798.731 1002.28 802.828 993.512C811.771 974.318 821.121 955.192 830.709 936.288C843.426 911.212 856.346 886.136 869.369 861.23C882.833 835.474 896.484 809.718 910.187 784.048C921.883 762.134 933.614 740.22 945.361 718.323C955.578 699.266 962.719 681.619 967.734 676.808C971.559 673.119 984.394 670.586 997.009 669.073C1009.61 667.56 1021.4 668.325 1032.51 670.892C1048.83 674.649 1062.39 680.956 1073.12 689.286C1083.85 697.634 1089 707.307 1088.61 718.527C1088.74 738.486 1086.98 758.7 1083.97 777.842C1080.7 798.566 1075.7 819.715 1068.73 839.299C1062.44 856.98 1053.89 875.171 1043.4 891.406C1034.99 904.429 1024.11 917.893 1012.58 928.603C1006.95 933.312 1000.6 938.634 993.456 944.601C986.316 950.568 979.328 956.382 972.256 961.721C961.767 969.677 956.037 972.873 955.238 971.139C954.439 969.405 956.378 964.152 960.917 955.277C968.652 940.215 972.12 932.258 978.308 915.53C984.904 900.025 990.736 883.858 995.632 867.724C998.845 855.297 1001.43 842.921 1003.49 830.68C1005.54 818.44 1007.18 806.403 1008.5 794.673C1009.81 782.96 1010.39 772.096 1010.81 761.947L1010.78 761.93ZM857.434 971.445C878.532 941.167 899.97 911.161 921.696 881.325C955.595 874.304 989.308 866.806 1023.26 859.989C1015.32 879.863 1006.14 899.243 995.632 917.893C950.274 937.444 904.271 955.753 857.434 971.428V971.445Z"></path><path fill="#690324" d="M97.2092 496.754C64.4151 508.995 31.8931 521.881 0 536.383C6.23921 450.581 33.5931 375.064 84.2888 305.515C90.222 297.831 96.0872 291.2 101.425 285.454C106.764 279.708 111.983 274.353 117.015 269.355C125.872 260.599 134.61 252.32 143.468 244.568C152.325 236.816 159.754 230.457 165.688 226.53C177.996 218.387 197.513 205.433 208.529 218.489C223.506 236.238 220.259 273.078 219.443 297.525C218.474 326.307 212.541 355.684 202.698 383.071C193.279 409.269 178.421 435.212 159.788 454.559C142.312 472.715 121.996 487.71 97.1582 496.754H97.2092ZM5.66119 484.599C28.816 472.868 52.1407 461.733 75.8055 451.091C69.6683 515.727 71.4704 579.054 81.0417 643.265C78.3046 645.543 74.0205 648.212 68.2573 651.357C62.4941 654.502 56.5609 657.019 50.4407 658.872C37.1802 662.884 27.1669 661.541 19.9757 654.91C12.7844 648.263 6.61322 634.731 3.65512 613.82C-1.44505 569.857 -0.79903 528.392 5.66119 484.599ZM81.7387 408.3C89.44 404.56 93.3161 402.707 101.187 399.052C112.374 393.867 122.319 384.771 130.751 372.293C139.167 359.849 145.117 342.44 147.718 327.871C150.676 311.295 151.05 300.449 147.939 295.127C144.828 289.806 138.572 290.18 128.541 296.114C124.971 298.222 121.996 300.092 119.616 301.69C117.219 303.305 114.652 305.243 111.898 307.521C97.6682 339.941 88.794 373.721 81.7387 408.3Z"></path><path fill="#690324" d="M540.826 303.777C557.69 352.313 562.229 408.738 545.79 458.907C532.886 498.28 511.585 534.168 478.161 561.148C452.542 581.821 417.622 596.934 385.134 600.369C357.338 603.31 324.459 596.475 301.186 580.444C274.121 561.811 255.114 531.329 243.52 501.102C227.114 458.363 221.572 411.56 221.776 366.747C221.963 325.486 226.621 282.509 242.585 243.323C252.207 219.726 265.722 194.208 285.052 178.415C298.822 167.16 314.599 157.589 332.824 154.138C351.32 150.636 370.769 152.234 388.755 155.719C415.837 160.972 440.386 174.98 462.827 191.386C500.534 218.944 526.018 261.122 540.843 303.777H540.826ZM445.469 314.334C438.057 283.342 424.61 247.148 399.789 224.18C386.477 211.872 368.1 203.507 349.62 207.877C331.838 212.093 319.903 227.291 314.072 243.833C303.107 274.944 304.807 310.067 307.527 341.977C310.536 377.168 315.483 416.983 334.082 448.316C345.591 467.713 365.89 482.13 389.249 478.373C414.052 474.377 433.535 454.249 442.46 431.468C456.979 394.407 454.259 351.123 445.452 314.351L445.469 314.334Z"></path><path fill="#690324" d="M730.374 403.777C685.017 401.363 639.846 400.666 594.421 401.652C578.423 317.465 547.839 215.411 474.227 162.454C468.395 158.34 465.369 155.858 464.876 154.379C464.4 152.9 465.301 152.067 467.392 151.744C471.286 151.217 476.947 151.795 484.427 153.393C491.907 154.991 498.792 157.082 505.61 159.224C538.387 169.526 572.133 177.194 605.658 184.878C658.122 196.897 713.663 214.595 754.889 249.004C779.574 269.609 802.576 293.46 811.45 325.694C817.111 346.281 812.946 370.031 797.186 385.128C778.809 402.723 754.583 403.607 730.374 403.777ZM579.171 334.874C611.999 333.718 644.674 333.531 677.502 334.262C706.08 414.164 714.496 494.815 703.819 578.968C699.28 580.515 692.582 581.348 683.436 582.334C674.272 583.32 663.749 584.085 654.229 583.252C640.322 582.028 619.514 580.685 611.149 565.979C601.051 548.231 602.411 526.198 602.224 506.427C601.952 447.775 594.642 391.418 579.171 334.857V334.874ZM654.025 284.739C663.8 285.028 668.645 285.232 678.25 285.725C691.936 286.439 699.807 281.883 700.895 272.72C701.966 263.556 695.064 250.364 679.763 235.217C666.316 221.905 650.454 211.093 633.369 202.966C618.459 195.877 605.539 191.967 593.758 190.641C589.558 190.165 586.158 189.893 583.574 189.774C580.99 189.655 578.576 189.757 576.366 190.097C609.313 215.887 633.029 249.004 654.042 284.756L654.025 284.739Z"></path><path fill="#690324" d="M1114.28 306.97C1156.92 363.004 1186.53 438.078 1177.18 510.62C1171.38 555.552 1155.81 604.327 1120.04 632.565C1097.23 650.585 1066.61 661.687 1036.23 654.206C1007.75 647.202 982.27 620.868 966.069 598.275C941.401 563.848 924.91 521.619 908.029 482.008C883.888 425.379 858.71 367.56 823.74 318.462C796.267 279.871 759.818 237.301 714.664 220.42C695.284 213.178 672.486 209.047 654.499 197.911C644.826 191.927 645.778 186.589 662.064 179.993C690.183 168.619 721.634 164.369 751.487 161.258C807.759 155.41 865.493 161.377 920.082 176.541C997.112 197.945 1066.95 244.765 1114.26 306.953L1114.28 306.97ZM1034.1 308.517C999.781 263.941 951.89 226.591 897.777 207.652C871.8 198.557 840.026 188.544 812.434 195.259C797.661 198.863 800.653 207.516 818.487 225.061C849.7 255.764 882.409 285.362 908.743 319.584C939.072 358.992 961.971 406.185 990.073 447.53C1003.4 467.149 1021.95 496.73 1048.81 499.365C1076.64 502.085 1084.17 472.13 1086.91 452.699C1093.81 403.533 1064.3 347.737 1034.12 308.534L1034.1 308.517Z"></path><path fill="#690324" d="M606.434 61.7488C606.434 61.7488 606.247 61.5278 605.873 61.1198C605.499 60.7118 604.938 60.1168 604.224 59.3688C603.493 58.6207 602.592 57.7027 601.538 56.6657C601.011 56.1386 600.45 55.5946 599.838 55.0166C599.209 54.4556 598.546 53.8436 597.849 53.2146C596.455 51.9735 594.891 50.6135 593.208 49.2194C591.474 47.8424 589.604 46.3803 587.615 44.9183C587.122 44.5613 586.612 44.1872 586.102 43.8132C585.574 43.4562 585.047 43.0822 584.503 42.7082C583.415 41.9772 582.31 41.2462 581.171 40.4981C580.032 39.7671 578.876 39.0191 577.652 38.3051C576.428 37.591 575.187 36.877 573.912 36.18C563.763 30.5868 551.624 25.8946 538.602 23.9226C536.97 23.6846 535.338 23.4636 533.689 23.3106C532.04 23.1405 530.391 23.0215 528.708 22.9535C525.341 22.8175 521.975 22.8515 518.592 23.0895C515.175 23.3446 511.741 23.7866 508.324 24.4496C506.607 24.7726 504.907 25.1636 503.19 25.5886C501.473 26.0306 499.756 26.5237 498.039 27.0847C497.886 27.1357 497.801 27.1527 497.801 27.1527L498.039 27.0847C498.889 26.8297 502.102 25.8946 507.219 25.4016C509.786 25.1466 512.863 24.9766 516.365 25.0786C519.833 25.1976 523.811 25.5376 528.147 26.3367C530.306 26.7447 532.567 27.2547 534.93 27.8837C537.293 28.5127 539.69 29.3118 542.223 30.2128C544.756 31.1138 547.323 32.2188 549.975 33.4769C551.301 34.1059 552.678 34.7689 554.004 35.5C555.347 36.231 556.708 36.996 558.102 37.812C560.907 39.4271 563.644 41.2972 566.517 43.3542C567.962 44.3743 569.339 45.4793 570.784 46.6353C572.195 47.7914 573.674 48.9814 575.085 50.2565C580.814 55.3396 586.561 61.4258 592.137 68.6681C590.794 69.1781 589.434 69.6541 588.057 70.0791C579.25 72.8842 569.849 74.3803 560.363 74.6863C555.637 74.8223 550.808 74.7203 546.014 74.3123C543.6 74.1083 541.254 73.8192 538.823 73.4962C536.409 73.1732 534.012 72.7652 531.649 72.2892C515.209 69.0251 501.184 59.8448 487.821 50.8175C481.99 46.8223 475.207 44.0852 468.696 42.9462C462.201 41.8582 455.537 41.6202 449.128 42.5212C459.345 31.0968 469.104 21.9505 478.794 15.2013C483.639 11.8182 488.45 9.03008 493.261 6.803C498.073 4.55893 502.799 2.94387 507.559 1.82184C509.922 1.26082 512.302 0.818803 514.631 0.529793C516.96 0.240783 519.289 0.0707776 521.601 0.0197759C526.26 -0.099228 530.748 0.325786 535.219 1.10781C544.059 2.75687 552.559 6.02098 560.159 10.4241C575.493 19.1454 587.53 32.0658 595.163 42.7762C596.115 44.1192 597.033 45.4113 597.866 46.6523C598.699 47.9104 599.447 49.1174 600.161 50.2565C600.875 51.3955 601.521 52.4835 602.116 53.4866C602.711 54.4896 603.204 55.4416 603.68 56.2917C604.598 58.0087 605.295 59.3688 605.754 60.3038C606.23 61.2388 606.451 61.7488 606.451 61.7488H606.434Z"></path><path fill="#690324" d="M615.843 80.5577C615.843 80.5577 615.979 80.3027 616.285 79.8437C616.591 79.3847 617.033 78.7047 617.611 77.8206C618.189 76.9536 618.92 75.8996 619.787 74.6925C620.212 74.0805 620.671 73.4515 621.181 72.7715C621.691 72.1085 622.252 71.3944 622.83 70.6634C623.986 69.1844 625.278 67.6033 626.706 65.9202C628.168 64.2542 629.766 62.5031 631.466 60.7181C631.891 60.2761 632.333 59.817 632.775 59.358C633.234 58.916 633.693 58.457 634.152 57.998C635.087 57.08 636.056 56.1789 637.059 55.2439C638.063 54.3259 639.066 53.3908 640.137 52.4898C641.208 51.5718 642.313 50.6707 643.452 49.7527C652.496 42.4935 663.614 35.7612 676.11 31.5621C677.674 31.0351 679.255 30.5421 680.853 30.1001C682.434 29.641 684.049 29.233 685.698 28.893C688.979 28.179 692.311 27.635 695.694 27.278C699.112 26.938 702.563 26.785 706.048 26.836C707.782 26.87 709.533 26.938 711.301 27.074C713.069 27.21 714.854 27.414 716.639 27.652C716.792 27.669 716.877 27.686 716.877 27.686L716.639 27.652C715.755 27.55 712.423 27.193 707.306 27.584C704.739 27.771 701.679 28.145 698.245 28.859C694.844 29.59 690.985 30.6101 686.854 32.1401C684.797 32.9052 682.655 33.8062 680.445 34.8262C678.218 35.8463 676.008 37.0533 673.662 38.3793C671.316 39.7054 668.987 41.2354 666.589 42.9355C665.399 43.7855 664.158 44.6695 662.968 45.6216C661.778 46.5736 660.554 47.5596 659.33 48.6137C656.848 50.6877 654.468 53.0168 652.003 55.5329C650.762 56.7909 649.589 58.117 648.365 59.494C647.175 60.8711 645.917 62.2991 644.744 63.8122C639.967 69.8134 635.376 76.8006 631.143 84.8929C632.554 85.1479 633.982 85.3859 635.41 85.5899C644.574 86.8309 654.094 86.6609 663.495 85.3349C668.171 84.6549 672.914 83.7028 677.572 82.4788C679.901 81.8668 682.179 81.1698 684.508 80.4387C686.82 79.6907 689.115 78.8917 691.376 78.0077C707 71.9385 719.24 60.4801 730.835 49.2597C735.884 44.3295 742.089 40.4534 748.311 38.1923C754.516 35.9993 761.045 34.6052 767.505 34.3842C755.468 24.9149 744.265 17.5876 733.555 12.6235C728.2 10.1244 722.98 8.22034 717.863 6.84329C712.729 5.46624 707.799 4.70122 702.92 4.41221C700.506 4.2762 698.075 4.2422 695.728 4.36121C693.382 4.48021 691.07 4.71822 688.775 5.07523C684.168 5.75525 679.816 6.96229 675.549 8.50935C667.134 11.6544 659.33 16.3466 652.598 21.9908C638.998 33.2282 629.375 48.0527 623.714 59.9191C623 61.3981 622.337 62.8432 621.708 64.2032C621.096 65.5802 620.569 66.9063 620.076 68.1473C619.583 69.3884 619.124 70.5784 618.716 71.6664C618.308 72.7545 617.968 73.7745 617.662 74.7095C617.05 76.5456 616.608 78.0247 616.302 79.0277C615.996 80.0307 615.877 80.5747 615.877 80.5747L615.843 80.5577Z"></path></svg>