<svg xmlns="http://www.w3.org/2000/svg" width="78" height="78" viewBox="0 0 78 78" fill="none"><path d="M66.2799 60.984L60.9031 57.8797V43.3765L69.8396 38.2171C70.7062 39.0631 71.8898 39.5858 73.1939 39.5858C75.844 39.5858 78 37.4298 78 34.7796C78 32.1294 75.844 29.9735 73.1939 29.9735C70.5437 29.9735 68.3877 32.1294 68.3877 34.7796C68.3877 35.3028 68.4729 35.8061 68.6281 36.2781L59.7606 41.3977L47.0628 34.0667V19.4045L53.823 15.5014C54.8919 16.811 56.5176 17.6489 58.3358 17.6489C61.547 17.6489 64.1597 15.0363 64.1597 11.8249C64.1597 8.61352 61.5472 6.00097 58.3358 6.00097C55.1244 6.00097 52.5118 8.61352 52.5118 11.8249C52.5118 12.4 52.597 12.9553 52.753 13.4804L45.9202 17.4254L33.2224 10.0943V6.98222C34.6404 6.50401 35.6647 5.16232 35.6647 3.58495C35.6647 1.60829 34.0566 0 32.0798 0C30.103 0 28.4948 1.60829 28.4948 3.58495C28.4948 5.16232 29.5192 6.50386 30.9372 6.98222V10.0943L18.2394 17.4254L12.9669 14.3813C12.4204 14.0656 11.7216 14.2528 11.4061 14.7994C11.0906 15.3459 11.2779 16.0447 11.8243 16.3602L17.0968 19.4043V34.0665L8.16029 39.2259C7.29361 38.38 6.11005 37.8573 4.80599 37.8573C2.15597 37.8574 0 40.0134 0 42.6636C0 45.3137 2.15597 47.4697 4.80614 47.4697C7.45631 47.4697 9.61228 45.3137 9.61228 42.6636C9.61228 42.1404 9.52712 41.6371 9.37188 41.1651L18.2394 36.0454L30.9372 43.3765V58.0387L24.177 61.9418C23.1081 60.6322 21.4823 59.7943 19.6642 59.7943C16.453 59.7943 13.8403 62.4069 13.8403 65.6183C13.8403 68.8297 16.4528 71.4422 19.6642 71.4422C22.8756 71.4422 25.4882 68.8297 25.4882 65.6183C25.4882 65.0432 25.403 64.4879 25.247 63.9627L32.0798 60.0178L44.7776 67.3489V71.0179C43.3596 71.4961 42.3353 72.8378 42.3353 74.4152C42.3353 76.392 43.9436 78.0002 45.9202 78.0002C47.8969 78.0002 49.5052 76.3919 49.5052 74.4152C49.5052 72.838 48.4808 71.4963 47.0628 71.0179V67.3489L59.8984 59.9383L65.1375 62.9631C65.3174 63.067 65.5139 63.1163 65.7077 63.1163C66.1026 63.1163 66.4866 62.9113 66.6982 62.5449C67.0137 61.9983 66.8265 61.2995 66.2799 60.984ZM58.3358 8.28628C60.287 8.28628 61.8746 9.8737 61.8746 11.8251C61.8746 13.7764 60.2871 15.3639 58.3358 15.3639C56.3844 15.3639 54.797 13.7764 54.797 11.8251C54.797 9.8737 56.3846 8.28628 58.3358 8.28628ZM19.6642 69.1569C17.713 69.1569 16.1254 67.5695 16.1254 65.6181C16.1254 63.6667 17.7129 62.0793 19.6642 62.0793C21.6156 62.0793 23.203 63.6667 23.203 65.6181C23.203 67.5695 21.6154 69.1569 19.6642 69.1569ZM73.1939 32.2585C74.584 32.2585 75.7148 33.3893 75.7148 34.7795C75.7148 36.1696 74.584 37.3005 73.1939 37.3005C71.8037 37.3005 70.6729 36.1696 70.6729 34.7795C70.6729 33.3893 71.8037 32.2585 73.1939 32.2585ZM32.0798 2.28516C32.7966 2.28516 33.3796 2.86833 33.3796 3.58495C33.3796 4.30158 32.7964 4.88475 32.0798 4.88475C31.3632 4.88475 30.78 4.30158 30.78 3.58495C30.78 2.86833 31.3632 2.28516 32.0798 2.28516ZM4.80614 45.1847C3.416 45.1847 2.28516 44.0539 2.28516 42.6637C2.28516 41.2736 3.416 40.1426 4.80614 40.1426C6.19628 40.1426 7.32713 41.2734 7.32713 42.6636C7.32713 44.0537 6.19628 45.1847 4.80614 45.1847ZM45.9202 75.7148C45.2034 75.7148 44.6204 75.1317 44.6204 74.415C44.6204 73.6984 45.2036 73.1152 45.9202 73.1152C46.6368 73.1152 47.22 73.6984 47.22 74.415C47.22 75.1317 46.6368 75.7148 45.9202 75.7148ZM58.6179 58.0387L45.9201 65.3698L33.2222 58.0387V43.3765L40.0205 39.4515C40.567 39.136 40.7542 38.4372 40.4387 37.8908C40.1232 37.3443 39.4246 37.1571 38.878 37.4726L32.0796 41.3976L19.3818 34.0665V19.4043L32.0796 12.0732L44.7775 19.4043V34.0665L43.3135 34.9117C42.767 35.2272 42.5798 35.926 42.8953 36.4725C43.2108 37.0191 43.9096 37.2063 44.456 36.8906L45.9201 36.0454L58.6179 43.3765V58.0387Z" fill="#9D123F"></path><path d="M73.1939 61.6706C70.5437 61.6706 68.3877 63.8265 68.3877 66.4767C68.3877 69.1269 70.5437 71.2829 73.1939 71.2829C75.844 71.2829 78 69.1269 78 66.4767C78 63.8265 75.844 61.6706 73.1939 61.6706ZM73.1939 68.9979C71.8037 68.9979 70.6729 67.867 70.6729 66.4769C70.6729 65.0867 71.8037 63.9559 73.1939 63.9559C74.584 63.9559 75.7148 65.0866 75.7148 66.4767C75.7148 67.8669 74.584 68.9979 73.1939 68.9979Z" fill="#9D123F"></path><path d="M4.80614 15.6136C7.45631 15.6136 9.61228 13.4576 9.61228 10.8074C9.61228 8.15725 7.45631 6.00112 4.80614 6.00112C2.15597 6.00112 0 8.15709 0 10.8073C0 13.4574 2.15597 15.6136 4.80614 15.6136ZM4.80614 8.28628C6.19628 8.28628 7.32713 9.41713 7.32713 10.8073C7.32713 12.1974 6.19628 13.3282 4.80614 13.3282C3.416 13.3282 2.28516 12.1974 2.28516 10.8073C2.28516 9.41713 3.416 8.28628 4.80614 8.28628Z" fill="#9D123F"></path></svg>