<svg xmlns="http://www.w3.org/2000/svg" width="74" height="71" viewBox="0 0 74 71" fill="none"><path d="M13.3145 23.3752C13.5575 23.3752 13.8037 23.3138 14.0298 23.1847L20.1188 19.7081C20.8119 19.3124 21.053 18.4296 20.6573 17.7363C20.2615 17.0431 19.3789 16.802 18.6854 17.1978L12.5965 20.6743C11.9033 21.0701 11.6622 21.9529 12.058 22.6462C12.3248 23.1133 12.8126 23.3752 13.3145 23.3752Z" fill="#9D123F"></path><path d="M12.6038 9.35927L18.6883 12.8433C18.9148 12.973 19.1617 13.0346 19.4052 13.0346C19.9064 13.0346 20.3938 12.7734 20.6609 12.3073C21.0575 11.6145 20.8174 10.7314 20.1248 10.3349L14.0403 6.85078C13.3475 6.45419 12.4645 6.69411 12.0679 7.38685C11.6712 8.07959 11.9113 8.96253 12.6038 9.35927Z" fill="#9D123F"></path><path d="M60.7437 50.3359C61.542 50.3359 62.1891 49.6888 62.1891 48.8906C62.1891 48.0924 61.542 47.4453 60.7437 47.4453C59.9455 47.4453 59.2984 48.0924 59.2984 48.8906C59.2984 49.6888 59.9455 50.3359 60.7437 50.3359Z" fill="#9D123F"></path><path d="M60.7277 30.0177C61.5259 30.0177 62.173 29.3706 62.173 28.5724C62.173 27.7742 61.5259 27.1271 60.7277 27.1271C59.9295 27.1271 59.2824 27.7742 59.2824 28.5724C59.2824 29.3706 59.9295 30.0177 60.7277 30.0177Z" fill="#9D123F"></path><path d="M48.8516 8.74414C49.6498 8.74414 50.2969 8.09705 50.2969 7.29883C50.2969 6.5006 49.6498 5.85352 48.8516 5.85352C48.0533 5.85352 47.4062 6.5006 47.4062 7.29883C47.4062 8.09705 48.0533 8.74414 48.8516 8.74414Z" fill="#9D123F"></path><path d="M73.2729 47.6232L62.1648 41.2625L62.1685 35.0779C62.17 34.692 62.0197 34.3292 61.7465 34.056C61.4733 33.7829 61.1106 33.6311 60.7232 33.6311C59.9268 33.6311 59.2793 34.2801 59.2793 35.0764L59.275 41.2283L48.792 47.2136L38.4536 41.2945L38.4612 29.412L49.5771 23.0659C50.0266 22.8086 50.3055 22.3273 50.3055 21.8099L50.3012 13.8014C50.2998 13.0051 49.6523 12.3576 48.8545 12.3576C48.0581 12.3576 47.4091 13.0065 47.4106 13.8029L47.4149 20.9716L37.033 26.8991L26.6271 20.9406L26.6352 8.23987C26.6355 7.72144 26.3582 7.24246 25.9081 6.98476L14.0445 0.191215C13.6001 -0.063449 13.0544 -0.063738 12.6096 0.190348L0.737254 6.96886C0.287039 7.22598 0.00896116 7.70453 0.00852757 8.22311L2.25727e-07 21.7949C-0.000288837 22.3133 0.277067 22.7923 0.727137 23.05L11.8347 29.4104L11.8266 42.1112C11.8263 42.6296 12.1036 43.1086 12.5537 43.3663L23.5819 49.6813L23.5736 62.5807C23.5733 63.0992 23.8507 63.5781 24.3008 63.8358L36.1643 70.6292C36.3869 70.7567 36.6346 70.8203 36.8825 70.8203C37.1296 70.8203 37.3771 70.757 37.5991 70.6301L49.4715 63.8516C49.9217 63.5945 50.1997 63.1159 50.2002 62.5974L50.2084 49.799L60.7474 43.7815L71.1094 49.7153V63.7383C71.1094 64.5365 71.7564 65.1836 72.5547 65.1836C73.3529 65.1836 74 64.5365 74 63.7383V48.8773C74 48.3591 73.7226 47.8806 73.2729 47.6232ZM2.89872 9.06327L13.3252 3.11031L23.744 9.07627L23.7365 20.906L13.2529 26.8915L2.8912 20.9582L2.89872 9.06327ZM14.7251 29.4449L25.2087 23.4593L35.5706 29.3926L35.5631 41.2877L25.1366 47.2406L14.7178 41.2745L14.7251 29.4449ZM47.3098 61.7572L36.8834 67.7101L26.4645 61.7442L26.4721 49.8493L36.8985 43.8963L47.3174 49.8623L47.3098 61.7572Z" fill="#9D123F"></path><path d="M42.2589 57.9838L36.17 61.4603C35.4768 61.8561 35.2357 62.7388 35.6314 63.4322C35.8981 63.8993 36.3859 64.161 36.8878 64.161C37.1308 64.161 37.3771 64.0996 37.6031 63.9705L43.6921 60.494C44.3853 60.0983 44.6263 59.2155 44.2306 58.5221C43.8349 57.8291 42.9524 57.5879 42.2589 57.9838Z" fill="#9D123F"></path><path d="M35.6413 48.1726C35.2447 48.8653 35.4847 49.7484 36.1773 50.145L42.2618 53.629C42.4883 53.7587 42.7351 53.8203 42.9787 53.8203C43.4799 53.8203 43.9673 53.5591 44.2344 53.093C44.631 52.4002 44.3909 51.5172 43.6983 51.1206L37.6138 47.6365C36.9208 47.24 36.0379 47.48 35.6413 48.1726Z" fill="#9D123F"></path><path d="M30.8074 50.922C30.0096 50.922 29.3617 51.5685 29.3612 52.3664L29.3568 59.2305C29.3563 60.0287 30.003 60.6762 30.8012 60.6767C31.599 60.6767 32.2469 60.0302 32.2474 59.2322L32.2519 52.3682C32.2523 51.57 31.6057 50.9226 30.8074 50.922Z" fill="#9D123F"></path><path d="M67.5452 51.1207L67.1059 50.8692C66.8876 50.7435 66.639 50.677 66.389 50.677C65.8716 50.677 65.3903 50.9559 65.133 51.4054C64.8035 51.9792 64.9061 52.7019 65.3816 53.1615L65.3773 61.9837C65.3773 62.7815 66.0262 63.4304 66.8226 63.4304C67.6189 63.4304 68.2679 62.7829 68.2693 61.9851C68.2693 61.9851 68.2679 61.9851 68.2679 61.9837L68.2737 52.3752C68.2737 51.8578 67.9947 51.378 67.5452 51.1207Z" fill="#9D123F"></path></svg>