<svg xmlns="http://www.w3.org/2000/svg" width="71" height="73" viewBox="0 0 71 73" fill="none"><path d="M19.0723 52.1873C18.0086 52.199 16.9925 52.6298 16.2445 53.3862C15.4965 54.1425 15.077 55.1633 15.0771 56.227C15.0771 57.2907 15.4966 58.3115 16.2446 59.0678C16.9927 59.8241 18.0088 60.2548 19.0724 60.2666C20.1361 60.2548 21.1522 59.824 21.9001 59.0677C22.6481 58.3114 23.0676 57.2906 23.0676 56.2268C23.0676 55.1631 22.648 54.1423 21.9 53.386C21.152 52.6298 20.1359 52.199 19.0723 52.1873ZM19.0723 57.6737C18.6922 57.6681 18.3296 57.5132 18.0629 57.2425C17.7961 56.9718 17.6466 56.607 17.6466 56.2269C17.6466 55.8468 17.7961 55.482 18.0629 55.2113C18.3297 54.9406 18.6923 54.7857 19.0723 54.7801C19.4524 54.7857 19.8149 54.9406 20.0817 55.2113C20.3485 55.4821 20.498 55.8469 20.498 56.227C20.498 56.607 20.3484 56.9718 20.0817 57.2426C19.8149 57.5133 19.4523 57.6681 19.0723 57.6737Z" fill="#9D123F"></path><path d="M33.9155 45.3297C32.4887 45.3424 31.1247 45.9181 30.1203 46.9315C29.1159 47.9449 28.5523 49.314 28.5524 50.7408C28.5524 52.1677 29.1159 53.5368 30.1204 54.5502C31.1248 55.5635 32.4889 56.1392 33.9156 56.1519C35.3424 56.1392 36.7064 55.5635 37.7108 54.55C38.7152 53.5366 39.2788 52.1675 39.2787 50.7407C39.2787 49.3139 38.7152 47.9448 37.7107 46.9314C36.7063 45.918 35.3423 45.3423 33.9155 45.3297ZM33.9155 53.559C33.1736 53.5506 32.4649 53.2499 31.9433 52.7223C31.4216 52.1947 31.1291 51.4827 31.1291 50.7407C31.1291 49.9988 31.4217 49.2868 31.9433 48.7592C32.465 48.2316 33.1737 47.931 33.9156 47.9226C34.6578 47.9305 35.3669 48.231 35.8889 48.7586C36.4109 49.2863 36.7037 49.9986 36.7037 50.7408C36.7037 51.4831 36.4109 52.1954 35.8888 52.723C35.3668 53.2507 34.6577 53.5511 33.9155 53.559Z" fill="#9D123F"></path><path d="M70.0637 58.0238L63.693 54.3454V46.9876C63.693 46.76 63.6331 46.5364 63.5194 46.3392C63.4056 46.1421 63.2419 45.9784 63.0447 45.8646L56.0258 41.812C55.8287 41.6982 55.6051 41.6382 55.3776 41.6382C55.15 41.6382 54.9264 41.6982 54.7293 41.812L49.7115 44.7092L40.6749 24.3766V7.38181C41.4778 7.02306 42.1341 6.40084 42.5351 5.61817C42.9361 4.83551 43.0577 3.93936 42.8798 3.07813C42.702 2.2169 42.2353 1.44225 41.5571 0.882463C40.8788 0.322677 40.0297 0.0113368 39.1504 0H19.1786C18.2987 0.0103882 17.4489 0.321244 16.7699 0.881006C16.091 1.44077 15.6238 2.2158 15.4459 3.07755C15.268 3.9393 15.39 4.83598 15.7917 5.61886C16.1934 6.40175 16.8506 7.02379 17.6544 7.38181L17.6543 24.3766L0.529736 62.9063C0.107693 63.882 -0.0664765 64.9469 0.0227419 66.0061C0.11196 67.0654 0.461796 68.0862 1.04109 68.9775C1.62038 69.8689 2.41114 70.6031 3.34292 71.1148C4.27471 71.6265 5.31859 71.8997 6.38157 71.9103L46.8043 71.9104C47.1614 72.0689 47.9054 72.6671 48.3472 72.6004C48.4801 72.9836 55.1204 68.7721 55.3719 68.7455L61.7483 72.427C61.9454 72.5407 62.169 72.6005 62.3965 72.6005C62.6241 72.6005 62.8476 72.5407 63.0447 72.427L70.0637 68.3744C70.2609 68.2606 70.4245 68.0969 70.5383 67.8998C70.6521 67.7026 70.712 67.479 70.7119 67.2514V59.1467C70.712 58.9191 70.6521 58.6955 70.5383 58.4984C70.4245 58.3013 70.2609 58.1376 70.0637 58.0238ZM19.1786 2.59293H39.1506C39.4797 2.59938 39.7931 2.73464 40.0236 2.96965C40.254 3.20467 40.3831 3.5207 40.3831 3.84986C40.3831 4.17901 40.254 4.49503 40.0235 4.73003C39.793 4.96503 39.4796 5.10026 39.1505 5.10668H19.1786C18.8495 5.10025 18.5361 4.965 18.3056 4.72999C18.0751 4.49498 17.9461 4.17896 17.9461 3.84981C17.9461 3.52065 18.0751 3.20463 18.3056 2.96962C18.5361 2.73461 18.8495 2.59936 19.1786 2.59293ZM20.1357 25.1786C20.2537 24.5918 20.2912 23.9917 20.2471 23.3948H24.5593C24.8989 23.3883 25.2224 23.2489 25.4603 23.0065C25.6982 22.764 25.8314 22.438 25.8314 22.0983C25.8314 21.7587 25.6982 21.4326 25.4603 21.1902C25.2224 20.9477 24.8989 20.8083 24.5593 20.8019H20.2472V17.0113H24.5593C24.8988 17.0047 25.2221 16.8652 25.4598 16.6228C25.6976 16.3804 25.8307 16.0544 25.8307 15.7149C25.8307 15.3754 25.6976 15.0494 25.4598 14.807C25.2221 14.5646 24.8988 14.4251 24.5593 14.4185H20.2472V7.69955H38.082V24.652C38.082 24.8334 38.12 25.0128 38.1935 25.1786L42.903 35.7756C39.158 35.3029 38.7213 33.406 34.1801 33.4556C29.0995 33.4057 29.0648 35.7643 24.3897 35.8275C20.4843 35.8404 20.0359 34.0623 16.4058 33.5712L20.1357 25.1786ZM6.38142 69.3176C5.74827 69.313 5.12615 69.1514 4.57078 68.8473C4.01541 68.5432 3.54413 68.1062 3.19914 67.5752C2.85415 67.0443 2.64623 66.4361 2.594 65.8051C2.54177 65.1741 2.64686 64.54 2.89985 63.9596L15.2958 36.0686C16.5709 36.132 17.8146 36.4862 18.9318 37.1042C20.6063 38.0084 22.4871 38.462 24.3897 38.4202C26.2927 38.4619 28.1738 38.0087 29.8489 37.1048C31.172 36.3712 32.6678 36.0063 34.1801 36.0483C35.6924 36.0063 37.1882 36.3712 38.5112 37.1048C40.1863 38.0087 42.0675 38.4619 43.9704 38.4202C44.0056 38.4202 44.0351 38.403 44.0695 38.4002L47.4692 46.05C47.3411 46.1704 47.239 46.3157 47.169 46.4769C47.099 46.6381 47.0627 46.8119 47.0621 46.9877V54.3389L40.68 58.0238C40.4828 58.1376 40.3191 58.3013 40.2054 58.4984C40.0916 58.6956 40.0317 58.9192 40.0318 59.1468V67.2514C40.0317 67.479 40.0916 67.7027 40.2054 67.8998C40.3191 68.0969 40.4828 68.2606 40.68 68.3744L42.3136 69.3176L6.38142 69.3176ZM54.0697 66.5031L48.3472 69.8069L42.6246 66.5031V59.895L48.3472 56.5912L54.0697 59.895V66.5031ZM49.655 54.344V47.7358L55.3776 44.4321L61.1001 47.7358V54.344L55.3776 57.6478L49.655 54.344ZM68.1191 66.5031L62.3965 69.8069L56.674 66.5031V59.895L62.3965 56.5912L68.1191 59.895V66.5031Z" fill="#9D123F"></path></svg>