<svg xmlns="http://www.w3.org/2000/svg" width="153" height="27" viewBox="0 0 153 27" fill="none"><rect y="0.527344" width="153" height="26" rx="5" fill="#F3C300"></rect><path d="M22.7675 18.7946C21.8581 18.7946 21.0893 18.6492 20.4611 18.3586C19.8423 18.0679 19.3689 17.6695 19.0407 17.1632C18.7126 16.6475 18.5485 16.0662 18.5485 15.4193H20.5033C20.5033 15.6912 20.5783 15.9584 20.7283 16.2209C20.8783 16.4741 21.1174 16.6803 21.4456 16.8397C21.7831 16.9991 22.2238 17.0788 22.7675 17.0788C23.2551 17.0788 23.6629 17.0085 23.9911 16.8678C24.3192 16.7272 24.563 16.5444 24.7224 16.3194C24.8818 16.085 24.9615 15.8225 24.9615 15.5318C24.9615 15.1662 24.8068 14.8755 24.4974 14.6599C24.188 14.4348 23.7098 14.2942 23.0629 14.238L22.1628 14.1676C21.1784 14.0833 20.3908 13.7786 19.8001 13.2535C19.2188 12.7191 18.9282 12.0159 18.9282 11.144C18.9282 10.4877 19.0829 9.92514 19.3923 9.45635C19.7017 8.97819 20.133 8.61254 20.6861 8.35939C21.2487 8.09687 21.905 7.96561 22.655 7.96561C23.4332 7.96561 24.1036 8.10156 24.6661 8.37346C25.2287 8.64535 25.6646 9.02976 25.974 9.52667C26.2834 10.0142 26.4381 10.5908 26.4381 11.2565H24.4833C24.4833 10.9752 24.413 10.7174 24.2723 10.483C24.1411 10.2392 23.9395 10.047 23.6676 9.90638C23.4051 9.75637 23.0676 9.68137 22.655 9.68137C22.2613 9.68137 21.9331 9.747 21.6706 9.87826C21.4081 10.0095 21.2112 10.1877 21.0799 10.4127C20.9487 10.6377 20.883 10.8815 20.883 11.144C20.883 11.4628 21.0002 11.744 21.2346 11.9878C21.469 12.2222 21.8394 12.3581 22.3456 12.3956L23.2457 12.48C23.977 12.5363 24.6192 12.691 25.1724 12.9441C25.7256 13.1973 26.1522 13.5395 26.4522 13.9708C26.7616 14.402 26.9163 14.9224 26.9163 15.5318C26.9163 16.1787 26.7475 16.7506 26.41 17.2476C26.0725 17.7351 25.5896 18.1148 24.9615 18.3867C24.3427 18.6586 23.6114 18.7946 22.7675 18.7946ZM33.5659 18.7946C32.6377 18.7946 31.8314 18.6305 31.147 18.3023C30.472 17.9742 29.9094 17.5476 29.4594 17.0225C29.0187 16.4881 28.6859 15.9162 28.4609 15.3068C28.2452 14.688 28.1374 14.0926 28.1374 13.5207V13.2113C28.1374 12.5831 28.2499 11.9597 28.4749 11.3409C28.6999 10.7127 29.0375 10.1455 29.4875 9.63918C29.9469 9.13289 30.5141 8.72973 31.1892 8.42971C31.8642 8.12031 32.6565 7.96561 33.5659 7.96561C34.466 7.96561 35.2536 8.12031 35.9286 8.42971C36.6037 8.72973 37.1662 9.13289 37.6162 9.63918C38.0757 10.1455 38.4179 10.7127 38.6429 11.3409C38.8679 11.9597 38.9804 12.5831 38.9804 13.2113V13.5207C38.9804 14.0926 38.8679 14.688 38.6429 15.3068C38.4272 15.9162 38.0944 16.4881 37.6444 17.0225C37.2037 17.5476 36.6412 17.9742 35.9567 18.3023C35.2817 18.6305 34.4848 18.7946 33.5659 18.7946ZM33.5659 16.9382C34.091 16.9382 34.5598 16.8444 34.9723 16.6569C35.3942 16.4694 35.7505 16.2115 36.0411 15.8834C36.3411 15.5459 36.5662 15.1662 36.7162 14.7442C36.8756 14.313 36.9553 13.8582 36.9553 13.3801C36.9553 12.8644 36.8756 12.3909 36.7162 11.9597C36.5662 11.5284 36.3411 11.1534 36.0411 10.8346C35.7505 10.5158 35.3942 10.2673 34.9723 10.0892C34.5504 9.91107 34.0816 9.822 33.5659 9.822C33.0409 9.822 32.5674 9.91107 32.1455 10.0892C31.7236 10.2673 31.3626 10.5158 31.0626 10.8346C30.772 11.1534 30.547 11.5284 30.3876 11.9597C30.2376 12.3909 30.1626 12.8644 30.1626 13.3801C30.1626 13.8582 30.2376 14.313 30.3876 14.7442C30.547 15.1662 30.772 15.5459 31.0626 15.8834C31.3626 16.2115 31.7236 16.4694 32.1455 16.6569C32.5674 16.8444 33.0409 16.9382 33.5659 16.9382ZM40.9104 18.5273V8.26095H43.6387L46.2124 14.3927H46.4655L49.0251 8.26095H51.7956V18.5273H49.8126V9.76575L50.0658 9.79388L47.2953 16.4319H45.256L42.4715 9.79388L42.7387 9.76575V18.5273H40.9104ZM54.3285 18.5273V8.26095H56.2833V18.5273H54.3285ZM56.002 18.5273V16.8397H60.6571V18.5273H56.002ZM56.002 14.1536V12.466H60.2914V14.1536H56.002ZM56.002 9.94858V8.26095H60.5446V9.94858H56.002ZM62.7062 18.5273V8.26095H65.983L70.3005 16.8678H70.7646L70.4833 17.121V8.26095H72.3678V18.5273H69.077L64.7594 9.92045H64.2813L64.5626 9.6673V18.5273H62.7062ZM76.9271 18.5273V9.73762H78.9241V18.5273H76.9271ZM73.9597 10.0189V8.26095H81.8915V10.0189H73.9597ZM83.4856 18.5273V8.26095H85.4405V18.5273H83.4856ZM85.1592 18.5273V16.8397H89.8142V18.5273H85.1592ZM85.1592 14.1536V12.466H89.4486V14.1536H85.1592ZM85.1592 9.94858V8.26095H89.7017V9.94858H85.1592ZM101.635 18.5273V8.26095H103.632V18.5273H101.635ZM94.8985 18.5273V8.26095H96.8955V18.5273H94.8985ZM96.5299 14.2661V12.5081H102.001V14.2661H96.5299ZM110.984 18.7946C110.056 18.7946 109.25 18.6305 108.565 18.3023C107.89 17.9742 107.328 17.5476 106.878 17.0225C106.437 16.4881 106.104 15.9162 105.879 15.3068C105.663 14.688 105.556 14.0926 105.556 13.5207V13.2113C105.556 12.5831 105.668 11.9597 105.893 11.3409C106.118 10.7127 106.456 10.1455 106.906 9.63918C107.365 9.13289 107.932 8.72973 108.607 8.42971C109.282 8.12031 110.075 7.96561 110.984 7.96561C111.884 7.96561 112.672 8.12031 113.347 8.42971C114.022 8.72973 114.584 9.13289 115.034 9.63918C115.494 10.1455 115.836 10.7127 116.061 11.3409C116.286 11.9597 116.399 12.5831 116.399 13.2113V13.5207C116.399 14.0926 116.286 14.688 116.061 15.3068C115.845 15.9162 115.513 16.4881 115.063 17.0225C114.622 17.5476 114.059 17.9742 113.375 18.3023C112.7 18.6305 111.903 18.7946 110.984 18.7946ZM110.984 16.9382C111.509 16.9382 111.978 16.8444 112.391 16.6569C112.812 16.4694 113.169 16.2115 113.459 15.8834C113.759 15.5459 113.984 15.1662 114.134 14.7442C114.294 14.313 114.373 13.8582 114.373 13.3801C114.373 12.8644 114.294 12.3909 114.134 11.9597C113.984 11.5284 113.759 11.1534 113.459 10.8346C113.169 10.5158 112.812 10.2673 112.391 10.0892C111.969 9.91107 111.5 9.822 110.984 9.822C110.459 9.822 109.986 9.91107 109.564 10.0892C109.142 10.2673 108.781 10.5158 108.481 10.8346C108.19 11.1534 107.965 11.5284 107.806 11.9597C107.656 12.3909 107.581 12.8644 107.581 13.3801C107.581 13.8582 107.656 14.313 107.806 14.7442C107.965 15.1662 108.19 15.5459 108.481 15.8834C108.781 16.2115 109.142 16.4694 109.564 16.6569C109.986 16.8444 110.459 16.9382 110.984 16.9382ZM121.282 18.7946C120.541 18.7946 119.89 18.6492 119.327 18.3586C118.765 18.0679 118.329 17.6413 118.019 17.0788C117.71 16.5163 117.555 15.8271 117.555 15.0115V14.5614H119.538V15.1802C119.538 15.724 119.697 16.1553 120.016 16.4741C120.335 16.7835 120.752 16.9382 121.268 16.9382C121.793 16.9382 122.21 16.7835 122.52 16.4741C122.838 16.1553 122.998 15.724 122.998 15.1802V9.73762H124.995V15.0115C124.995 15.8271 124.84 16.5163 124.531 17.0788C124.221 17.6413 123.79 18.0679 123.237 18.3586C122.684 18.6492 122.032 18.7946 121.282 18.7946ZM118.807 10.0189V8.26095H124.995V10.0189H118.807ZM127.352 18.5273V8.26095H129.307V18.5273H127.352ZM129.025 18.5273V16.8397H133.68V18.5273H129.025ZM129.025 14.1536V12.466H133.315V14.1536H129.025ZM129.025 9.94858V8.26095H133.568V9.94858H129.025Z" fill="#882301"></path></svg>