<svg xmlns="http://www.w3.org/2000/svg" width="295" height="103" viewBox="0 0 295 103" fill="none"><path d="M25.9411 46.8114C33.4687 46.8114 38.091 39.0196 38.091 24.4926C38.091 9.56936 34.129 2.10774 25.9411 2.10774C18.2814 2.10774 13.7912 9.96555 13.7912 25.0869C13.7912 39.4819 17.9512 46.8114 25.9411 46.8114ZM50.3069 24.4926C50.3069 31.6241 47.5996 38.0292 42.7132 42.5854C38.4211 46.6133 32.3462 48.9244 25.9411 48.9244C19.4699 48.9244 13.527 46.6133 9.23496 42.5854C4.34859 37.9631 1.64128 31.6241 1.64128 24.4926C1.64128 17.3611 4.34859 10.956 9.23496 6.33379C13.527 2.30583 19.4699 -0.00528831 25.9411 -0.00528831C32.4122 -0.00528831 38.4872 2.30583 42.7132 6.33379C47.5996 10.956 50.3069 17.3611 50.3069 24.4926ZM54.2281 48V46.019L55.4827 45.953C57.2655 45.8209 57.8598 45.0286 57.8598 43.0476V22.6437H53.8319L55.0204 19.5402H57.8598C57.9258 14.918 59.7747 10.2297 63.5386 5.60744C66.576 1.84361 69.9437 -0.00528831 73.5754 -0.00528831C77.6034 -0.00528831 80.3767 2.56996 80.3767 5.9376C80.3767 8.24872 78.858 9.70142 76.4808 9.70142C74.3678 9.70142 72.9151 8.64491 72.1227 6.66395C71.3304 4.74902 71.8586 2.70203 70.0097 2.70203C67.6986 2.70203 66.9722 5.87157 66.9722 12.0125V19.5402H73.9716L72.7831 22.6437H66.9722V43.0476C66.9722 45.0286 67.5665 45.887 69.3494 45.953L71.5284 46.019V48H54.2281ZM85.0918 29.511H96.6474C96.6474 29.1148 96.7135 28.7186 96.7135 28.3885C96.7135 23.4361 94.6005 20.6627 91.2988 20.6627C87.469 20.6627 85.1579 23.7662 85.0918 29.511ZM85.1579 31.7561V32.6806C85.1579 39.0857 88.9877 42.9816 94.8646 42.9816C98.7605 42.9816 101.864 41.0666 105.364 37.3028L106.354 38.4914C103.185 45.4248 98.1662 48.9244 91.4969 48.9244C82.4506 48.9244 75.9794 42.6514 75.9794 33.7371C75.9794 25.417 82.8468 18.6818 91.8931 18.6818C99.883 18.6818 105.298 23.7662 105.826 31.7561H85.1579ZM108.783 48V46.019L109.906 45.953C111.755 45.8209 112.283 45.0286 112.283 43.0476V25.9453C112.283 24.8228 112.283 24.4926 111.161 24.0964L108.783 23.172V21.7853C112.547 21.4551 116.245 20.2665 120.141 18.8138H121.263V24.9548C124.235 21.3231 126.48 19.4081 129.451 19.4081C132.489 19.4081 134.404 21.3231 134.404 24.4926C134.404 27.332 132.687 29.1148 130.046 29.1148C126.612 29.1148 125.49 25.8132 123.971 25.8132C122.32 25.8132 121.263 27.1999 121.263 30.0393V43.0476C121.263 45.0286 121.726 45.887 123.575 45.953L125.754 46.019V48H108.783ZM139.42 22.6437H136.515V21.3891C140.345 18.3516 143.778 14.8519 146.882 11.0881L148.004 11.7484V19.5402H157.183L155.862 22.6437H148.004V40.6044C148.004 44.3682 148.401 46.0851 151.306 46.0851C153.287 46.0851 155.334 45.2267 156.721 43.7079L157.777 44.4343C155.598 47.3397 151.9 48.9905 147.476 48.9905C144.373 48.9905 142.061 48.066 140.807 46.6133C139.486 45.0286 139.42 42.7174 139.42 39.4819V22.6437ZM176.855 44.3682C172.298 47.2076 168.865 48.9244 165.893 48.9244C162.262 48.9244 159.488 46.4152 159.488 42.8495C159.488 38.4914 163.45 35.9822 171.308 32.8126L176.591 30.6336V24.6907C176.591 22.1815 175.6 20.9269 173.619 20.9269C170.648 20.9269 167.61 22.7097 167.61 25.0869C167.61 25.8793 167.94 26.8697 167.94 28.0583C167.94 31.0298 166.025 33.2088 163.318 33.2088C160.875 33.2088 159.422 31.8222 159.422 29.445C159.422 27.464 160.809 25.417 163.516 23.3701C167.61 20.2665 171.902 18.7478 176.525 18.7478C184.052 18.7478 185.241 21.5872 185.241 28.0583V42.9155C185.241 44.4343 185.439 45.1606 186.561 45.1606C187.552 45.1606 188.608 44.6984 189.797 43.7739L190.391 45.2927C187.684 47.4717 184.845 48.5943 182.071 48.5943C178.704 48.5943 176.987 47.2076 176.855 44.3682ZM176.591 41.859V32.8126L173.553 34.0012C169.327 35.652 167.082 37.9631 167.082 40.5384C167.082 42.7835 168.469 44.1701 170.516 44.1701C172.431 44.1701 174.478 43.4438 176.591 41.859ZM192.452 46.4152V36.9066H193.641C195.292 43.3117 199.32 47.0095 203.546 47.0095C206.121 47.0095 207.706 45.6228 207.706 43.3778C207.706 40.5384 205.328 39.4158 201.433 37.3028C195.952 34.3314 192.452 32.8787 192.452 27.9263C192.452 22.8418 196.81 18.6818 202.687 18.6818C205.857 18.6818 208.63 19.2761 211.205 20.7288L211.734 29.0488H210.743C208.432 23.7002 204.866 20.8608 201.697 20.8608C199.716 20.8608 198.461 22.1154 198.461 23.8323C198.461 26.4736 201.036 27.1999 205.196 28.9828C211.271 31.558 213.913 34.4634 213.913 39.8781C213.913 45.0286 209.819 48.9244 203.149 48.9244C199.848 48.9244 196.282 48.066 192.452 46.4152ZM41.9208 101H0.0565125V99.0851L1.44319 99.019C4.81082 98.8209 5.9994 98.2267 5.9994 95.5854V59.0697C5.9994 56.2963 4.81082 55.8341 1.44319 55.636L0.0565125 55.5039V53.9192H37.5627L41.6567 65.1446L40.7322 65.4748L38.223 62.5694C34.2611 57.9471 30.3652 55.636 26.4693 55.636H21.4509C18.0833 55.636 16.8947 56.5604 16.8947 59.0697V75.7758H21.0547C25.6769 75.7758 29.4408 72.078 30.3652 65.871H31.6859V87.3974H30.3652C29.4408 81.2564 25.6109 77.4926 21.0547 77.4926H16.8947V95.5854C16.8947 98.0946 18.1493 99.019 21.4509 99.019H26.2712C32.8084 99.019 37.0345 96.3117 41.9208 89.3123L43.6377 86.8031L44.4961 87.3974L41.9208 101ZM65.518 79.1434C66.3104 78.285 66.7726 77.2285 66.7726 76.5021C66.7726 75.3796 65.9142 74.7193 64.4615 74.5212L63.7351 74.3891V72.5402H76.3472V74.191C73.5739 74.5212 71.659 75.6437 69.8101 77.6907L64.1973 83.8977L72.1872 95.5854C73.772 97.8305 75.4888 99.019 77.6018 99.2171V101H59.7072V99.0851L61.0278 99.019C61.9523 99.019 62.4145 98.4908 62.4145 97.6324C62.4145 97.1701 62.2164 96.7079 61.8202 96.1797L58.3205 90.8311L55.217 94.3968C54.4906 95.2552 54.0284 95.9155 54.0284 96.906C54.0284 98.1606 54.8868 98.953 56.4716 99.0851L57.6602 99.1511V101H43.7274V99.1511H43.9915C46.7649 99.1511 48.6798 98.1606 50.7268 95.8495L57.0659 88.8501L49.7363 77.9548C48.2176 75.7097 46.2366 74.4551 43.9915 74.3231V72.5402H62.2164V74.4551H60.9618C60.1034 74.4551 59.5091 75.0494 59.5091 75.9739C59.5091 76.4361 59.7732 76.8983 60.1034 77.4266L62.9427 81.9167L65.518 79.1434ZM107.091 91.2933C105.176 98.0286 99.9594 102.057 93.2241 102.057C84.772 102.057 78.3009 95.5854 78.3009 87.1993C78.3009 78.417 85.4983 71.6818 94.9409 71.6818C101.742 71.6818 106.761 75.7758 106.761 80.6621C106.761 83.6996 105.11 85.4164 102.27 85.4164C99.3651 85.4164 97.3841 83.3694 97.3841 80.1999C97.3841 78.5491 98.3086 77.2285 98.3086 76.0399C98.3086 74.5872 97.3181 73.6627 95.6012 73.6627C90.913 73.6627 87.8095 77.2945 87.8095 83.4355C87.8095 91.0952 91.7054 95.8495 97.3181 95.8495C100.752 95.8495 103.591 94.1987 105.968 90.765L107.091 91.2933ZM122.43 52.9947V96.0476C122.43 98.0286 122.959 98.8209 124.808 98.953L125.996 99.019V101H109.686V99.019L110.809 98.953C112.658 98.8209 113.186 98.0286 113.186 96.0476V60.1262C113.186 59.0036 113.186 58.6735 112.063 58.2773L109.686 57.3528V55.9662C113.45 55.636 117.148 54.4474 121.044 52.9947H122.43ZM160.211 72.5402V94.5949C160.211 95.7174 160.211 96.0476 161.334 96.4438L163.711 97.3682V98.8209C160.409 99.0851 156.711 100.142 152.353 101.792H151.297V97.0381C147.929 100.142 144.429 101.66 140.864 101.66C137.562 101.66 134.657 100.406 133.138 98.5568C131.751 96.906 131.619 95.1231 131.619 92.746V77.4926C131.619 75.5116 131.091 74.7853 129.242 74.6532L128.119 74.5872V72.5402H140.599V92.6139C140.599 95.9155 141.458 97.1701 144.892 97.1701C147.401 97.1701 149.844 96.1136 151.297 94.3968V77.4926C151.297 75.5116 150.768 74.7853 148.92 74.6532L147.731 74.5872V72.5402H160.211ZM167.69 99.4152V89.9066H168.879C170.53 96.3117 174.557 100.01 178.784 100.01C181.359 100.01 182.944 98.6228 182.944 96.3778C182.944 93.5384 180.566 92.4158 176.671 90.3028C171.19 87.3314 167.69 85.8787 167.69 80.9263C167.69 75.8418 172.048 71.6818 177.925 71.6818C181.095 71.6818 183.868 72.2761 186.443 73.7288L186.972 82.0488H185.981C183.67 76.7002 180.104 73.8608 176.935 73.8608C174.954 73.8608 173.699 75.1154 173.699 76.8323C173.699 79.4736 176.274 80.1999 180.434 81.9828C186.509 84.558 189.151 87.4634 189.151 92.8781C189.151 98.0286 185.057 101.924 178.387 101.924C175.086 101.924 171.52 101.066 167.69 99.4152ZM204.063 59.5319C204.063 62.4373 201.686 64.6824 198.912 64.6824C196.139 64.6824 193.762 62.4373 193.762 59.5319C193.762 56.6265 196.139 54.3814 198.912 54.3814C201.686 54.3814 204.063 56.6265 204.063 59.5319ZM204.261 71.8138V96.0476C204.261 98.0286 204.789 98.8209 206.638 98.953L207.761 99.019V101H191.517V99.019L192.639 98.953C194.488 98.8209 195.017 98.0286 195.017 96.0476V78.9453C195.017 77.8228 195.017 77.4926 193.894 77.0964L191.517 76.172V74.7853C195.281 74.4551 198.979 73.2665 202.874 71.8138H204.261ZM222.699 101.924L211.275 77.6247C210.285 75.5116 208.7 74.4551 206.521 74.3891V72.5402H223.755V74.3891L221.973 74.4551C221.18 74.4551 220.652 75.1154 220.652 76.0399C220.652 76.304 220.718 76.7002 220.916 77.1624L226.991 90.5009L231.217 81.2564C231.811 79.9358 232.142 78.5491 232.142 77.6247C232.142 75.5116 230.755 74.5212 227.916 74.3891V72.5402H239.735V74.3891C236.764 74.8513 235.641 76.8983 234.189 80.0678L224.218 101.924H222.699ZM257.718 97.3682C253.162 100.208 249.728 101.924 246.757 101.924C243.125 101.924 240.352 99.4152 240.352 95.8495C240.352 91.4914 244.314 88.9822 252.171 85.8126L257.454 83.6336V77.6907C257.454 75.1815 256.464 73.9269 254.483 73.9269C251.511 73.9269 248.474 75.7097 248.474 78.0869C248.474 78.8793 248.804 79.8697 248.804 81.0583C248.804 84.0298 246.889 86.2088 244.182 86.2088C241.738 86.2088 240.286 84.8222 240.286 82.445C240.286 80.464 241.672 78.417 244.38 76.3701C248.474 73.2665 252.766 71.7478 257.388 71.7478C264.916 71.7478 266.104 74.5872 266.104 81.0583V95.9155C266.104 97.4343 266.302 98.1606 267.425 98.1606C268.415 98.1606 269.472 97.6984 270.66 96.7739L271.255 98.2927C268.547 100.472 265.708 101.594 262.935 101.594C259.567 101.594 257.85 100.208 257.718 97.3682ZM257.454 94.859V85.8126L254.417 87.0012C250.19 88.652 247.945 90.9631 247.945 93.5384C247.945 95.7835 249.332 97.1701 251.379 97.1701C253.294 97.1701 255.341 96.4438 257.454 94.859ZM273.316 99.4152V89.9066H274.504C276.155 96.3117 280.183 100.01 284.409 100.01C286.984 100.01 288.569 98.6228 288.569 96.3778C288.569 93.5384 286.192 92.4158 282.296 90.3028C276.815 87.3314 273.316 85.8787 273.316 80.9263C273.316 75.8418 277.674 71.6818 283.551 71.6818C286.72 71.6818 289.493 72.2761 292.069 73.7288L292.597 82.0488H291.606C289.295 76.7002 285.73 73.8608 282.56 73.8608C280.579 73.8608 279.325 75.1154 279.325 76.8323C279.325 79.4736 281.9 80.1999 286.06 81.9828C292.135 84.558 294.776 87.4634 294.776 92.8781C294.776 98.0286 290.682 101.924 284.013 101.924C280.711 101.924 277.145 101.066 273.316 99.4152Z" fill="white"></path></svg>